{"glyphs":{"0":{"ha":1039,"x_min":56,"x_max":983,"o":"m 519 -15 q 267 43 369 -15 q 110 214 164 101 q 56 488 56 326 q 110 761 56 649 q 267 934 164 874 q 519 994 369 994 q 773 934 669 994 q 930 760 876 874 q 983 488 983 647 q 929 216 983 329 q 772 44 875 103 q 519 -15 669 -15 m 519 211 q 662 281 615 211 q 708 488 708 351 q 662 696 708 624 q 519 768 615 768 q 377 695 424 768 q 331 486 331 622 q 377 281 331 350 q 519 211 424 211 z "},"1":{"ha":1039,"x_min":111,"x_max":994,"o":"m 143 0 l 143 228 l 440 228 l 440 751 l 567 747 l 215 550 l 111 750 l 517 979 l 725 979 l 725 228 l 994 228 l 994 0 l 143 0 z "},"2":{"ha":1039,"x_min":65,"x_max":967,"o":"m 118 0 l 118 204 l 524 503 q 580 548 551 522 q 628 605 608 574 q 647 672 647 636 q 604 742 647 717 q 485 767 561 767 q 315 742 401 767 q 164 672 229 718 l 65 876 q 265 965 150 935 q 503 994 379 994 q 730 958 635 994 q 875 854 825 921 q 925 696 925 788 q 906 598 925 644 q 854 510 886 551 q 781 434 822 469 q 697 371 740 399 l 521 260 l 513 228 l 967 228 l 967 0 l 118 0 z "},"3":{"ha":1039,"x_min":44,"x_max":956,"o":"m 496 -15 q 322 -1 407 -15 q 165 38 238 13 q 44 99 93 64 l 143 306 q 306 234 219 257 q 490 211 392 211 q 594 221 550 211 q 661 249 638 231 q 685 299 685 268 q 638 362 685 339 q 494 385 592 385 l 268 385 l 268 599 l 465 599 q 565 610 524 599 q 627 641 606 621 q 649 689 649 661 q 605 748 649 728 q 481 768 561 768 q 310 745 393 768 q 164 674 228 722 l 64 876 q 263 964 144 933 q 507 994 381 994 q 729 964 636 994 q 872 875 822 933 q 921 733 921 817 q 867 594 921 651 q 713 507 814 538 l 713 503 q 838 458 783 488 q 924 383 893 428 q 956 274 956 339 q 899 119 956 183 q 739 19 842 54 q 496 -15 636 -15 z "},"4":{"ha":1039,"x_min":60,"x_max":1006,"o":"m 600 0 l 600 156 l 60 156 l 60 351 l 585 979 l 860 979 l 860 364 l 1006 364 l 1006 156 l 860 156 l 860 0 l 600 0 m 614 364 l 614 713 l 633 713 l 275 301 l 263 364 l 614 364 z "},"5":{"ha":1039,"x_min":90,"x_max":986,"o":"m 519 -15 q 353 -1 433 -15 q 204 38 272 13 q 90 99 136 64 l 189 304 q 342 235 261 258 q 517 211 422 211 q 664 237 610 211 q 718 319 718 263 q 669 401 718 374 q 529 428 619 428 q 416 414 467 428 q 313 374 365 400 l 126 374 l 126 979 l 911 979 l 911 753 l 367 753 l 367 571 l 371 571 q 473 615 407 597 q 607 633 539 633 q 811 596 726 633 q 941 490 896 558 q 986 325 986 421 q 929 140 986 217 q 767 24 872 64 q 519 -15 663 -15 z "},"6":{"ha":1039,"x_min":68,"x_max":982,"o":"m 553 -15 q 294 42 403 -15 q 127 208 186 99 q 68 475 68 318 q 133 758 68 642 q 319 934 197 874 q 608 994 440 994 q 750 983 683 994 q 875 947 817 971 q 982 888 933 924 l 886 689 q 757 751 826 731 q 608 771 688 771 q 490 756 543 771 q 398 710 436 740 q 340 635 360 679 q 321 532 321 590 l 321 511 l 322 511 q 383 583 342 553 q 483 628 424 613 q 613 644 543 644 q 806 605 724 644 q 935 492 889 565 q 981 325 981 419 q 928 148 981 225 q 779 28 875 71 q 553 -15 683 -15 m 550 194 q 647 209 607 194 q 707 251 686 224 q 728 315 728 278 q 707 379 728 353 q 647 420 686 406 q 550 435 607 435 q 451 420 492 435 q 390 379 411 406 q 369 317 369 353 q 390 251 369 278 q 451 209 411 224 q 550 194 492 194 z "},"7":{"ha":1039,"x_min":75,"x_max":964,"o":"m 114 0 l 710 829 l 718 735 l 75 735 l 75 979 l 964 979 l 964 767 l 443 0 l 114 0 z "},"8":{"ha":1039,"x_min":50,"x_max":989,"o":"m 519 -15 q 173 63 296 -15 q 50 271 50 140 q 83 389 50 340 q 171 467 115 438 q 296 504 226 496 l 296 503 q 189 545 238 517 q 111 619 140 574 q 82 728 82 665 q 197 923 82 851 q 519 994 311 994 q 842 923 726 994 q 957 725 957 851 q 928 620 957 665 q 849 547 899 575 q 739 501 799 518 l 739 504 q 865 469 808 499 q 956 390 922 440 q 989 271 989 340 q 866 63 989 140 q 519 -15 743 -15 m 519 194 q 680 222 625 194 q 735 293 735 249 q 681 365 735 338 q 519 392 626 392 q 358 365 413 392 q 304 293 304 338 q 359 222 304 249 q 519 194 414 194 m 519 599 q 656 622 610 599 q 703 693 703 646 q 656 761 703 738 q 519 785 608 785 q 383 761 431 785 q 336 693 336 738 q 383 622 336 646 q 519 599 431 599 z "},"9":{"ha":1039,"x_min":57,"x_max":971,"o":"m 431 -15 q 289 -3 356 -15 q 164 33 222 8 q 57 90 106 57 l 153 289 q 283 228 214 247 q 432 208 351 208 q 550 224 497 208 q 641 271 603 240 q 699 346 679 301 q 718 446 718 390 l 718 468 l 717 468 q 656 398 697 428 q 556 353 615 368 q 426 338 497 338 q 233 376 315 338 q 105 487 151 415 q 58 654 58 558 q 111 831 58 754 q 260 951 164 908 q 486 994 356 994 q 746 938 638 994 q 913 771 854 881 q 971 504 971 661 q 906 222 971 338 q 722 45 842 106 q 431 -15 601 -15 m 489 544 q 588 559 547 544 q 649 601 628 574 q 669 664 669 628 q 649 728 669 703 q 588 769 628 754 q 489 785 547 785 q 392 769 432 785 q 332 728 353 754 q 311 664 311 703 q 332 601 311 628 q 393 559 353 574 q 489 544 433 544 z "},"A":{"ha":1379,"x_min":1,"x_max":1378,"o":"m 1 0 l 554 979 l 826 979 l 1378 0 l 1067 0 l 924 267 l 1049 160 l 326 160 l 451 267 l 308 0 l 1 0 m 685 719 l 475 328 l 419 386 l 956 386 l 899 328 l 693 719 l 685 719 z "},"Á":{"ha":1379,"x_min":1,"x_max":1378,"o":"m 1 0 l 554 979 l 826 979 l 1378 0 l 1067 0 l 924 267 l 1049 160 l 326 160 l 451 267 l 308 0 l 1 0 m 685 719 l 475 328 l 419 386 l 956 386 l 899 328 l 693 719 l 685 719 m 582 1063 l 786 1318 l 1092 1318 l 797 1063 l 582 1063 z "},"Ă":{"ha":1379,"x_min":1,"x_max":1378,"o":"m 1 0 l 554 979 l 826 979 l 1378 0 l 1067 0 l 924 267 l 1049 160 l 326 160 l 451 267 l 308 0 l 1 0 m 685 719 l 475 328 l 419 386 l 956 386 l 899 328 l 693 719 l 685 719 m 690 1056 q 448 1125 535 1056 q 356 1329 361 1194 l 518 1343 q 565 1259 525 1288 q 690 1231 604 1231 q 817 1259 778 1231 q 863 1343 856 1288 l 1024 1329 q 932 1125 1018 1194 q 690 1056 846 1056 z "},"Ắ":{"ha":1379,"x_min":1,"x_max":1378,"o":"m 1 0 l 554 979 l 826 979 l 1378 0 l 1067 0 l 924 267 l 1049 160 l 326 160 l 451 267 l 308 0 l 1 0 m 685 719 l 475 328 l 419 386 l 956 386 l 899 328 l 693 719 l 685 719 m 690 1061 q 449 1124 531 1061 q 361 1304 368 1186 l 510 1318 q 564 1235 518 1261 q 690 1210 610 1210 q 817 1235 771 1210 q 871 1318 863 1260 l 1019 1304 q 931 1124 1013 1186 q 690 1061 850 1061 m 593 1289 l 718 1475 l 989 1475 l 771 1289 l 593 1289 z "},"Ặ":{"ha":1379,"x_min":1,"x_max":1378,"o":"m 1 0 l 554 979 l 826 979 l 1378 0 l 1067 0 l 924 267 l 1049 160 l 326 160 l 451 267 l 308 0 l 1 0 m 685 719 l 475 328 l 419 386 l 956 386 l 899 328 l 693 719 l 685 719 m 565 -326 l 565 -94 l 813 -94 l 813 -326 l 565 -326 m 690 1056 q 448 1125 535 1056 q 356 1329 361 1194 l 518 1343 q 565 1259 525 1288 q 690 1231 604 1231 q 817 1259 778 1231 q 863 1343 856 1288 l 1024 1329 q 932 1125 1018 1194 q 690 1056 846 1056 z "},"Ằ":{"ha":1379,"x_min":1,"x_max":1378,"o":"m 1 0 l 554 979 l 826 979 l 1378 0 l 1067 0 l 924 267 l 1049 160 l 326 160 l 451 267 l 308 0 l 1 0 m 685 719 l 475 328 l 419 386 l 956 386 l 899 328 l 693 719 l 685 719 m 690 1061 q 449 1124 531 1061 q 361 1304 368 1186 l 510 1318 q 564 1235 518 1261 q 690 1210 610 1210 q 817 1235 771 1210 q 871 1318 863 1260 l 1019 1304 q 931 1124 1013 1186 q 690 1061 850 1061 m 615 1289 l 399 1475 l 668 1475 l 793 1289 l 615 1289 z "},"Ẳ":{"ha":1379,"x_min":1,"x_max":1378,"o":"m 1 0 l 554 979 l 826 979 l 1378 0 l 1067 0 l 924 267 l 1049 160 l 326 160 l 451 267 l 308 0 l 1 0 m 685 719 l 475 328 l 419 386 l 956 386 l 899 328 l 693 719 l 685 719 m 690 1061 q 449 1124 531 1061 q 361 1304 368 1186 l 510 1318 q 564 1235 518 1261 q 690 1210 610 1210 q 817 1235 771 1210 q 871 1318 863 1260 l 1019 1304 q 931 1124 1013 1186 q 690 1061 850 1061 m 614 1282 q 620 1316 611 1304 q 644 1335 629 1328 q 671 1350 660 1343 q 682 1367 682 1357 q 668 1385 682 1378 q 626 1393 654 1393 q 581 1388 606 1393 q 524 1372 556 1382 l 488 1471 q 580 1496 529 1488 q 689 1504 631 1504 q 838 1480 788 1504 q 889 1414 889 1456 q 870 1368 889 1385 q 828 1341 851 1351 q 788 1317 806 1331 q 771 1282 769 1304 l 614 1282 z "},"Ẵ":{"ha":1379,"x_min":1,"x_max":1378,"o":"m 1 0 l 554 979 l 826 979 l 1378 0 l 1067 0 l 924 267 l 1049 160 l 326 160 l 451 267 l 308 0 l 1 0 m 685 719 l 475 328 l 419 386 l 956 386 l 899 328 l 693 719 l 685 719 m 689 1061 q 460 1117 540 1061 q 368 1269 381 1174 l 504 1288 q 570 1220 519 1242 q 689 1199 621 1199 q 808 1220 757 1199 q 874 1288 858 1242 l 1011 1269 q 919 1117 999 1174 q 689 1061 839 1061 m 492 1325 l 356 1331 q 380 1424 361 1385 q 441 1483 399 1463 q 557 1504 483 1504 q 642 1492 603 1504 q 713 1472 682 1481 q 759 1459 732 1468 q 817 1450 786 1450 q 868 1466 851 1450 q 890 1503 885 1482 l 1025 1497 q 972 1369 1018 1414 q 815 1324 925 1324 q 733 1335 768 1324 q 671 1354 697 1346 q 617 1371 642 1364 q 565 1378 592 1378 q 519 1364 540 1378 q 492 1325 497 1350 z "},"Ǎ":{"ha":1379,"x_min":1,"x_max":1378,"o":"m 1 0 l 554 979 l 826 979 l 1378 0 l 1067 0 l 924 267 l 1049 160 l 326 160 l 451 267 l 308 0 l 1 0 m 685 719 l 475 328 l 419 386 l 956 386 l 899 328 l 693 719 l 685 719 m 572 1063 l 358 1319 l 568 1319 l 690 1193 l 813 1319 l 1022 1319 l 808 1063 l 572 1063 z "},"Â":{"ha":1379,"x_min":1,"x_max":1378,"o":"m 1 0 l 554 979 l 826 979 l 1378 0 l 1067 0 l 924 267 l 1049 160 l 326 160 l 451 267 l 308 0 l 1 0 m 685 719 l 475 328 l 419 386 l 956 386 l 899 328 l 693 719 l 685 719 m 358 1063 l 572 1318 l 808 1318 l 1022 1063 l 813 1063 l 690 1188 l 568 1063 l 358 1063 z "},"Ấ":{"ha":1379,"x_min":1,"x_max":1378,"o":"m 1 0 l 554 979 l 826 979 l 1378 0 l 1067 0 l 924 267 l 1049 160 l 326 160 l 451 267 l 308 0 l 1 0 m 685 719 l 475 328 l 419 386 l 956 386 l 899 328 l 693 719 l 685 719 m 365 1064 l 569 1340 l 807 1340 l 1011 1064 l 817 1064 l 688 1207 l 558 1064 l 365 1064 m 899 1260 l 1008 1471 l 1232 1471 l 1054 1260 l 899 1260 z "},"Ậ":{"ha":1379,"x_min":1,"x_max":1378,"o":"m 1 0 l 554 979 l 826 979 l 1378 0 l 1067 0 l 924 267 l 1049 160 l 326 160 l 451 267 l 308 0 l 1 0 m 685 719 l 475 328 l 419 386 l 956 386 l 899 328 l 693 719 l 685 719 m 565 -326 l 565 -94 l 813 -94 l 813 -326 l 565 -326 m 358 1063 l 572 1318 l 808 1318 l 1022 1063 l 813 1063 l 690 1188 l 568 1063 l 358 1063 z "},"Ầ":{"ha":1379,"x_min":1,"x_max":1378,"o":"m 1 0 l 554 979 l 826 979 l 1378 0 l 1067 0 l 924 267 l 1049 160 l 326 160 l 451 267 l 308 0 l 1 0 m 685 719 l 475 328 l 419 386 l 956 386 l 899 328 l 693 719 l 685 719 m 365 1064 l 569 1340 l 807 1340 l 1011 1064 l 817 1064 l 688 1207 l 558 1064 l 365 1064 m 961 1260 l 785 1471 l 1008 1471 l 1118 1260 l 961 1260 z "},"Ẩ":{"ha":1379,"x_min":1,"x_max":1378,"o":"m 1 0 l 554 979 l 826 979 l 1378 0 l 1067 0 l 924 267 l 1049 160 l 326 160 l 451 267 l 308 0 l 1 0 m 685 719 l 475 328 l 419 386 l 956 386 l 899 328 l 693 719 l 685 719 m 365 1064 l 569 1285 l 807 1285 l 1011 1064 l 817 1064 l 688 1182 l 558 1064 l 365 1064 m 903 1251 q 910 1285 900 1271 q 934 1312 919 1299 q 959 1335 949 1325 q 969 1354 969 1344 q 959 1369 969 1365 q 921 1374 949 1374 q 878 1369 897 1374 q 828 1354 858 1365 l 793 1450 q 878 1473 835 1465 q 978 1481 922 1481 q 1116 1460 1069 1481 q 1163 1396 1163 1439 q 1147 1349 1163 1368 q 1110 1315 1131 1331 q 1074 1286 1089 1300 q 1060 1251 1058 1272 l 903 1251 z "},"Ẫ":{"ha":1379,"x_min":1,"x_max":1378,"o":"m 1 0 l 554 979 l 826 979 l 1378 0 l 1067 0 l 924 267 l 1049 160 l 326 160 l 451 267 l 308 0 l 1 0 m 685 719 l 475 328 l 419 386 l 956 386 l 899 328 l 693 719 l 685 719 m 367 1064 l 571 1263 l 810 1263 l 1014 1064 l 811 1064 l 690 1167 l 569 1064 l 367 1064 m 492 1304 l 356 1310 q 409 1438 364 1392 q 557 1483 454 1483 q 642 1472 603 1483 q 713 1451 682 1460 q 759 1438 732 1447 q 817 1429 786 1429 q 868 1444 851 1429 q 890 1482 885 1460 l 1025 1476 q 968 1348 1018 1393 q 815 1303 918 1303 q 733 1314 768 1303 q 671 1332 697 1325 q 617 1350 642 1343 q 565 1357 592 1357 q 519 1344 540 1357 q 492 1304 497 1331 z "},"Ȁ":{"ha":1379,"x_min":1,"x_max":1378,"o":"m 1 0 l 554 979 l 826 979 l 1378 0 l 1067 0 l 924 267 l 1049 160 l 326 160 l 451 267 l 308 0 l 1 0 m 685 719 l 475 328 l 419 386 l 956 386 l 899 328 l 693 719 l 685 719 m 754 1063 l 521 1318 l 765 1318 l 913 1063 l 754 1063 m 468 1063 l 211 1318 l 454 1318 l 626 1063 l 468 1063 z "},"Ä":{"ha":1379,"x_min":1,"x_max":1378,"o":"m 1 0 l 554 979 l 826 979 l 1378 0 l 1067 0 l 924 267 l 1049 160 l 326 160 l 451 267 l 308 0 l 1 0 m 685 719 l 475 328 l 419 386 l 956 386 l 899 328 l 693 719 l 685 719 m 764 1060 l 764 1290 l 1021 1290 l 1021 1060 l 764 1060 m 360 1060 l 360 1290 l 617 1290 l 617 1060 l 360 1060 z "},"Ȧ":{"ha":1379,"x_min":1,"x_max":1378,"o":"m 1 0 l 554 979 l 826 979 l 1378 0 l 1067 0 l 924 267 l 1049 160 l 326 160 l 451 267 l 308 0 l 1 0 m 685 719 l 475 328 l 419 386 l 956 386 l 899 328 l 693 719 l 685 719 m 565 1060 l 565 1294 l 815 1294 l 815 1060 l 565 1060 z "},"Ạ":{"ha":1379,"x_min":1,"x_max":1378,"o":"m 1 0 l 554 979 l 826 979 l 1378 0 l 1067 0 l 924 267 l 1049 160 l 326 160 l 451 267 l 308 0 l 1 0 m 685 719 l 475 328 l 419 386 l 956 386 l 899 328 l 693 719 l 685 719 m 565 -326 l 565 -94 l 813 -94 l 813 -326 l 565 -326 z "},"À":{"ha":1379,"x_min":1,"x_max":1378,"o":"m 1 0 l 554 979 l 826 979 l 1378 0 l 1067 0 l 924 267 l 1049 160 l 326 160 l 451 267 l 308 0 l 1 0 m 685 719 l 475 328 l 419 386 l 956 386 l 899 328 l 693 719 l 685 719 m 593 1063 l 300 1318 l 583 1318 l 788 1063 l 593 1063 z "},"Ả":{"ha":1379,"x_min":1,"x_max":1378,"o":"m 1 0 l 554 979 l 826 979 l 1378 0 l 1067 0 l 924 267 l 1049 160 l 326 160 l 451 267 l 308 0 l 1 0 m 685 719 l 475 328 l 419 386 l 956 386 l 899 328 l 693 719 l 685 719 m 608 1063 l 608 1082 q 622 1113 608 1100 q 651 1136 635 1126 q 681 1156 668 1146 q 694 1175 694 1165 q 680 1193 694 1188 q 635 1199 665 1199 q 583 1193 608 1199 q 535 1176 558 1188 l 492 1282 q 583 1311 529 1301 q 697 1321 636 1321 q 850 1295 799 1321 q 901 1224 901 1269 q 882 1174 901 1193 q 837 1140 863 1154 q 791 1111 811 1125 q 771 1076 771 1097 l 771 1063 l 608 1063 z "},"Ȃ":{"ha":1379,"x_min":1,"x_max":1378,"o":"m 1 0 l 554 979 l 826 979 l 1378 0 l 1067 0 l 924 267 l 1049 160 l 326 160 l 451 267 l 308 0 l 1 0 m 685 719 l 475 328 l 419 386 l 956 386 l 899 328 l 693 719 l 685 719 m 518 1056 l 356 1069 q 448 1274 361 1204 q 690 1343 535 1343 q 932 1274 846 1343 q 1024 1069 1018 1204 l 863 1056 q 818 1139 856 1110 q 692 1168 781 1168 q 566 1140 607 1168 q 518 1056 525 1111 z "},"Ā":{"ha":1379,"x_min":1,"x_max":1378,"o":"m 1 0 l 554 979 l 826 979 l 1378 0 l 1067 0 l 924 267 l 1049 160 l 326 160 l 451 267 l 308 0 l 1 0 m 685 719 l 475 328 l 419 386 l 956 386 l 899 328 l 693 719 l 685 719 m 376 1094 l 376 1279 l 1004 1279 l 1004 1094 l 376 1094 z "},"Ą":{"ha":1379,"x_min":1,"x_max":1378,"o":"m 1 0 l 554 979 l 826 979 l 1378 0 l 1067 0 l 924 267 l 1049 160 l 326 160 l 451 267 l 308 0 l 1 0 m 685 719 l 475 328 l 419 386 l 956 386 l 899 328 l 693 719 l 685 719 m 1214 -290 q 1043 -255 1101 -290 q 985 -153 985 -219 q 1031 -34 985 -90 q 1176 68 1078 22 l 1261 0 q 1209 -33 1231 -17 q 1176 -65 1188 -49 q 1165 -99 1165 -81 q 1187 -135 1165 -124 q 1249 -146 1208 -146 q 1294 -142 1272 -146 q 1342 -132 1317 -139 l 1374 -265 q 1293 -285 1329 -279 q 1214 -290 1257 -290 z "},"Å":{"ha":1379,"x_min":1,"x_max":1378,"o":"m 1 0 l 554 979 l 826 979 l 1378 0 l 1067 0 l 924 267 l 1049 160 l 326 160 l 451 267 l 308 0 l 1 0 m 685 719 l 475 328 l 419 386 l 956 386 l 899 328 l 693 719 l 685 719 m 690 1043 q 582 1069 629 1043 q 508 1138 535 1094 q 481 1233 481 1181 q 508 1330 481 1288 q 582 1397 535 1372 q 690 1422 629 1422 q 799 1397 751 1422 q 873 1329 846 1372 q 900 1232 900 1286 q 873 1137 900 1179 q 799 1069 846 1094 q 690 1043 753 1043 m 690 1143 q 755 1169 732 1143 q 778 1233 778 1194 q 755 1297 778 1271 q 690 1322 732 1322 q 626 1297 650 1322 q 601 1233 601 1271 q 625 1169 601 1194 q 690 1143 649 1143 z "},"Ǻ":{"ha":1379,"x_min":1,"x_max":1378,"o":"m 1 0 l 554 979 l 826 979 l 1378 0 l 1067 0 l 924 267 l 1049 160 l 326 160 l 451 267 l 308 0 l 1 0 m 685 719 l 475 328 l 419 386 l 956 386 l 899 328 l 693 719 l 685 719 m 690 1058 q 568 1087 622 1058 q 484 1164 514 1115 q 454 1274 454 1213 q 484 1383 454 1335 q 568 1460 514 1432 q 690 1488 622 1488 q 747 1483 721 1488 q 797 1467 774 1478 l 888 1561 l 1122 1561 l 904 1369 q 921 1324 915 1349 q 926 1274 926 1300 q 897 1164 926 1213 q 813 1087 867 1115 q 690 1058 760 1058 m 690 1174 q 763 1201 736 1174 q 789 1274 789 1229 q 763 1346 789 1318 q 690 1374 736 1374 q 619 1346 646 1374 q 592 1274 592 1318 q 619 1202 592 1231 q 690 1174 646 1174 z "},"Ã":{"ha":1379,"x_min":1,"x_max":1378,"o":"m 1 0 l 554 979 l 826 979 l 1378 0 l 1067 0 l 924 267 l 1049 160 l 326 160 l 451 267 l 308 0 l 1 0 m 685 719 l 475 328 l 419 386 l 956 386 l 899 328 l 693 719 l 685 719 m 446 1051 l 285 1060 q 352 1237 292 1169 q 517 1304 413 1304 q 617 1288 568 1304 q 703 1260 667 1271 q 771 1238 733 1250 q 844 1225 808 1225 q 908 1247 888 1225 q 933 1311 928 1269 l 1096 1304 q 1030 1126 1090 1192 q 864 1060 969 1060 q 763 1076 813 1060 q 679 1103 714 1092 q 609 1125 649 1113 q 536 1138 569 1138 q 474 1116 493 1138 q 446 1051 454 1094 z "},"Æ":{"ha":1803,"x_min":-69,"x_max":1688,"o":"m -69 0 l 669 979 l 1688 979 l 1688 749 l 958 749 l 1050 822 l 1138 528 l 1014 610 l 1653 610 l 1653 382 l 1063 382 l 1156 467 l 1253 142 l 1125 231 l 1688 231 l 1688 0 l 989 0 l 910 269 l 1006 156 l 339 156 l 471 260 l 279 0 l -69 0 m 775 708 l 511 335 l 471 388 l 960 388 l 893 326 l 785 708 l 775 708 z "},"Ǽ":{"ha":1803,"x_min":-69,"x_max":1688,"o":"m -69 0 l 669 979 l 1688 979 l 1688 749 l 958 749 l 1050 822 l 1138 528 l 1014 610 l 1653 610 l 1653 382 l 1063 382 l 1156 467 l 1253 142 l 1125 231 l 1688 231 l 1688 0 l 989 0 l 910 269 l 1006 156 l 339 156 l 471 260 l 279 0 l -69 0 m 775 708 l 511 335 l 471 388 l 960 388 l 893 326 l 785 708 l 775 708 m 779 1063 l 983 1318 l 1289 1318 l 994 1063 l 779 1063 z "},"B":{"ha":1304,"x_min":144,"x_max":1206,"o":"m 144 0 l 144 979 l 738 979 q 1056 915 940 979 q 1172 731 1172 851 q 1114 588 1172 642 q 968 513 1056 535 l 968 508 q 1089 467 1035 496 q 1174 392 1143 439 q 1206 276 1206 346 q 1151 129 1206 192 q 996 33 1097 67 q 754 0 894 0 l 144 0 m 438 217 l 751 217 q 800 219 776 217 q 844 228 824 222 q 880 243 864 233 q 903 267 896 253 q 911 303 911 282 q 903 338 911 324 q 880 363 896 353 q 844 377 864 372 q 801 384 824 382 q 753 386 778 386 l 438 386 l 438 217 m 438 600 l 722 600 q 844 620 808 600 q 881 682 881 640 q 844 743 881 724 q 721 763 808 763 l 438 763 l 438 600 z "},"Ɓ":{"ha":1581,"x_min":6,"x_max":1481,"o":"m 421 0 l 421 783 l 383 783 q 267 763 300 783 q 235 688 235 742 l 235 608 l 6 608 l 6 700 q 101 910 6 842 q 389 979 196 979 l 1017 979 q 1334 915 1219 979 q 1449 731 1449 851 q 1392 590 1449 643 q 1243 513 1335 536 l 1243 508 q 1367 467 1314 496 q 1450 391 1419 438 q 1481 276 1481 344 q 1426 129 1481 192 q 1272 33 1372 67 q 1031 0 1171 0 l 421 0 m 714 215 l 1028 215 q 1147 238 1107 215 q 1188 303 1188 260 q 1147 367 1188 346 q 1029 388 1106 388 l 714 388 l 714 215 m 714 599 l 997 599 q 1120 619 1085 599 q 1156 683 1156 640 q 1120 744 1156 725 q 997 764 1085 764 l 714 764 l 714 599 z "},"C":{"ha":1235,"x_min":106,"x_max":1147,"o":"m 721 -17 q 402 43 542 -17 q 184 217 263 103 q 106 489 106 331 q 185 760 106 647 q 403 934 264 874 q 721 994 542 994 q 965 969 858 994 q 1147 886 1072 944 l 1049 663 q 900 728 972 710 q 738 746 828 746 q 505 683 594 746 q 415 490 415 619 q 503 298 415 363 q 738 233 592 233 q 900 251 828 233 q 1049 317 972 268 l 1147 93 q 965 9 1072 35 q 721 -17 857 -17 z "},"Ć":{"ha":1235,"x_min":106,"x_max":1147,"o":"m 721 -17 q 402 43 542 -17 q 184 217 263 103 q 106 489 106 331 q 185 760 106 647 q 403 934 264 874 q 721 994 542 994 q 965 969 858 994 q 1147 886 1072 944 l 1049 663 q 900 728 972 710 q 738 746 828 746 q 505 683 594 746 q 415 490 415 619 q 503 298 415 363 q 738 233 592 233 q 900 251 828 233 q 1049 317 972 268 l 1147 93 q 965 9 1072 35 q 721 -17 857 -17 m 599 1063 l 803 1318 l 1108 1318 l 814 1063 l 599 1063 z "},"Č":{"ha":1235,"x_min":106,"x_max":1147,"o":"m 721 -17 q 402 43 542 -17 q 184 217 263 103 q 106 489 106 331 q 185 760 106 647 q 403 934 264 874 q 721 994 542 994 q 965 969 858 994 q 1147 886 1072 944 l 1049 663 q 900 728 972 710 q 738 746 828 746 q 505 683 594 746 q 415 490 415 619 q 503 298 415 363 q 738 233 592 233 q 900 251 828 233 q 1049 317 972 268 l 1147 93 q 965 9 1072 35 q 721 -17 857 -17 m 589 1063 l 375 1319 l 585 1319 l 707 1193 l 829 1319 l 1039 1319 l 825 1063 l 589 1063 z "},"Ç":{"ha":1235,"x_min":106,"x_max":1147,"o":"m 721 -17 q 402 43 542 -17 q 184 217 263 103 q 106 489 106 331 q 185 760 106 647 q 403 934 264 874 q 721 994 542 994 q 965 969 858 994 q 1147 886 1072 944 l 1049 663 q 900 728 972 710 q 738 746 828 746 q 505 683 594 746 q 415 490 415 619 q 503 298 415 363 q 738 233 592 233 q 900 251 828 233 q 1049 317 972 268 l 1147 93 q 965 9 1072 35 q 721 -17 857 -17 m 731 -290 q 619 -283 678 -290 q 522 -258 561 -275 l 565 -153 q 642 -176 603 -167 q 738 -185 681 -185 q 799 -178 781 -185 q 817 -156 817 -172 q 794 -131 817 -136 q 740 -125 772 -125 q 701 -126 728 -125 q 656 -131 675 -128 l 621 -97 l 639 28 l 767 28 l 750 -90 l 693 -57 q 749 -47 718 -50 q 818 -43 781 -43 q 897 -53 860 -43 q 956 -88 933 -62 q 979 -158 979 -114 q 950 -237 979 -208 q 865 -278 921 -267 q 731 -290 810 -290 z "},"Ḉ":{"ha":1235,"x_min":106,"x_max":1147,"o":"m 721 -17 q 402 43 542 -17 q 184 217 263 103 q 106 489 106 331 q 185 760 106 647 q 403 934 264 874 q 721 994 542 994 q 965 969 858 994 q 1147 886 1072 944 l 1049 663 q 900 728 972 710 q 738 746 828 746 q 505 683 594 746 q 415 490 415 619 q 503 298 415 363 q 738 233 592 233 q 900 251 828 233 q 1049 317 972 268 l 1147 93 q 965 9 1072 35 q 721 -17 857 -17 m 731 -290 q 619 -283 678 -290 q 522 -258 561 -275 l 565 -153 q 642 -176 603 -167 q 738 -185 681 -185 q 799 -178 781 -185 q 817 -156 817 -172 q 794 -131 817 -136 q 740 -125 772 -125 q 701 -126 728 -125 q 656 -131 675 -128 l 621 -97 l 639 28 l 767 28 l 750 -90 l 693 -57 q 749 -47 718 -50 q 818 -43 781 -43 q 897 -53 860 -43 q 956 -88 933 -62 q 979 -158 979 -114 q 950 -237 979 -208 q 865 -278 921 -267 q 731 -290 810 -290 m 599 1063 l 803 1318 l 1108 1318 l 814 1063 l 599 1063 z "},"Ĉ":{"ha":1235,"x_min":106,"x_max":1147,"o":"m 721 -17 q 402 43 542 -17 q 184 217 263 103 q 106 489 106 331 q 185 760 106 647 q 403 934 264 874 q 721 994 542 994 q 965 969 858 994 q 1147 886 1072 944 l 1049 663 q 900 728 972 710 q 738 746 828 746 q 505 683 594 746 q 415 490 415 619 q 503 298 415 363 q 738 233 592 233 q 900 251 828 233 q 1049 317 972 268 l 1147 93 q 965 9 1072 35 q 721 -17 857 -17 m 375 1063 l 589 1318 l 825 1318 l 1039 1063 l 829 1063 l 707 1188 l 585 1063 l 375 1063 z "},"Ċ":{"ha":1235,"x_min":106,"x_max":1147,"o":"m 721 -17 q 402 43 542 -17 q 184 217 263 103 q 106 489 106 331 q 185 760 106 647 q 403 934 264 874 q 721 994 542 994 q 965 969 858 994 q 1147 886 1072 944 l 1049 663 q 900 728 972 710 q 738 746 828 746 q 505 683 594 746 q 415 490 415 619 q 503 298 415 363 q 738 233 592 233 q 900 251 828 233 q 1049 317 972 268 l 1147 93 q 965 9 1072 35 q 721 -17 857 -17 m 582 1060 l 582 1294 l 832 1294 l 832 1060 l 582 1060 z "},"D":{"ha":1404,"x_min":144,"x_max":1297,"o":"m 144 0 l 144 979 l 671 979 q 1013 923 872 979 q 1225 758 1153 867 q 1297 490 1297 649 q 1225 223 1297 332 q 1013 57 1153 114 q 671 0 874 0 l 144 0 m 447 243 l 649 243 q 906 303 824 243 q 989 490 989 364 q 906 676 989 617 q 649 736 824 736 l 447 736 l 447 243 z "},"Ǆ":{"ha":2511,"x_min":144,"x_max":2450,"o":"m 144 0 l 144 979 l 671 979 q 1013 923 872 979 q 1225 758 1153 867 q 1297 490 1297 649 q 1225 223 1297 332 q 1013 57 1153 114 q 671 0 874 0 l 144 0 m 447 243 l 649 243 q 906 303 824 243 q 989 490 989 364 q 906 676 989 617 q 649 736 824 736 l 447 736 l 447 243 m 1475 0 l 1475 206 l 2113 831 l 2135 746 l 1475 746 l 1475 979 l 2429 979 l 2429 776 l 1789 149 l 1768 233 l 2451 233 l 2451 0 l 1475 0 m 1833 1063 l 1619 1319 l 1829 1319 l 1951 1193 l 2074 1319 l 2283 1319 l 2069 1063 l 1833 1063 z "},"Ð":{"ha":1404,"x_min":-3,"x_max":1297,"o":"m 144 0 l 144 979 l 671 979 q 1013 923 872 979 q 1225 758 1153 867 q 1297 490 1297 649 q 1225 223 1297 332 q 1013 57 1153 114 q 671 0 874 0 l 144 0 m 447 243 l 649 243 q 906 303 824 243 q 989 490 989 364 q 906 676 989 617 q 649 736 824 736 l 447 736 l 447 243 m -4 394 l -4 592 l 760 592 l 760 394 l -4 394 z "},"Ď":{"ha":1404,"x_min":144,"x_max":1297,"o":"m 144 0 l 144 979 l 671 979 q 1013 923 872 979 q 1225 758 1153 867 q 1297 490 1297 649 q 1225 223 1297 332 q 1013 57 1153 114 q 671 0 874 0 l 144 0 m 447 243 l 649 243 q 906 303 824 243 q 989 490 989 364 q 906 676 989 617 q 649 736 824 736 l 447 736 l 447 243 m 574 1063 l 360 1319 l 569 1319 l 692 1193 l 814 1319 l 1024 1319 l 810 1063 l 574 1063 z "},"Đ":{"ha":1404,"x_min":-3,"x_max":1297,"o":"m 144 0 l 144 979 l 671 979 q 1013 923 872 979 q 1225 758 1153 867 q 1297 490 1297 649 q 1225 223 1297 332 q 1013 57 1153 114 q 671 0 874 0 l 144 0 m 447 243 l 649 243 q 906 303 824 243 q 989 490 989 364 q 906 676 989 617 q 649 736 824 736 l 447 736 l 447 243 m -4 394 l -4 592 l 760 592 l 760 394 l -4 394 z "},"Ḍ":{"ha":1404,"x_min":144,"x_max":1297,"o":"m 144 0 l 144 979 l 671 979 q 1013 923 872 979 q 1225 758 1153 867 q 1297 490 1297 649 q 1225 223 1297 332 q 1013 57 1153 114 q 671 0 874 0 l 144 0 m 447 243 l 649 243 q 906 303 824 243 q 989 490 989 364 q 906 676 989 617 q 649 736 824 736 l 447 736 l 447 243 m 568 -326 l 568 -94 l 815 -94 l 815 -326 l 568 -326 z "},"Ɗ":{"ha":1679,"x_min":6,"x_max":1574,"o":"m 421 0 l 421 783 l 383 783 q 267 763 300 783 q 235 688 235 742 l 235 608 l 6 608 l 6 700 q 101 910 6 842 q 392 979 197 979 l 946 979 q 1288 923 1149 979 q 1501 758 1428 867 q 1574 490 1574 649 q 1501 223 1574 332 q 1288 57 1428 114 q 946 0 1149 0 l 421 0 m 724 243 l 924 243 q 1182 303 1099 243 q 1265 490 1265 364 q 1183 676 1265 617 q 924 736 1100 736 l 724 736 l 724 243 z "},"Ḏ":{"ha":1404,"x_min":144,"x_max":1297,"o":"m 144 0 l 144 979 l 671 979 q 1013 923 872 979 q 1225 758 1153 867 q 1297 490 1297 649 q 1225 223 1297 332 q 1013 57 1153 114 q 671 0 874 0 l 144 0 m 447 243 l 649 243 q 906 303 824 243 q 989 490 989 364 q 906 676 989 617 q 649 736 824 736 l 447 736 l 447 243 m 378 -283 l 378 -100 l 1006 -100 l 1006 -283 l 378 -283 z "},"ǅ":{"ha":2329,"x_min":144,"x_max":2269,"o":"m 144 0 l 144 979 l 671 979 q 1013 923 872 979 q 1225 758 1153 867 q 1297 490 1297 649 q 1225 223 1297 332 q 1013 57 1153 114 q 671 0 874 0 l 144 0 m 447 243 l 649 243 q 906 303 824 243 q 989 490 989 364 q 906 676 989 617 q 649 736 824 736 l 447 736 l 447 243 m 1497 0 l 1497 197 l 1981 565 l 1971 499 l 1499 499 l 1499 703 l 2251 703 l 2251 514 l 1761 146 l 1771 204 l 2269 204 l 2269 0 l 1497 0 m 1757 781 l 1553 1086 l 1751 1086 l 1881 922 l 2010 1086 l 2208 1086 l 2004 781 l 1757 781 z "},"E":{"ha":1133,"x_min":144,"x_max":1019,"o":"m 144 0 l 144 979 l 1019 979 l 1019 749 l 438 749 l 438 610 l 976 610 l 976 382 l 438 382 l 438 231 l 1019 231 l 1019 0 l 144 0 z "},"É":{"ha":1133,"x_min":144,"x_max":1019,"o":"m 144 0 l 144 979 l 1019 979 l 1019 749 l 438 749 l 438 610 l 976 610 l 976 382 l 438 382 l 438 231 l 1019 231 l 1019 0 l 144 0 m 493 1063 l 697 1318 l 1003 1318 l 708 1063 l 493 1063 z "},"Ĕ":{"ha":1133,"x_min":144,"x_max":1019,"o":"m 144 0 l 144 979 l 1019 979 l 1019 749 l 438 749 l 438 610 l 976 610 l 976 382 l 438 382 l 438 231 l 1019 231 l 1019 0 l 144 0 m 601 1056 q 359 1125 446 1056 q 267 1329 272 1194 l 429 1343 q 476 1259 436 1288 q 601 1231 515 1231 q 728 1259 689 1231 q 774 1343 767 1288 l 935 1329 q 843 1125 929 1194 q 601 1056 757 1056 z "},"Ě":{"ha":1133,"x_min":144,"x_max":1019,"o":"m 144 0 l 144 979 l 1019 979 l 1019 749 l 438 749 l 438 610 l 976 610 l 976 382 l 438 382 l 438 231 l 1019 231 l 1019 0 l 144 0 m 483 1063 l 269 1319 l 479 1319 l 601 1193 l 724 1319 l 933 1319 l 719 1063 l 483 1063 z "},"Ȩ":{"ha":1133,"x_min":144,"x_max":1019,"o":"m 144 0 l 144 979 l 1019 979 l 1019 749 l 438 749 l 438 610 l 976 610 l 976 382 l 438 382 l 438 231 l 1019 231 l 1019 0 l 144 0 m 625 -290 q 514 -283 572 -290 q 417 -258 456 -275 l 460 -153 q 536 -176 497 -167 q 632 -185 575 -185 q 693 -178 675 -185 q 711 -156 711 -172 q 689 -131 711 -136 q 635 -125 667 -125 q 596 -126 622 -125 q 550 -131 569 -128 l 515 -97 l 533 28 l 661 28 l 644 -90 l 588 -57 q 644 -47 613 -50 q 713 -43 675 -43 q 791 -53 754 -43 q 851 -88 828 -62 q 874 -158 874 -114 q 844 -237 874 -208 q 760 -278 815 -267 q 625 -290 704 -290 z "},"Ḝ":{"ha":1133,"x_min":144,"x_max":1019,"o":"m 144 0 l 144 979 l 1019 979 l 1019 749 l 438 749 l 438 610 l 976 610 l 976 382 l 438 382 l 438 231 l 1019 231 l 1019 0 l 144 0 m 625 -290 q 514 -283 572 -290 q 417 -258 456 -275 l 460 -153 q 536 -176 497 -167 q 632 -185 575 -185 q 693 -178 675 -185 q 711 -156 711 -172 q 689 -131 711 -136 q 635 -125 667 -125 q 596 -126 622 -125 q 550 -131 569 -128 l 515 -97 l 533 28 l 661 28 l 644 -90 l 588 -57 q 644 -47 613 -50 q 713 -43 675 -43 q 791 -53 754 -43 q 851 -88 828 -62 q 874 -158 874 -114 q 844 -237 874 -208 q 760 -278 815 -267 q 625 -290 704 -290 m 601 1056 q 359 1125 446 1056 q 267 1329 272 1194 l 429 1343 q 476 1259 436 1288 q 601 1231 515 1231 q 728 1259 689 1231 q 774 1343 767 1288 l 935 1329 q 843 1125 929 1194 q 601 1056 757 1056 z "},"Ê":{"ha":1133,"x_min":144,"x_max":1019,"o":"m 144 0 l 144 979 l 1019 979 l 1019 749 l 438 749 l 438 610 l 976 610 l 976 382 l 438 382 l 438 231 l 1019 231 l 1019 0 l 144 0 m 269 1063 l 483 1318 l 719 1318 l 933 1063 l 724 1063 l 601 1188 l 479 1063 l 269 1063 z "},"Ế":{"ha":1133,"x_min":144,"x_max":1143,"o":"m 144 0 l 144 979 l 1019 979 l 1019 749 l 438 749 l 438 610 l 976 610 l 976 382 l 438 382 l 438 231 l 1019 231 l 1019 0 l 144 0 m 276 1064 l 481 1340 l 718 1340 l 922 1064 l 728 1064 l 599 1207 l 469 1064 l 276 1064 m 810 1260 l 919 1471 l 1143 1471 l 965 1260 l 810 1260 z "},"Ệ":{"ha":1133,"x_min":144,"x_max":1019,"o":"m 144 0 l 144 979 l 1019 979 l 1019 749 l 438 749 l 438 610 l 976 610 l 976 382 l 438 382 l 438 231 l 1019 231 l 1019 0 l 144 0 m 478 -326 l 478 -94 l 725 -94 l 725 -326 l 478 -326 m 269 1063 l 483 1318 l 719 1318 l 933 1063 l 724 1063 l 601 1188 l 479 1063 l 269 1063 z "},"Ề":{"ha":1133,"x_min":144,"x_max":1028,"o":"m 144 0 l 144 979 l 1019 979 l 1019 749 l 438 749 l 438 610 l 976 610 l 976 382 l 438 382 l 438 231 l 1019 231 l 1019 0 l 144 0 m 276 1064 l 481 1340 l 718 1340 l 922 1064 l 728 1064 l 599 1207 l 469 1064 l 276 1064 m 872 1260 l 696 1471 l 919 1471 l 1029 1260 l 872 1260 z "},"Ể":{"ha":1133,"x_min":144,"x_max":1074,"o":"m 144 0 l 144 979 l 1019 979 l 1019 749 l 438 749 l 438 610 l 976 610 l 976 382 l 438 382 l 438 231 l 1019 231 l 1019 0 l 144 0 m 276 1064 l 481 1285 l 718 1285 l 922 1064 l 728 1064 l 599 1182 l 469 1064 l 276 1064 m 814 1251 q 821 1285 811 1271 q 845 1312 831 1299 q 870 1335 860 1325 q 881 1354 881 1344 q 870 1369 881 1365 q 832 1374 860 1374 q 789 1369 808 1374 q 739 1354 769 1365 l 704 1450 q 790 1473 746 1465 q 889 1481 833 1481 q 1027 1460 981 1481 q 1074 1396 1074 1439 q 1058 1349 1074 1368 q 1021 1315 1042 1331 q 985 1286 1000 1300 q 971 1251 969 1272 l 814 1251 z "},"Ễ":{"ha":1133,"x_min":144,"x_max":1019,"o":"m 144 0 l 144 979 l 1019 979 l 1019 749 l 438 749 l 438 610 l 976 610 l 976 382 l 438 382 l 438 231 l 1019 231 l 1019 0 l 144 0 m 278 1064 l 482 1263 l 721 1263 l 925 1064 l 722 1064 l 601 1167 l 481 1064 l 278 1064 m 403 1304 l 267 1310 q 320 1438 275 1392 q 468 1483 365 1483 q 553 1472 514 1483 q 624 1451 593 1460 q 670 1438 643 1447 q 728 1429 697 1429 q 779 1444 763 1429 q 801 1482 796 1460 l 936 1476 q 879 1348 929 1393 q 726 1303 829 1303 q 644 1314 679 1303 q 582 1332 608 1325 q 528 1350 553 1343 q 476 1357 503 1357 q 430 1344 451 1357 q 403 1304 408 1331 z "},"Ȅ":{"ha":1133,"x_min":121,"x_max":1019,"o":"m 144 0 l 144 979 l 1019 979 l 1019 749 l 438 749 l 438 610 l 976 610 l 976 382 l 438 382 l 438 231 l 1019 231 l 1019 0 l 144 0 m 665 1063 l 432 1318 l 676 1318 l 824 1063 l 665 1063 m 379 1063 l 122 1318 l 365 1318 l 538 1063 l 379 1063 z "},"Ë":{"ha":1133,"x_min":144,"x_max":1019,"o":"m 144 0 l 144 979 l 1019 979 l 1019 749 l 438 749 l 438 610 l 976 610 l 976 382 l 438 382 l 438 231 l 1019 231 l 1019 0 l 144 0 m 675 1060 l 675 1290 l 932 1290 l 932 1060 l 675 1060 m 271 1060 l 271 1290 l 528 1290 l 528 1060 l 271 1060 z "},"Ė":{"ha":1133,"x_min":144,"x_max":1019,"o":"m 144 0 l 144 979 l 1019 979 l 1019 749 l 438 749 l 438 610 l 976 610 l 976 382 l 438 382 l 438 231 l 1019 231 l 1019 0 l 144 0 m 476 1060 l 476 1294 l 726 1294 l 726 1060 l 476 1060 z "},"Ẹ":{"ha":1133,"x_min":144,"x_max":1019,"o":"m 144 0 l 144 979 l 1019 979 l 1019 749 l 438 749 l 438 610 l 976 610 l 976 382 l 438 382 l 438 231 l 1019 231 l 1019 0 l 144 0 m 478 -326 l 478 -94 l 725 -94 l 725 -326 l 478 -326 z "},"È":{"ha":1133,"x_min":144,"x_max":1019,"o":"m 144 0 l 144 979 l 1019 979 l 1019 749 l 438 749 l 438 610 l 976 610 l 976 382 l 438 382 l 438 231 l 1019 231 l 1019 0 l 144 0 m 504 1063 l 211 1318 l 494 1318 l 699 1063 l 504 1063 z "},"Ẻ":{"ha":1133,"x_min":144,"x_max":1019,"o":"m 144 0 l 144 979 l 1019 979 l 1019 749 l 438 749 l 438 610 l 976 610 l 976 382 l 438 382 l 438 231 l 1019 231 l 1019 0 l 144 0 m 519 1063 l 519 1082 q 533 1113 519 1100 q 563 1136 546 1126 q 592 1156 579 1146 q 606 1175 606 1165 q 591 1193 606 1188 q 546 1199 576 1199 q 494 1193 519 1199 q 446 1176 469 1188 l 403 1282 q 494 1311 440 1301 q 608 1321 547 1321 q 761 1295 710 1321 q 813 1224 813 1269 q 793 1174 813 1193 q 748 1140 774 1154 q 702 1111 722 1125 q 682 1076 682 1097 l 682 1063 l 519 1063 z "},"Ȇ":{"ha":1133,"x_min":144,"x_max":1019,"o":"m 144 0 l 144 979 l 1019 979 l 1019 749 l 438 749 l 438 610 l 976 610 l 976 382 l 438 382 l 438 231 l 1019 231 l 1019 0 l 144 0 m 429 1056 l 267 1069 q 359 1274 272 1204 q 601 1343 446 1343 q 843 1274 757 1343 q 935 1069 929 1204 l 774 1056 q 729 1139 767 1110 q 603 1168 692 1168 q 477 1140 518 1168 q 429 1056 436 1111 z "},"Ē":{"ha":1133,"x_min":144,"x_max":1019,"o":"m 144 0 l 144 979 l 1019 979 l 1019 749 l 438 749 l 438 610 l 976 610 l 976 382 l 438 382 l 438 231 l 1019 231 l 1019 0 l 144 0 m 288 1094 l 288 1279 l 915 1279 l 915 1094 l 288 1094 z "},"Ḗ":{"ha":1133,"x_min":144,"x_max":1019,"o":"m 144 0 l 144 979 l 1019 979 l 1019 749 l 438 749 l 438 610 l 976 610 l 976 382 l 438 382 l 438 231 l 1019 231 l 1019 0 l 144 0 m 289 1093 l 289 1254 l 914 1254 l 914 1093 l 289 1093 m 493 1301 l 619 1486 l 900 1486 l 682 1301 l 493 1301 z "},"Ḕ":{"ha":1133,"x_min":144,"x_max":1019,"o":"m 144 0 l 144 979 l 1019 979 l 1019 749 l 438 749 l 438 610 l 976 610 l 976 382 l 438 382 l 438 231 l 1019 231 l 1019 0 l 144 0 m 521 1301 l 303 1486 l 583 1486 l 710 1301 l 521 1301 m 289 1093 l 289 1254 l 914 1254 l 914 1093 l 289 1093 z "},"Ę":{"ha":1133,"x_min":144,"x_max":1063,"o":"m 144 0 l 144 979 l 1019 979 l 1019 749 l 438 749 l 438 610 l 976 610 l 976 382 l 438 382 l 438 231 l 1019 231 l 1019 0 l 144 0 m 903 -290 q 732 -255 790 -290 q 674 -153 674 -219 q 720 -34 674 -90 q 865 68 767 22 l 950 0 q 898 -33 919 -17 q 865 -65 876 -49 q 854 -99 854 -81 q 876 -135 854 -124 q 938 -146 897 -146 q 983 -142 961 -146 q 1031 -132 1006 -139 l 1063 -265 q 982 -285 1018 -279 q 903 -290 946 -290 z "},"Ẽ":{"ha":1133,"x_min":144,"x_max":1019,"o":"m 144 0 l 144 979 l 1019 979 l 1019 749 l 438 749 l 438 610 l 976 610 l 976 382 l 438 382 l 438 231 l 1019 231 l 1019 0 l 144 0 m 357 1051 l 196 1060 q 263 1237 203 1169 q 428 1304 324 1304 q 528 1288 479 1304 q 614 1260 578 1271 q 682 1238 644 1250 q 756 1225 719 1225 q 819 1247 799 1225 q 844 1311 839 1269 l 1007 1304 q 941 1126 1001 1192 q 775 1060 881 1060 q 674 1076 724 1060 q 590 1103 625 1092 q 520 1125 560 1113 q 447 1138 481 1138 q 385 1116 404 1138 q 357 1051 365 1094 z "},"Ə":{"ha":1456,"x_min":106,"x_max":1350,"o":"m 728 -15 q 413 45 553 -15 q 189 219 272 106 q 106 496 106 333 l 106 596 l 1161 596 l 1161 389 l 317 389 l 406 489 q 493 294 406 367 q 732 221 581 221 q 966 292 879 221 q 1053 486 1053 363 q 956 690 1053 625 q 664 754 858 754 q 516 744 583 754 q 391 716 449 735 q 282 671 333 697 l 186 897 q 326 950 244 928 q 499 983 408 972 q 678 994 590 994 q 1051 934 901 994 q 1275 763 1200 874 q 1350 496 1350 651 q 1304 285 1350 379 q 1176 124 1258 192 q 979 21 1093 57 q 728 -15 865 -15 z "},"F":{"ha":1074,"x_min":144,"x_max":1011,"o":"m 144 0 l 144 979 l 1011 979 l 1011 749 l 447 749 l 447 592 l 976 592 l 976 361 l 447 361 l 447 0 l 144 0 z "},"G":{"ha":1356,"x_min":106,"x_max":1224,"o":"m 746 -15 q 410 44 554 -15 q 185 216 265 103 q 106 490 106 329 q 183 763 106 650 q 403 935 261 875 q 735 994 544 994 q 913 983 828 994 q 1071 949 999 972 q 1194 889 1143 926 l 1097 667 q 932 730 1017 713 q 750 747 847 747 q 504 685 597 747 q 411 492 411 624 q 499 290 411 358 q 758 222 586 222 q 898 229 839 222 q 1017 253 957 236 l 974 197 l 974 367 l 724 367 l 724 568 l 1224 568 l 1224 67 q 1084 22 1161 40 q 922 -6 1007 4 q 746 -15 836 -15 z "},"Ğ":{"ha":1356,"x_min":106,"x_max":1224,"o":"m 746 -15 q 410 44 554 -15 q 185 216 265 103 q 106 490 106 329 q 183 763 106 650 q 403 935 261 875 q 735 994 544 994 q 913 983 828 994 q 1071 949 999 972 q 1194 889 1143 926 l 1097 667 q 932 730 1017 713 q 750 747 847 747 q 504 685 597 747 q 411 492 411 624 q 499 290 411 358 q 758 222 586 222 q 898 229 839 222 q 1017 253 957 236 l 974 197 l 974 367 l 724 367 l 724 568 l 1224 568 l 1224 67 q 1084 22 1161 40 q 922 -6 1007 4 q 746 -15 836 -15 m 740 1056 q 498 1125 585 1056 q 406 1329 411 1194 l 568 1343 q 615 1259 575 1288 q 740 1231 654 1231 q 867 1259 828 1231 q 913 1343 906 1288 l 1074 1329 q 982 1125 1068 1194 q 740 1056 896 1056 z "},"Ǧ":{"ha":1356,"x_min":106,"x_max":1224,"o":"m 746 -15 q 410 44 554 -15 q 185 216 265 103 q 106 490 106 329 q 183 763 106 650 q 403 935 261 875 q 735 994 544 994 q 913 983 828 994 q 1071 949 999 972 q 1194 889 1143 926 l 1097 667 q 932 730 1017 713 q 750 747 847 747 q 504 685 597 747 q 411 492 411 624 q 499 290 411 358 q 758 222 586 222 q 898 229 839 222 q 1017 253 957 236 l 974 197 l 974 367 l 724 367 l 724 568 l 1224 568 l 1224 67 q 1084 22 1161 40 q 922 -6 1007 4 q 746 -15 836 -15 m 622 1063 l 408 1319 l 618 1319 l 740 1193 l 863 1319 l 1072 1319 l 858 1063 l 622 1063 z "},"Ĝ":{"ha":1356,"x_min":106,"x_max":1224,"o":"m 746 -15 q 410 44 554 -15 q 185 216 265 103 q 106 490 106 329 q 183 763 106 650 q 403 935 261 875 q 735 994 544 994 q 913 983 828 994 q 1071 949 999 972 q 1194 889 1143 926 l 1097 667 q 932 730 1017 713 q 750 747 847 747 q 504 685 597 747 q 411 492 411 624 q 499 290 411 358 q 758 222 586 222 q 898 229 839 222 q 1017 253 957 236 l 974 197 l 974 367 l 724 367 l 724 568 l 1224 568 l 1224 67 q 1084 22 1161 40 q 922 -6 1007 4 q 746 -15 836 -15 m 408 1063 l 622 1318 l 858 1318 l 1072 1063 l 863 1063 l 740 1188 l 618 1063 l 408 1063 z "},"Ģ":{"ha":1356,"x_min":106,"x_max":1224,"o":"m 746 -15 q 410 44 554 -15 q 185 216 265 103 q 106 490 106 329 q 183 763 106 650 q 403 935 261 875 q 735 994 544 994 q 913 983 828 994 q 1071 949 999 972 q 1194 889 1143 926 l 1097 667 q 932 730 1017 713 q 750 747 847 747 q 504 685 597 747 q 411 492 411 624 q 499 290 411 358 q 758 222 586 222 q 898 229 839 222 q 1017 253 957 236 l 974 197 l 974 367 l 724 367 l 724 568 l 1224 568 l 1224 67 q 1084 22 1161 40 q 922 -6 1007 4 q 746 -15 836 -15 m 728 -472 l 654 -414 q 722 -324 700 -367 q 746 -247 744 -281 l 790 -287 l 629 -287 l 629 -85 l 850 -85 l 850 -237 q 820 -360 850 -303 q 728 -472 790 -418 z "},"Ġ":{"ha":1356,"x_min":106,"x_max":1224,"o":"m 746 -15 q 410 44 554 -15 q 185 216 265 103 q 106 490 106 329 q 183 763 106 650 q 403 935 261 875 q 735 994 544 994 q 913 983 828 994 q 1071 949 999 972 q 1194 889 1143 926 l 1097 667 q 932 730 1017 713 q 750 747 847 747 q 504 685 597 747 q 411 492 411 624 q 499 290 411 358 q 758 222 586 222 q 898 229 839 222 q 1017 253 957 236 l 974 197 l 974 367 l 724 367 l 724 568 l 1224 568 l 1224 67 q 1084 22 1161 40 q 922 -6 1007 4 q 746 -15 836 -15 m 615 1060 l 615 1294 l 865 1294 l 865 1060 l 615 1060 z "},"Ḡ":{"ha":1356,"x_min":106,"x_max":1224,"o":"m 746 -15 q 410 44 554 -15 q 185 216 265 103 q 106 490 106 329 q 183 763 106 650 q 403 935 261 875 q 735 994 544 994 q 913 983 828 994 q 1071 949 999 972 q 1194 889 1143 926 l 1097 667 q 932 730 1017 713 q 750 747 847 747 q 504 685 597 747 q 411 492 411 624 q 499 290 411 358 q 758 222 586 222 q 898 229 839 222 q 1017 253 957 236 l 974 197 l 974 367 l 724 367 l 724 568 l 1224 568 l 1224 67 q 1084 22 1161 40 q 922 -6 1007 4 q 746 -15 836 -15 m 426 1094 l 426 1279 l 1054 1279 l 1054 1094 l 426 1094 z "},"H":{"ha":1425,"x_min":144,"x_max":1281,"o":"m 144 0 l 144 979 l 447 979 l 447 615 l 976 615 l 976 979 l 1281 979 l 1281 0 l 976 0 l 976 374 l 447 374 l 447 0 l 144 0 z "},"Ħ":{"ha":1504,"x_min":40,"x_max":1464,"o":"m 185 0 l 185 682 l 40 682 l 40 876 l 185 876 l 185 979 l 488 979 l 488 868 l 1017 868 l 1017 979 l 1319 979 l 1319 876 l 1464 876 l 1464 682 l 1319 682 l 1319 0 l 1017 0 l 1017 313 l 488 313 l 488 0 l 185 0 m 488 554 l 1017 554 l 1017 690 l 488 690 l 488 554 z "},"Ḫ":{"ha":1425,"x_min":144,"x_max":1281,"o":"m 144 0 l 144 979 l 447 979 l 447 615 l 976 615 l 976 979 l 1281 979 l 1281 0 l 976 0 l 976 374 l 447 374 l 447 0 l 144 0 m 713 -299 q 475 -235 558 -299 q 385 -60 392 -171 l 549 -46 q 599 -116 558 -94 q 713 -137 639 -137 q 826 -116 785 -137 q 876 -46 867 -94 l 1039 -60 q 950 -235 1033 -171 q 713 -299 867 -299 z "},"Ĥ":{"ha":1425,"x_min":144,"x_max":1281,"o":"m 144 0 l 144 979 l 447 979 l 447 615 l 976 615 l 976 979 l 1281 979 l 1281 0 l 976 0 l 976 374 l 447 374 l 447 0 l 144 0 m 381 1063 l 594 1318 l 831 1318 l 1044 1063 l 835 1063 l 713 1188 l 590 1063 l 381 1063 z "},"Ḥ":{"ha":1425,"x_min":144,"x_max":1281,"o":"m 144 0 l 144 979 l 447 979 l 447 615 l 976 615 l 976 979 l 1281 979 l 1281 0 l 976 0 l 976 374 l 447 374 l 447 0 l 144 0 m 589 -326 l 589 -94 l 836 -94 l 836 -326 l 589 -326 z "},"I":{"ha":592,"x_min":144,"x_max":447,"o":"m 144 0 l 144 979 l 447 979 l 447 0 l 144 0 z "},"Ĳ":{"ha":1331,"x_min":144,"x_max":1186,"o":"m 144 0 l 144 979 l 447 979 l 447 0 l 144 0 m 614 -15 l 596 225 l 749 232 q 823 249 793 235 q 868 288 853 263 q 883 344 883 313 l 883 979 l 1186 979 l 1186 325 q 1141 152 1186 225 q 1010 38 1096 79 q 800 -7 925 -4 l 614 -15 z "},"Í":{"ha":592,"x_min":144,"x_max":697,"o":"m 144 0 l 144 979 l 447 979 l 447 0 l 144 0 m 188 1063 l 392 1318 l 697 1318 l 403 1063 l 188 1063 z "},"Ĭ":{"ha":592,"x_min":-39,"x_max":631,"o":"m 144 0 l 144 979 l 447 979 l 447 0 l 144 0 m 296 1056 q 53 1125 140 1056 q -39 1329 -33 1194 l 124 1343 q 170 1259 131 1288 q 296 1231 210 1231 q 422 1259 383 1231 q 468 1343 461 1288 l 629 1329 q 538 1125 624 1194 q 296 1056 451 1056 z "},"Î":{"ha":592,"x_min":-36,"x_max":629,"o":"m 144 0 l 144 979 l 447 979 l 447 0 l 144 0 m -36 1063 l 178 1318 l 414 1318 l 628 1063 l 418 1063 l 296 1188 l 174 1063 l -36 1063 z "},"Ȉ":{"ha":592,"x_min":-183,"x_max":518,"o":"m 144 0 l 144 979 l 447 979 l 447 0 l 144 0 m 360 1063 l 126 1318 l 371 1318 l 518 1063 l 360 1063 m 74 1063 l -183 1318 l 60 1318 l 232 1063 l 74 1063 z "},"Ï":{"ha":592,"x_min":-35,"x_max":626,"o":"m 144 0 l 144 979 l 447 979 l 447 0 l 144 0 m 369 1060 l 369 1290 l 626 1290 l 626 1060 l 369 1060 m -35 1060 l -35 1290 l 222 1290 l 222 1060 l -35 1060 z "},"Ḯ":{"ha":592,"x_min":-24,"x_max":615,"o":"m 144 0 l 144 979 l 447 979 l 447 0 l 144 0 m 192 1276 l 318 1463 l 597 1463 l 381 1276 l 192 1276 m -24 1060 l -24 1231 l 235 1231 l 235 1060 l -24 1060 m 357 1060 l 357 1231 l 615 1231 l 615 1060 l 357 1060 z "},"İ":{"ha":592,"x_min":144,"x_max":447,"o":"m 144 0 l 144 979 l 447 979 l 447 0 l 144 0 m 171 1060 l 171 1294 l 421 1294 l 421 1060 l 171 1060 z "},"Ị":{"ha":592,"x_min":144,"x_max":447,"o":"m 144 0 l 144 979 l 447 979 l 447 0 l 144 0 m 172 -326 l 172 -94 l 419 -94 l 419 -326 l 172 -326 z "},"Ì":{"ha":592,"x_min":-94,"x_max":447,"o":"m 144 0 l 144 979 l 447 979 l 447 0 l 144 0 m 199 1063 l -94 1318 l 189 1318 l 393 1063 l 199 1063 z "},"Ỉ":{"ha":592,"x_min":97,"x_max":508,"o":"m 144 0 l 144 979 l 447 979 l 447 0 l 144 0 m 214 1063 l 214 1082 q 227 1113 214 1100 q 257 1136 240 1126 q 287 1156 274 1146 q 300 1175 300 1165 q 285 1193 300 1188 q 240 1199 271 1199 q 189 1193 214 1199 q 140 1176 164 1188 l 97 1282 q 188 1311 135 1301 q 303 1321 242 1321 q 456 1295 404 1321 q 507 1224 507 1269 q 488 1174 507 1193 q 442 1140 468 1154 q 397 1111 417 1125 q 376 1076 376 1097 l 376 1063 l 214 1063 z "},"Ȋ":{"ha":592,"x_min":-39,"x_max":631,"o":"m 144 0 l 144 979 l 447 979 l 447 0 l 144 0 m 124 1056 l -39 1069 q 53 1274 -33 1204 q 296 1343 140 1343 q 538 1274 451 1343 q 629 1069 624 1204 l 468 1056 q 424 1139 461 1110 q 297 1168 386 1168 q 172 1140 213 1168 q 124 1056 131 1111 z "},"Ī":{"ha":592,"x_min":-18,"x_max":610,"o":"m 144 0 l 144 979 l 447 979 l 447 0 l 144 0 m -18 1094 l -18 1279 l 610 1279 l 610 1094 l -18 1094 z "},"Į":{"ha":592,"x_min":114,"x_max":503,"o":"m 144 0 l 144 979 l 447 979 l 447 0 l 144 0 m 343 -290 q 172 -255 231 -290 q 114 -153 114 -219 q 160 -34 114 -90 q 306 68 207 22 l 390 0 q 338 -33 360 -17 q 306 -65 317 -49 q 294 -99 294 -81 q 316 -135 294 -124 q 378 -146 338 -146 q 424 -142 401 -146 q 471 -132 446 -139 l 503 -265 q 422 -285 458 -279 q 343 -290 386 -290 z "},"Ĩ":{"ha":592,"x_min":-110,"x_max":701,"o":"m 144 0 l 144 979 l 447 979 l 447 0 l 144 0 m 51 1051 l -110 1060 q -42 1237 -103 1169 q 122 1304 18 1304 q 223 1288 174 1304 q 308 1260 272 1271 q 376 1238 339 1250 q 450 1225 414 1225 q 513 1247 493 1225 q 539 1311 533 1269 l 701 1304 q 635 1126 696 1192 q 469 1060 575 1060 q 369 1076 418 1060 q 285 1103 319 1092 q 215 1125 254 1113 q 142 1138 175 1138 q 79 1116 99 1138 q 51 1051 60 1094 z "},"J":{"ha":739,"x_min":4,"x_max":594,"o":"m 22 -15 l 4 225 l 157 232 q 231 249 201 235 q 276 288 261 263 q 292 344 292 313 l 292 979 l 594 979 l 594 325 q 549 152 594 225 q 419 38 504 79 q 208 -7 333 -4 l 22 -15 z "},"Ĵ":{"ha":739,"x_min":4,"x_max":776,"o":"m 22 -15 l 4 225 l 157 232 q 231 249 201 235 q 276 288 261 263 q 292 344 292 313 l 292 979 l 594 979 l 594 325 q 549 152 594 225 q 419 38 504 79 q 208 -7 333 -4 l 22 -15 m 111 1063 l 325 1318 l 561 1318 l 775 1063 l 565 1063 l 443 1188 l 321 1063 l 111 1063 z "},"K":{"ha":1292,"x_min":144,"x_max":1322,"o":"m 144 0 l 144 979 l 447 979 l 447 578 l 457 578 l 914 979 l 1283 979 l 661 449 l 686 551 l 1322 0 l 915 0 l 457 433 l 447 433 l 447 0 l 144 0 z "},"Ķ":{"ha":1292,"x_min":144,"x_max":1322,"o":"m 144 0 l 144 979 l 447 979 l 447 578 l 457 578 l 914 979 l 1283 979 l 661 449 l 686 551 l 1322 0 l 915 0 l 457 433 l 447 433 l 447 0 l 144 0 m 628 -472 l 554 -414 q 622 -324 600 -367 q 646 -247 644 -281 l 690 -287 l 529 -287 l 529 -85 l 750 -85 l 750 -237 q 720 -360 750 -303 q 628 -472 690 -418 z "},"L":{"ha":1065,"x_min":144,"x_max":1003,"o":"m 144 0 l 144 979 l 447 979 l 447 243 l 1003 243 l 1003 0 l 144 0 z "},"Ǉ":{"ha":1874,"x_min":144,"x_max":1729,"o":"m 144 0 l 144 979 l 447 979 l 447 243 l 1003 243 l 1003 0 l 144 0 m 1157 -15 l 1139 225 l 1292 232 q 1366 249 1336 235 q 1411 288 1396 263 q 1426 344 1426 313 l 1426 979 l 1729 979 l 1729 325 q 1684 152 1729 225 q 1553 38 1639 79 q 1343 -7 1468 -4 l 1157 -15 z "},"Ĺ":{"ha":1065,"x_min":144,"x_max":1003,"o":"m 144 0 l 144 979 l 447 979 l 447 243 l 1003 243 l 1003 0 l 144 0 m 183 1063 l 388 1318 l 693 1318 l 399 1063 l 183 1063 z "},"Ľ":{"ha":1065,"x_min":144,"x_max":1003,"o":"m 144 0 l 144 979 l 447 979 l 447 243 l 1003 243 l 1003 0 l 144 0 m 601 631 l 601 979 l 829 979 l 786 631 l 601 631 z "},"Ļ":{"ha":1065,"x_min":144,"x_max":1003,"o":"m 144 0 l 144 979 l 447 979 l 447 243 l 1003 243 l 1003 0 l 144 0 m 558 -472 l 485 -414 q 553 -324 531 -367 q 576 -247 575 -281 l 621 -287 l 460 -287 l 460 -85 l 681 -85 l 681 -237 q 651 -360 681 -303 q 558 -472 621 -418 z "},"Ŀ":{"ha":1065,"x_min":144,"x_max":1003,"o":"m 144 0 l 144 979 l 447 979 l 447 243 l 1003 243 l 1003 0 l 144 0 m 626 438 l 626 686 l 938 686 l 938 438 l 626 438 z "},"Ḷ":{"ha":1065,"x_min":144,"x_max":1003,"o":"m 144 0 l 144 979 l 447 979 l 447 243 l 1003 243 l 1003 0 l 144 0 m 446 -326 l 446 -94 l 693 -94 l 693 -326 l 446 -326 z "},"ǈ":{"ha":1572,"x_min":144,"x_max":1472,"o":"m 144 0 l 144 979 l 447 979 l 447 243 l 1003 243 l 1003 0 l 144 0 m 1171 810 l 1171 1057 l 1472 1057 l 1472 810 l 1171 810 m 997 -268 l 974 -61 l 1068 -51 q 1148 -22 1119 -44 q 1176 56 1176 1 l 1176 703 l 1468 703 l 1468 68 q 1453 -57 1468 0 q 1401 -156 1439 -114 q 1290 -224 1363 -197 q 1101 -260 1218 -250 l 997 -268 z "},"Ḻ":{"ha":1065,"x_min":144,"x_max":1003,"o":"m 144 0 l 144 979 l 447 979 l 447 243 l 1003 243 l 1003 0 l 144 0 m 256 -283 l 256 -100 l 883 -100 l 883 -283 l 256 -283 z "},"Ł":{"ha":1065,"x_min":-57,"x_max":1003,"o":"m 144 0 l 144 979 l 447 979 l 447 243 l 1003 243 l 1003 0 l 144 0 m 36 256 l -57 442 l 699 818 l 793 633 l 36 256 z "},"M":{"ha":1651,"x_min":147,"x_max":1504,"o":"m 147 0 l 147 979 l 451 979 l 832 435 l 824 435 l 1197 979 l 1504 979 l 1504 0 l 1225 0 l 1225 606 l 1226 606 l 906 163 l 743 163 l 424 606 l 426 606 l 426 0 l 147 0 z "},"Ṃ":{"ha":1651,"x_min":147,"x_max":1504,"o":"m 147 0 l 147 979 l 451 979 l 832 435 l 824 435 l 1197 979 l 1504 979 l 1504 0 l 1225 0 l 1225 606 l 1226 606 l 906 163 l 743 163 l 424 606 l 426 606 l 426 0 l 147 0 m 671 -326 l 671 -94 l 918 -94 l 918 -326 l 671 -326 z "},"N":{"ha":1414,"x_min":144,"x_max":1269,"o":"m 144 0 l 144 979 l 372 979 l 992 382 l 982 382 l 982 979 l 1269 979 l 1269 0 l 1028 0 l 424 582 l 433 582 l 433 0 l 144 0 z "},"Ǌ":{"ha":2153,"x_min":144,"x_max":2008,"o":"m 144 0 l 144 979 l 372 979 l 992 382 l 982 382 l 982 979 l 1269 979 l 1269 0 l 1028 0 l 424 582 l 433 582 l 433 0 l 144 0 m 1436 -15 l 1418 225 l 1571 232 q 1645 249 1615 235 q 1690 288 1675 263 q 1706 344 1706 313 l 1706 979 l 2008 979 l 2008 325 q 1963 152 2008 225 q 1833 38 1918 79 q 1622 -7 1747 -4 l 1436 -15 z "},"Ń":{"ha":1414,"x_min":144,"x_max":1269,"o":"m 144 0 l 144 979 l 372 979 l 992 382 l 982 382 l 982 979 l 1269 979 l 1269 0 l 1028 0 l 424 582 l 433 582 l 433 0 l 144 0 m 608 1063 l 813 1318 l 1118 1318 l 824 1063 l 608 1063 z "},"Ň":{"ha":1414,"x_min":144,"x_max":1269,"o":"m 144 0 l 144 979 l 372 979 l 992 382 l 982 382 l 982 979 l 1269 979 l 1269 0 l 1028 0 l 424 582 l 433 582 l 433 0 l 144 0 m 599 1063 l 385 1319 l 594 1319 l 717 1193 l 839 1319 l 1049 1319 l 835 1063 l 599 1063 z "},"Ņ":{"ha":1414,"x_min":144,"x_max":1269,"o":"m 144 0 l 144 979 l 372 979 l 992 382 l 982 382 l 982 979 l 1269 979 l 1269 0 l 1028 0 l 424 582 l 433 582 l 433 0 l 144 0 m 699 -472 l 625 -414 q 693 -324 671 -367 q 717 -247 715 -281 l 761 -287 l 600 -287 l 600 -85 l 821 -85 l 821 -237 q 791 -360 821 -303 q 699 -472 761 -418 z "},"Ṅ":{"ha":1414,"x_min":144,"x_max":1269,"o":"m 144 0 l 144 979 l 372 979 l 992 382 l 982 382 l 982 979 l 1269 979 l 1269 0 l 1028 0 l 424 582 l 433 582 l 433 0 l 144 0 m 592 1060 l 592 1294 l 842 1294 l 842 1060 l 592 1060 z "},"Ṇ":{"ha":1414,"x_min":144,"x_max":1269,"o":"m 144 0 l 144 979 l 372 979 l 992 382 l 982 382 l 982 979 l 1269 979 l 1269 0 l 1028 0 l 424 582 l 433 582 l 433 0 l 144 0 m 586 -326 l 586 -94 l 833 -94 l 833 -326 l 586 -326 z "},"ǋ":{"ha":1921,"x_min":144,"x_max":1821,"o":"m 144 0 l 144 979 l 372 979 l 992 382 l 982 382 l 982 979 l 1269 979 l 1269 0 l 1028 0 l 424 582 l 433 582 l 433 0 l 144 0 m 1519 810 l 1519 1057 l 1821 1057 l 1821 810 l 1519 810 m 1346 -268 l 1322 -61 l 1417 -51 q 1497 -22 1468 -44 q 1525 56 1525 1 l 1525 703 l 1817 703 l 1817 68 q 1802 -57 1817 0 q 1749 -156 1788 -114 q 1639 -224 1711 -197 q 1450 -260 1567 -250 l 1346 -268 z "},"Ṉ":{"ha":1414,"x_min":144,"x_max":1269,"o":"m 144 0 l 144 979 l 372 979 l 992 382 l 982 382 l 982 979 l 1269 979 l 1269 0 l 1028 0 l 424 582 l 433 582 l 433 0 l 144 0 m 396 -283 l 396 -100 l 1024 -100 l 1024 -283 l 396 -283 z "},"Ñ":{"ha":1414,"x_min":144,"x_max":1269,"o":"m 144 0 l 144 979 l 372 979 l 992 382 l 982 382 l 982 979 l 1269 979 l 1269 0 l 1028 0 l 424 582 l 433 582 l 433 0 l 144 0 m 472 1051 l 311 1060 q 378 1237 318 1169 q 543 1304 439 1304 q 644 1288 594 1304 q 729 1260 693 1271 q 797 1238 760 1250 q 871 1225 835 1225 q 934 1247 914 1225 q 960 1311 954 1269 l 1122 1304 q 1056 1126 1117 1192 q 890 1060 996 1060 q 790 1076 839 1060 q 706 1103 740 1092 q 635 1125 675 1113 q 563 1138 596 1138 q 500 1116 519 1138 q 472 1051 481 1094 z "},"Ŋ":{"ha":1414,"x_min":144,"x_max":1269,"o":"m 817 -262 l 796 -67 l 885 -58 q 959 -38 935 -53 q 983 15 983 -24 l 983 106 l 1024 8 l 422 582 l 433 582 l 433 0 l 144 0 l 144 979 l 371 979 l 992 382 l 982 382 l 982 979 l 1269 979 l 1269 64 q 1264 -22 1269 22 q 1240 -105 1258 -65 q 1183 -176 1222 -144 q 1076 -229 1143 -207 q 903 -257 1008 -251 l 817 -262 z "},"O":{"ha":1458,"x_min":106,"x_max":1353,"o":"m 729 -15 q 476 20 590 -15 q 279 122 363 56 q 151 281 196 188 q 106 490 106 375 q 151 696 106 603 q 281 856 197 789 q 478 959 364 924 q 731 994 593 994 q 981 958 868 994 q 1178 856 1094 922 q 1307 697 1261 790 q 1353 492 1353 604 q 1307 283 1353 376 q 1178 124 1261 190 q 982 21 1096 57 q 729 -15 868 -15 m 729 231 q 897 262 826 231 q 1006 351 967 293 q 1044 490 1044 410 q 1006 630 1044 572 q 898 718 968 688 q 729 749 828 749 q 560 717 631 749 q 452 628 490 686 q 414 489 414 569 q 452 351 414 408 q 561 262 490 293 q 729 231 632 231 z "},"Ó":{"ha":1458,"x_min":106,"x_max":1353,"o":"m 729 -15 q 476 20 590 -15 q 279 122 363 56 q 151 281 196 188 q 106 490 106 375 q 151 696 106 603 q 281 856 197 789 q 478 959 364 924 q 731 994 593 994 q 981 958 868 994 q 1178 856 1094 922 q 1307 697 1261 790 q 1353 492 1353 604 q 1307 283 1353 376 q 1178 124 1261 190 q 982 21 1096 57 q 729 -15 868 -15 m 729 231 q 897 262 826 231 q 1006 351 967 293 q 1044 490 1044 410 q 1006 630 1044 572 q 898 718 968 688 q 729 749 828 749 q 560 717 631 749 q 452 628 490 686 q 414 489 414 569 q 452 351 414 408 q 561 262 490 293 q 729 231 632 231 m 622 1063 l 826 1318 l 1132 1318 l 838 1063 l 622 1063 z "},"Ŏ":{"ha":1458,"x_min":106,"x_max":1353,"o":"m 729 -15 q 476 20 590 -15 q 279 122 363 56 q 151 281 196 188 q 106 490 106 375 q 151 696 106 603 q 281 856 197 789 q 478 959 364 924 q 731 994 593 994 q 981 958 868 994 q 1178 856 1094 922 q 1307 697 1261 790 q 1353 492 1353 604 q 1307 283 1353 376 q 1178 124 1261 190 q 982 21 1096 57 q 729 -15 868 -15 m 729 231 q 897 262 826 231 q 1006 351 967 293 q 1044 490 1044 410 q 1006 630 1044 572 q 898 718 968 688 q 729 749 828 749 q 560 717 631 749 q 452 628 490 686 q 414 489 414 569 q 452 351 414 408 q 561 262 490 293 q 729 231 632 231 m 731 1056 q 488 1125 575 1056 q 396 1329 401 1194 l 558 1343 q 605 1259 565 1288 q 731 1231 644 1231 q 857 1259 818 1231 q 903 1343 896 1288 l 1064 1329 q 972 1125 1058 1194 q 731 1056 886 1056 z "},"Ô":{"ha":1458,"x_min":106,"x_max":1353,"o":"m 729 -15 q 476 20 590 -15 q 279 122 363 56 q 151 281 196 188 q 106 490 106 375 q 151 696 106 603 q 281 856 197 789 q 478 959 364 924 q 731 994 593 994 q 981 958 868 994 q 1178 856 1094 922 q 1307 697 1261 790 q 1353 492 1353 604 q 1307 283 1353 376 q 1178 124 1261 190 q 982 21 1096 57 q 729 -15 868 -15 m 729 231 q 897 262 826 231 q 1006 351 967 293 q 1044 490 1044 410 q 1006 630 1044 572 q 898 718 968 688 q 729 749 828 749 q 560 717 631 749 q 452 628 490 686 q 414 489 414 569 q 452 351 414 408 q 561 262 490 293 q 729 231 632 231 m 399 1063 l 613 1318 l 849 1318 l 1063 1063 l 853 1063 l 731 1188 l 608 1063 l 399 1063 z "},"Ố":{"ha":1458,"x_min":106,"x_max":1353,"o":"m 729 -15 q 476 20 590 -15 q 279 122 363 56 q 151 281 196 188 q 106 490 106 375 q 151 696 106 603 q 281 856 197 789 q 478 959 364 924 q 731 994 593 994 q 981 958 868 994 q 1178 856 1094 922 q 1307 697 1261 790 q 1353 492 1353 604 q 1307 283 1353 376 q 1178 124 1261 190 q 982 21 1096 57 q 729 -15 868 -15 m 729 231 q 897 262 826 231 q 1006 351 967 293 q 1044 490 1044 410 q 1006 630 1044 572 q 898 718 968 688 q 729 749 828 749 q 560 717 631 749 q 452 628 490 686 q 414 489 414 569 q 452 351 414 408 q 561 262 490 293 q 729 231 632 231 m 406 1064 l 610 1340 l 847 1340 l 1051 1064 l 857 1064 l 728 1207 l 599 1064 l 406 1064 m 939 1260 l 1049 1471 l 1272 1471 l 1094 1260 l 939 1260 z "},"Ộ":{"ha":1458,"x_min":106,"x_max":1353,"o":"m 729 -15 q 476 20 590 -15 q 279 122 363 56 q 151 281 196 188 q 106 490 106 375 q 151 696 106 603 q 281 856 197 789 q 478 959 364 924 q 731 994 593 994 q 981 958 868 994 q 1178 856 1094 922 q 1307 697 1261 790 q 1353 492 1353 604 q 1307 283 1353 376 q 1178 124 1261 190 q 982 21 1096 57 q 729 -15 868 -15 m 729 231 q 897 262 826 231 q 1006 351 967 293 q 1044 490 1044 410 q 1006 630 1044 572 q 898 718 968 688 q 729 749 828 749 q 560 717 631 749 q 452 628 490 686 q 414 489 414 569 q 452 351 414 408 q 561 262 490 293 q 729 231 632 231 m 607 -326 l 607 -94 l 854 -94 l 854 -326 l 607 -326 m 399 1063 l 613 1318 l 849 1318 l 1063 1063 l 853 1063 l 731 1188 l 608 1063 l 399 1063 z "},"Ồ":{"ha":1458,"x_min":106,"x_max":1353,"o":"m 729 -15 q 476 20 590 -15 q 279 122 363 56 q 151 281 196 188 q 106 490 106 375 q 151 696 106 603 q 281 856 197 789 q 478 959 364 924 q 731 994 593 994 q 981 958 868 994 q 1178 856 1094 922 q 1307 697 1261 790 q 1353 492 1353 604 q 1307 283 1353 376 q 1178 124 1261 190 q 982 21 1096 57 q 729 -15 868 -15 m 729 231 q 897 262 826 231 q 1006 351 967 293 q 1044 490 1044 410 q 1006 630 1044 572 q 898 718 968 688 q 729 749 828 749 q 560 717 631 749 q 452 628 490 686 q 414 489 414 569 q 452 351 414 408 q 561 262 490 293 q 729 231 632 231 m 406 1064 l 610 1340 l 847 1340 l 1051 1064 l 857 1064 l 728 1207 l 599 1064 l 406 1064 m 1001 1260 l 825 1471 l 1049 1471 l 1158 1260 l 1001 1260 z "},"Ổ":{"ha":1458,"x_min":106,"x_max":1353,"o":"m 729 -15 q 476 20 590 -15 q 279 122 363 56 q 151 281 196 188 q 106 490 106 375 q 151 696 106 603 q 281 856 197 789 q 478 959 364 924 q 731 994 593 994 q 981 958 868 994 q 1178 856 1094 922 q 1307 697 1261 790 q 1353 492 1353 604 q 1307 283 1353 376 q 1178 124 1261 190 q 982 21 1096 57 q 729 -15 868 -15 m 729 231 q 897 262 826 231 q 1006 351 967 293 q 1044 490 1044 410 q 1006 630 1044 572 q 898 718 968 688 q 729 749 828 749 q 560 717 631 749 q 452 628 490 686 q 414 489 414 569 q 452 351 414 408 q 561 262 490 293 q 729 231 632 231 m 406 1064 l 610 1285 l 847 1285 l 1051 1064 l 857 1064 l 728 1182 l 599 1064 l 406 1064 m 943 1251 q 950 1285 940 1271 q 974 1312 960 1299 q 999 1335 989 1325 q 1010 1354 1010 1344 q 999 1369 1010 1365 q 961 1374 989 1374 q 918 1369 938 1374 q 868 1354 899 1365 l 833 1450 q 919 1473 875 1465 q 1018 1481 963 1481 q 1156 1460 1110 1481 q 1203 1396 1203 1439 q 1187 1349 1203 1368 q 1150 1315 1171 1331 q 1114 1286 1129 1300 q 1100 1251 1099 1272 l 943 1251 z "},"Ỗ":{"ha":1458,"x_min":106,"x_max":1353,"o":"m 729 -15 q 476 20 590 -15 q 279 122 363 56 q 151 281 196 188 q 106 490 106 375 q 151 696 106 603 q 281 856 197 789 q 478 959 364 924 q 731 994 593 994 q 981 958 868 994 q 1178 856 1094 922 q 1307 697 1261 790 q 1353 492 1353 604 q 1307 283 1353 376 q 1178 124 1261 190 q 982 21 1096 57 q 729 -15 868 -15 m 729 231 q 897 262 826 231 q 1006 351 967 293 q 1044 490 1044 410 q 1006 630 1044 572 q 898 718 968 688 q 729 749 828 749 q 560 717 631 749 q 452 628 490 686 q 414 489 414 569 q 452 351 414 408 q 561 262 490 293 q 729 231 632 231 m 407 1064 l 611 1263 l 850 1263 l 1054 1064 l 851 1064 l 731 1167 l 610 1064 l 407 1064 m 532 1304 l 396 1310 q 449 1438 404 1392 q 597 1483 494 1483 q 683 1472 643 1483 q 753 1451 722 1460 q 799 1438 772 1447 q 857 1429 826 1429 q 908 1444 892 1429 q 931 1482 925 1460 l 1065 1476 q 1008 1348 1058 1393 q 856 1303 958 1303 q 773 1314 808 1303 q 711 1332 738 1325 q 657 1350 682 1343 q 606 1357 632 1357 q 559 1344 581 1357 q 532 1304 538 1331 z "},"Ȍ":{"ha":1458,"x_min":106,"x_max":1353,"o":"m 729 -15 q 476 20 590 -15 q 279 122 363 56 q 151 281 196 188 q 106 490 106 375 q 151 696 106 603 q 281 856 197 789 q 478 959 364 924 q 731 994 593 994 q 981 958 868 994 q 1178 856 1094 922 q 1307 697 1261 790 q 1353 492 1353 604 q 1307 283 1353 376 q 1178 124 1261 190 q 982 21 1096 57 q 729 -15 868 -15 m 729 231 q 897 262 826 231 q 1006 351 967 293 q 1044 490 1044 410 q 1006 630 1044 572 q 898 718 968 688 q 729 749 828 749 q 560 717 631 749 q 452 628 490 686 q 414 489 414 569 q 452 351 414 408 q 561 262 490 293 q 729 231 632 231 m 794 1063 l 561 1318 l 806 1318 l 953 1063 l 794 1063 m 508 1063 l 251 1318 l 494 1318 l 667 1063 l 508 1063 z "},"Ö":{"ha":1458,"x_min":106,"x_max":1353,"o":"m 729 -15 q 476 20 590 -15 q 279 122 363 56 q 151 281 196 188 q 106 490 106 375 q 151 696 106 603 q 281 856 197 789 q 478 959 364 924 q 731 994 593 994 q 981 958 868 994 q 1178 856 1094 922 q 1307 697 1261 790 q 1353 492 1353 604 q 1307 283 1353 376 q 1178 124 1261 190 q 982 21 1096 57 q 729 -15 868 -15 m 729 231 q 897 262 826 231 q 1006 351 967 293 q 1044 490 1044 410 q 1006 630 1044 572 q 898 718 968 688 q 729 749 828 749 q 560 717 631 749 q 452 628 490 686 q 414 489 414 569 q 452 351 414 408 q 561 262 490 293 q 729 231 632 231 m 804 1060 l 804 1290 l 1061 1290 l 1061 1060 l 804 1060 m 400 1060 l 400 1290 l 657 1290 l 657 1060 l 400 1060 z "},"Ȫ":{"ha":1458,"x_min":106,"x_max":1353,"o":"m 729 -15 q 476 20 590 -15 q 279 122 363 56 q 151 281 196 188 q 106 490 106 375 q 151 696 106 603 q 281 856 197 789 q 478 959 364 924 q 731 994 593 994 q 981 958 868 994 q 1178 856 1094 922 q 1307 697 1261 790 q 1353 492 1353 604 q 1307 283 1353 376 q 1178 124 1261 190 q 982 21 1096 57 q 729 -15 868 -15 m 729 231 q 897 262 826 231 q 1006 351 967 293 q 1044 490 1044 410 q 1006 630 1044 572 q 898 718 968 688 q 729 749 828 749 q 560 717 631 749 q 452 628 490 686 q 414 489 414 569 q 452 351 414 408 q 561 262 490 293 q 729 231 632 231 m 417 1299 l 417 1471 l 1044 1471 l 1044 1299 l 417 1299 m 410 1065 l 410 1236 l 668 1236 l 668 1065 l 410 1065 m 793 1065 l 793 1236 l 1051 1236 l 1051 1065 l 793 1065 z "},"Ȱ":{"ha":1458,"x_min":106,"x_max":1353,"o":"m 729 -15 q 476 20 590 -15 q 279 122 363 56 q 151 281 196 188 q 106 490 106 375 q 151 696 106 603 q 281 856 197 789 q 478 959 364 924 q 731 994 593 994 q 981 958 868 994 q 1178 856 1094 922 q 1307 697 1261 790 q 1353 492 1353 604 q 1307 283 1353 376 q 1178 124 1261 190 q 982 21 1096 57 q 729 -15 868 -15 m 729 231 q 897 262 826 231 q 1006 351 967 293 q 1044 490 1044 410 q 1006 630 1044 572 q 898 718 968 688 q 729 749 828 749 q 560 717 631 749 q 452 628 490 686 q 414 489 414 569 q 452 351 414 408 q 561 262 490 293 q 729 231 632 231 m 439 1290 l 439 1451 l 1022 1451 l 1022 1290 l 439 1290 m 610 1074 l 610 1242 l 851 1242 l 851 1074 l 610 1074 z "},"Ọ":{"ha":1458,"x_min":106,"x_max":1353,"o":"m 729 -15 q 476 20 590 -15 q 279 122 363 56 q 151 281 196 188 q 106 490 106 375 q 151 696 106 603 q 281 856 197 789 q 478 959 364 924 q 731 994 593 994 q 981 958 868 994 q 1178 856 1094 922 q 1307 697 1261 790 q 1353 492 1353 604 q 1307 283 1353 376 q 1178 124 1261 190 q 982 21 1096 57 q 729 -15 868 -15 m 729 231 q 897 262 826 231 q 1006 351 967 293 q 1044 490 1044 410 q 1006 630 1044 572 q 898 718 968 688 q 729 749 828 749 q 560 717 631 749 q 452 628 490 686 q 414 489 414 569 q 452 351 414 408 q 561 262 490 293 q 729 231 632 231 m 607 -326 l 607 -94 l 854 -94 l 854 -326 l 607 -326 z "},"Ò":{"ha":1458,"x_min":106,"x_max":1353,"o":"m 729 -15 q 476 20 590 -15 q 279 122 363 56 q 151 281 196 188 q 106 490 106 375 q 151 696 106 603 q 281 856 197 789 q 478 959 364 924 q 731 994 593 994 q 981 958 868 994 q 1178 856 1094 922 q 1307 697 1261 790 q 1353 492 1353 604 q 1307 283 1353 376 q 1178 124 1261 190 q 982 21 1096 57 q 729 -15 868 -15 m 729 231 q 897 262 826 231 q 1006 351 967 293 q 1044 490 1044 410 q 1006 630 1044 572 q 898 718 968 688 q 729 749 828 749 q 560 717 631 749 q 452 628 490 686 q 414 489 414 569 q 452 351 414 408 q 561 262 490 293 q 729 231 632 231 m 633 1063 l 340 1318 l 624 1318 l 828 1063 l 633 1063 z "},"Ỏ":{"ha":1458,"x_min":106,"x_max":1353,"o":"m 729 -15 q 476 20 590 -15 q 279 122 363 56 q 151 281 196 188 q 106 490 106 375 q 151 696 106 603 q 281 856 197 789 q 478 959 364 924 q 731 994 593 994 q 981 958 868 994 q 1178 856 1094 922 q 1307 697 1261 790 q 1353 492 1353 604 q 1307 283 1353 376 q 1178 124 1261 190 q 982 21 1096 57 q 729 -15 868 -15 m 729 231 q 897 262 826 231 q 1006 351 967 293 q 1044 490 1044 410 q 1006 630 1044 572 q 898 718 968 688 q 729 749 828 749 q 560 717 631 749 q 452 628 490 686 q 414 489 414 569 q 452 351 414 408 q 561 262 490 293 q 729 231 632 231 m 649 1063 l 649 1082 q 662 1113 649 1100 q 692 1136 675 1126 q 722 1156 708 1146 q 735 1175 735 1165 q 720 1193 735 1188 q 675 1199 706 1199 q 624 1193 649 1199 q 575 1176 599 1188 l 532 1282 q 623 1311 569 1301 q 738 1321 676 1321 q 890 1295 839 1321 q 942 1224 942 1269 q 922 1174 942 1193 q 877 1140 903 1154 q 831 1111 851 1125 q 811 1076 811 1097 l 811 1063 l 649 1063 z "},"Ơ":{"ha":1458,"x_min":106,"x_max":1361,"o":"m 729 -15 q 476 20 590 -15 q 279 122 363 56 q 151 281 196 188 q 106 490 106 375 q 151 696 106 603 q 281 856 197 789 q 478 959 364 924 q 731 994 593 994 q 981 958 868 994 q 1178 856 1094 922 q 1307 697 1261 790 q 1353 492 1353 604 q 1307 283 1353 376 q 1178 124 1261 190 q 982 21 1096 57 q 729 -15 868 -15 m 729 231 q 897 262 826 231 q 1006 351 967 293 q 1044 490 1044 410 q 1006 630 1044 572 q 898 718 968 688 q 729 749 828 749 q 560 717 631 749 q 452 628 490 686 q 414 489 414 569 q 452 351 414 408 q 561 262 490 293 q 729 231 632 231 m 928 857 l 860 985 q 915 981 889 983 q 967 979 942 979 q 1060 990 1028 979 q 1106 1030 1093 1001 q 1118 1108 1118 1058 l 1118 1149 l 1361 1149 l 1361 1076 q 1328 967 1361 1017 q 1239 887 1294 917 q 1117 857 1183 857 l 928 857 z "},"Ớ":{"ha":1458,"x_min":106,"x_max":1361,"o":"m 729 -15 q 476 20 590 -15 q 279 122 363 56 q 151 281 196 188 q 106 490 106 375 q 151 696 106 603 q 281 856 197 789 q 478 959 364 924 q 731 994 593 994 q 981 958 868 994 q 1178 856 1094 922 q 1307 697 1261 790 q 1353 492 1353 604 q 1307 283 1353 376 q 1178 124 1261 190 q 982 21 1096 57 q 729 -15 868 -15 m 729 231 q 897 262 826 231 q 1006 351 967 293 q 1044 490 1044 410 q 1006 630 1044 572 q 898 718 968 688 q 729 749 828 749 q 560 717 631 749 q 452 628 490 686 q 414 489 414 569 q 452 351 414 408 q 561 262 490 293 q 729 231 632 231 m 928 857 l 860 985 q 915 981 889 983 q 967 979 942 979 q 1060 990 1028 979 q 1106 1030 1093 1001 q 1118 1108 1118 1058 l 1118 1149 l 1361 1149 l 1361 1076 q 1328 967 1361 1017 q 1239 887 1294 917 q 1117 857 1183 857 l 928 857 m 561 1063 l 765 1318 l 1071 1318 l 776 1063 l 561 1063 z "},"Ợ":{"ha":1458,"x_min":106,"x_max":1361,"o":"m 729 -15 q 476 20 590 -15 q 279 122 363 56 q 151 281 196 188 q 106 490 106 375 q 151 696 106 603 q 281 856 197 789 q 478 959 364 924 q 731 994 593 994 q 981 958 868 994 q 1178 856 1094 922 q 1307 697 1261 790 q 1353 492 1353 604 q 1307 283 1353 376 q 1178 124 1261 190 q 982 21 1096 57 q 729 -15 868 -15 m 729 231 q 897 262 826 231 q 1006 351 967 293 q 1044 490 1044 410 q 1006 630 1044 572 q 898 718 968 688 q 729 749 828 749 q 560 717 631 749 q 452 628 490 686 q 414 489 414 569 q 452 351 414 408 q 561 262 490 293 q 729 231 632 231 m 928 857 l 860 985 q 915 981 889 983 q 967 979 942 979 q 1060 990 1028 979 q 1106 1030 1093 1001 q 1118 1108 1118 1058 l 1118 1149 l 1361 1149 l 1361 1076 q 1328 967 1361 1017 q 1239 887 1294 917 q 1117 857 1183 857 l 928 857 m 611 -326 l 611 -94 l 858 -94 l 858 -326 l 611 -326 z "},"Ờ":{"ha":1458,"x_min":106,"x_max":1361,"o":"m 729 -15 q 476 20 590 -15 q 279 122 363 56 q 151 281 196 188 q 106 490 106 375 q 151 696 106 603 q 281 856 197 789 q 478 959 364 924 q 731 994 593 994 q 981 958 868 994 q 1178 856 1094 922 q 1307 697 1261 790 q 1353 492 1353 604 q 1307 283 1353 376 q 1178 124 1261 190 q 982 21 1096 57 q 729 -15 868 -15 m 729 231 q 897 262 826 231 q 1006 351 967 293 q 1044 490 1044 410 q 1006 630 1044 572 q 898 718 968 688 q 729 749 828 749 q 560 717 631 749 q 452 628 490 686 q 414 489 414 569 q 452 351 414 408 q 561 262 490 293 q 729 231 632 231 m 928 857 l 860 985 q 915 981 889 983 q 967 979 942 979 q 1060 990 1028 979 q 1106 1030 1093 1001 q 1118 1108 1118 1058 l 1118 1149 l 1361 1149 l 1361 1076 q 1328 967 1361 1017 q 1239 887 1294 917 q 1117 857 1183 857 l 928 857 m 572 1063 l 279 1318 l 563 1318 l 767 1063 l 572 1063 z "},"Ở":{"ha":1458,"x_min":106,"x_max":1361,"o":"m 729 -15 q 476 20 590 -15 q 279 122 363 56 q 151 281 196 188 q 106 490 106 375 q 151 696 106 603 q 281 856 197 789 q 478 959 364 924 q 731 994 593 994 q 981 958 868 994 q 1178 856 1094 922 q 1307 697 1261 790 q 1353 492 1353 604 q 1307 283 1353 376 q 1178 124 1261 190 q 982 21 1096 57 q 729 -15 868 -15 m 729 231 q 897 262 826 231 q 1006 351 967 293 q 1044 490 1044 410 q 1006 630 1044 572 q 898 718 968 688 q 729 749 828 749 q 560 717 631 749 q 452 628 490 686 q 414 489 414 569 q 452 351 414 408 q 561 262 490 293 q 729 231 632 231 m 928 857 l 860 985 q 915 981 889 983 q 967 979 942 979 q 1060 990 1028 979 q 1106 1030 1093 1001 q 1118 1108 1118 1058 l 1118 1149 l 1361 1149 l 1361 1076 q 1328 967 1361 1017 q 1239 887 1294 917 q 1117 857 1183 857 l 928 857 m 588 1063 l 588 1082 q 601 1113 588 1100 q 631 1136 614 1126 q 660 1156 647 1146 q 674 1175 674 1165 q 659 1193 674 1188 q 614 1199 644 1199 q 563 1193 588 1199 q 514 1176 538 1188 l 471 1282 q 562 1311 508 1301 q 676 1321 615 1321 q 829 1295 778 1321 q 881 1224 881 1269 q 861 1174 881 1193 q 816 1140 842 1154 q 770 1111 790 1125 q 750 1076 750 1097 l 750 1063 l 588 1063 z "},"Ỡ":{"ha":1458,"x_min":106,"x_max":1361,"o":"m 729 -15 q 476 20 590 -15 q 279 122 363 56 q 151 281 196 188 q 106 490 106 375 q 151 696 106 603 q 281 856 197 789 q 478 959 364 924 q 731 994 593 994 q 981 958 868 994 q 1178 856 1094 922 q 1307 697 1261 790 q 1353 492 1353 604 q 1307 283 1353 376 q 1178 124 1261 190 q 982 21 1096 57 q 729 -15 868 -15 m 729 231 q 897 262 826 231 q 1006 351 967 293 q 1044 490 1044 410 q 1006 630 1044 572 q 898 718 968 688 q 729 749 828 749 q 560 717 631 749 q 452 628 490 686 q 414 489 414 569 q 452 351 414 408 q 561 262 490 293 q 729 231 632 231 m 928 857 l 860 985 q 915 981 889 983 q 967 979 942 979 q 1060 990 1028 979 q 1106 1030 1093 1001 q 1118 1108 1118 1058 l 1118 1149 l 1361 1149 l 1361 1076 q 1328 967 1361 1017 q 1239 887 1294 917 q 1117 857 1183 857 l 928 857 m 443 1051 l 282 1060 q 314 1181 286 1128 q 392 1265 342 1235 q 513 1294 443 1294 q 597 1281 557 1294 q 672 1253 638 1267 q 728 1232 699 1243 q 789 1221 758 1221 q 847 1242 829 1221 q 869 1301 864 1264 l 1031 1294 q 999 1172 1026 1225 q 921 1090 971 1119 q 803 1060 871 1060 q 716 1074 756 1060 q 646 1099 676 1089 q 586 1121 617 1108 q 522 1133 556 1133 q 465 1113 482 1133 q 443 1051 449 1092 z "},"Ő":{"ha":1458,"x_min":106,"x_max":1353,"o":"m 729 -15 q 476 20 590 -15 q 279 122 363 56 q 151 281 196 188 q 106 490 106 375 q 151 696 106 603 q 281 856 197 789 q 478 959 364 924 q 731 994 593 994 q 981 958 868 994 q 1178 856 1094 922 q 1307 697 1261 790 q 1353 492 1353 604 q 1307 283 1353 376 q 1178 124 1261 190 q 982 21 1096 57 q 729 -15 868 -15 m 729 231 q 897 262 826 231 q 1006 351 967 293 q 1044 490 1044 410 q 1006 630 1044 572 q 898 718 968 688 q 729 749 828 749 q 560 717 631 749 q 452 628 490 686 q 414 489 414 569 q 452 351 414 408 q 561 262 490 293 q 729 231 632 231 m 508 1063 l 656 1318 l 900 1318 l 667 1063 l 508 1063 m 794 1063 l 967 1318 l 1210 1318 l 953 1063 l 794 1063 z "},"Ȏ":{"ha":1458,"x_min":106,"x_max":1353,"o":"m 729 -15 q 476 20 590 -15 q 279 122 363 56 q 151 281 196 188 q 106 490 106 375 q 151 696 106 603 q 281 856 197 789 q 478 959 364 924 q 731 994 593 994 q 981 958 868 994 q 1178 856 1094 922 q 1307 697 1261 790 q 1353 492 1353 604 q 1307 283 1353 376 q 1178 124 1261 190 q 982 21 1096 57 q 729 -15 868 -15 m 729 231 q 897 262 826 231 q 1006 351 967 293 q 1044 490 1044 410 q 1006 630 1044 572 q 898 718 968 688 q 729 749 828 749 q 560 717 631 749 q 452 628 490 686 q 414 489 414 569 q 452 351 414 408 q 561 262 490 293 q 729 231 632 231 m 558 1056 l 396 1069 q 488 1274 401 1204 q 731 1343 575 1343 q 972 1274 886 1343 q 1064 1069 1058 1204 l 903 1056 q 858 1139 896 1110 q 732 1168 821 1168 q 606 1140 647 1168 q 558 1056 565 1111 z "},"Ō":{"ha":1458,"x_min":106,"x_max":1353,"o":"m 729 -15 q 476 20 590 -15 q 279 122 363 56 q 151 281 196 188 q 106 490 106 375 q 151 696 106 603 q 281 856 197 789 q 478 959 364 924 q 731 994 593 994 q 981 958 868 994 q 1178 856 1094 922 q 1307 697 1261 790 q 1353 492 1353 604 q 1307 283 1353 376 q 1178 124 1261 190 q 982 21 1096 57 q 729 -15 868 -15 m 729 231 q 897 262 826 231 q 1006 351 967 293 q 1044 490 1044 410 q 1006 630 1044 572 q 898 718 968 688 q 729 749 828 749 q 560 717 631 749 q 452 628 490 686 q 414 489 414 569 q 452 351 414 408 q 561 262 490 293 q 729 231 632 231 m 417 1094 l 417 1279 l 1044 1279 l 1044 1094 l 417 1094 z "},"Ṓ":{"ha":1458,"x_min":106,"x_max":1353,"o":"m 729 -15 q 476 20 590 -15 q 279 122 363 56 q 151 281 196 188 q 106 490 106 375 q 151 696 106 603 q 281 856 197 789 q 478 959 364 924 q 731 994 593 994 q 981 958 868 994 q 1178 856 1094 922 q 1307 697 1261 790 q 1353 492 1353 604 q 1307 283 1353 376 q 1178 124 1261 190 q 982 21 1096 57 q 729 -15 868 -15 m 729 231 q 897 262 826 231 q 1006 351 967 293 q 1044 490 1044 410 q 1006 630 1044 572 q 898 718 968 688 q 729 749 828 749 q 560 717 631 749 q 452 628 490 686 q 414 489 414 569 q 452 351 414 408 q 561 262 490 293 q 729 231 632 231 m 418 1093 l 418 1254 l 1043 1254 l 1043 1093 l 418 1093 m 622 1301 l 749 1486 l 1029 1486 l 811 1301 l 622 1301 z "},"Ṑ":{"ha":1458,"x_min":106,"x_max":1353,"o":"m 729 -15 q 476 20 590 -15 q 279 122 363 56 q 151 281 196 188 q 106 490 106 375 q 151 696 106 603 q 281 856 197 789 q 478 959 364 924 q 731 994 593 994 q 981 958 868 994 q 1178 856 1094 922 q 1307 697 1261 790 q 1353 492 1353 604 q 1307 283 1353 376 q 1178 124 1261 190 q 982 21 1096 57 q 729 -15 868 -15 m 729 231 q 897 262 826 231 q 1006 351 967 293 q 1044 490 1044 410 q 1006 630 1044 572 q 898 718 968 688 q 729 749 828 749 q 560 717 631 749 q 452 628 490 686 q 414 489 414 569 q 452 351 414 408 q 561 262 490 293 q 729 231 632 231 m 650 1301 l 432 1486 l 713 1486 l 839 1301 l 650 1301 m 418 1093 l 418 1254 l 1043 1254 l 1043 1093 l 418 1093 z "},"Ǫ":{"ha":1458,"x_min":106,"x_max":1353,"o":"m 729 -15 q 476 20 590 -15 q 279 122 363 56 q 151 281 196 188 q 106 490 106 375 q 151 696 106 603 q 281 856 197 789 q 478 959 364 924 q 731 994 593 994 q 981 958 868 994 q 1178 856 1094 922 q 1307 697 1261 790 q 1353 492 1353 604 q 1307 283 1353 376 q 1178 124 1261 190 q 982 21 1096 57 q 729 -15 868 -15 m 729 231 q 897 262 826 231 q 1006 351 967 293 q 1044 490 1044 410 q 1006 630 1044 572 q 898 718 968 688 q 729 749 828 749 q 560 717 631 749 q 452 628 490 686 q 414 489 414 569 q 452 351 414 408 q 561 262 490 293 q 729 231 632 231 m 788 -290 q 617 -255 675 -290 q 558 -153 558 -219 q 605 -34 558 -90 q 750 68 651 22 l 835 0 q 783 -33 804 -17 q 750 -65 761 -49 q 739 -99 739 -81 q 760 -135 739 -124 q 822 -146 782 -146 q 868 -142 846 -146 q 915 -132 890 -139 l 947 -265 q 867 -285 903 -279 q 788 -290 831 -290 z "},"Ø":{"ha":1458,"x_min":106,"x_max":1353,"o":"m 729 -15 q 476 20 590 -15 q 279 122 363 56 q 151 281 196 188 q 106 490 106 375 q 151 696 106 603 q 281 856 197 789 q 478 959 364 924 q 731 994 593 994 q 981 958 868 994 q 1178 856 1094 922 q 1307 697 1261 790 q 1353 492 1353 604 q 1307 283 1353 376 q 1178 124 1261 190 q 982 21 1096 57 q 729 -15 868 -15 m 729 231 q 897 262 826 231 q 1006 351 967 293 q 1044 490 1044 410 q 1006 630 1044 572 q 898 718 968 688 q 729 749 828 749 q 560 717 631 749 q 452 628 490 686 q 414 489 414 569 q 452 351 414 408 q 561 262 490 293 q 729 231 632 231 m 407 -107 l 236 19 l 371 201 l 475 306 l 860 796 l 913 906 l 1050 1089 l 1219 960 l 1083 779 l 981 674 l 597 186 l 544 76 l 407 -107 z "},"Ǿ":{"ha":1458,"x_min":106,"x_max":1353,"o":"m 729 -15 q 476 20 590 -15 q 279 122 363 56 q 151 281 196 188 q 106 490 106 375 q 151 696 106 603 q 281 856 197 789 q 478 959 364 924 q 731 994 593 994 q 981 958 868 994 q 1178 856 1094 922 q 1307 697 1261 790 q 1353 492 1353 604 q 1307 283 1353 376 q 1178 124 1261 190 q 982 21 1096 57 q 729 -15 868 -15 m 729 231 q 897 262 826 231 q 1006 351 967 293 q 1044 490 1044 410 q 1006 630 1044 572 q 898 718 968 688 q 729 749 828 749 q 560 717 631 749 q 452 628 490 686 q 414 489 414 569 q 452 351 414 408 q 561 262 490 293 q 729 231 632 231 m 407 -107 l 236 19 l 371 201 l 475 306 l 860 796 l 913 906 l 1050 1089 l 1219 960 l 1083 779 l 981 674 l 597 186 l 544 76 l 407 -107 m 622 1063 l 826 1318 l 1132 1318 l 838 1063 l 622 1063 z "},"Õ":{"ha":1458,"x_min":106,"x_max":1353,"o":"m 729 -15 q 476 20 590 -15 q 279 122 363 56 q 151 281 196 188 q 106 490 106 375 q 151 696 106 603 q 281 856 197 789 q 478 959 364 924 q 731 994 593 994 q 981 958 868 994 q 1178 856 1094 922 q 1307 697 1261 790 q 1353 492 1353 604 q 1307 283 1353 376 q 1178 124 1261 190 q 982 21 1096 57 q 729 -15 868 -15 m 729 231 q 897 262 826 231 q 1006 351 967 293 q 1044 490 1044 410 q 1006 630 1044 572 q 898 718 968 688 q 729 749 828 749 q 560 717 631 749 q 452 628 490 686 q 414 489 414 569 q 452 351 414 408 q 561 262 490 293 q 729 231 632 231 m 486 1051 l 325 1060 q 392 1237 332 1169 q 557 1304 453 1304 q 658 1288 608 1304 q 743 1260 707 1271 q 811 1238 774 1250 q 885 1225 849 1225 q 948 1247 928 1225 q 974 1311 968 1269 l 1136 1304 q 1070 1126 1131 1192 q 904 1060 1010 1060 q 803 1076 853 1060 q 719 1103 754 1092 q 649 1125 689 1113 q 576 1138 610 1138 q 514 1116 533 1138 q 486 1051 494 1094 z "},"Ṍ":{"ha":1458,"x_min":106,"x_max":1353,"o":"m 729 -15 q 476 20 590 -15 q 279 122 363 56 q 151 281 196 188 q 106 490 106 375 q 151 696 106 603 q 281 856 197 789 q 478 959 364 924 q 731 994 593 994 q 981 958 868 994 q 1178 856 1094 922 q 1307 697 1261 790 q 1353 492 1353 604 q 1307 283 1353 376 q 1178 124 1261 190 q 982 21 1096 57 q 729 -15 868 -15 m 729 231 q 897 262 826 231 q 1006 351 967 293 q 1044 490 1044 410 q 1006 630 1044 572 q 898 718 968 688 q 729 749 828 749 q 560 717 631 749 q 452 628 490 686 q 414 489 414 569 q 452 351 414 408 q 561 262 490 293 q 729 231 632 231 m 633 1297 l 760 1483 l 1040 1483 l 822 1297 l 633 1297 m 854 1063 q 772 1074 807 1063 q 708 1094 736 1086 q 662 1108 689 1100 q 606 1117 635 1117 q 559 1103 581 1117 q 531 1064 538 1090 l 396 1071 q 420 1168 401 1126 q 482 1233 439 1210 q 597 1257 525 1257 q 688 1245 647 1257 q 751 1225 728 1233 q 801 1212 775 1219 q 856 1204 828 1204 q 907 1220 890 1204 q 929 1258 924 1236 l 1065 1250 q 1010 1115 1057 1167 q 854 1063 964 1063 z "},"Ṏ":{"ha":1458,"x_min":106,"x_max":1353,"o":"m 729 -15 q 476 20 590 -15 q 279 122 363 56 q 151 281 196 188 q 106 490 106 375 q 151 696 106 603 q 281 856 197 789 q 478 959 364 924 q 731 994 593 994 q 981 958 868 994 q 1178 856 1094 922 q 1307 697 1261 790 q 1353 492 1353 604 q 1307 283 1353 376 q 1178 124 1261 190 q 982 21 1096 57 q 729 -15 868 -15 m 729 231 q 897 262 826 231 q 1006 351 967 293 q 1044 490 1044 410 q 1006 630 1044 572 q 898 718 968 688 q 729 749 828 749 q 560 717 631 749 q 452 628 490 686 q 414 489 414 569 q 452 351 414 408 q 561 262 490 293 q 729 231 632 231 m 854 1063 q 772 1074 807 1063 q 708 1094 736 1086 q 662 1108 689 1100 q 606 1117 635 1117 q 554 1101 572 1117 q 532 1064 536 1086 l 396 1071 q 421 1168 401 1126 q 483 1233 440 1210 q 599 1257 525 1257 q 688 1245 647 1257 q 751 1225 728 1233 q 801 1212 775 1219 q 856 1204 828 1204 q 908 1220 892 1204 q 931 1258 925 1236 l 1065 1250 q 1011 1115 1058 1167 q 854 1063 964 1063 m 410 1306 l 410 1474 l 668 1474 l 668 1306 l 410 1306 m 793 1306 l 793 1474 l 1051 1474 l 1051 1306 l 793 1306 z "},"Ȭ":{"ha":1458,"x_min":106,"x_max":1353,"o":"m 729 -15 q 476 20 590 -15 q 279 122 363 56 q 151 281 196 188 q 106 490 106 375 q 151 696 106 603 q 281 856 197 789 q 478 959 364 924 q 731 994 593 994 q 981 958 868 994 q 1178 856 1094 922 q 1307 697 1261 790 q 1353 492 1353 604 q 1307 283 1353 376 q 1178 124 1261 190 q 982 21 1096 57 q 729 -15 868 -15 m 729 231 q 897 262 826 231 q 1006 351 967 293 q 1044 490 1044 410 q 1006 630 1044 572 q 898 718 968 688 q 729 749 828 749 q 560 717 631 749 q 452 628 490 686 q 414 489 414 569 q 452 351 414 408 q 561 262 490 293 q 729 231 632 231 m 417 1313 l 417 1474 l 1044 1474 l 1044 1313 l 417 1313 m 854 1063 q 772 1074 807 1063 q 708 1094 736 1086 q 662 1108 689 1100 q 606 1117 635 1117 q 559 1103 581 1117 q 531 1064 538 1090 l 396 1071 q 420 1168 401 1126 q 482 1233 439 1210 q 597 1257 525 1257 q 688 1245 647 1257 q 751 1225 728 1233 q 801 1212 775 1219 q 856 1204 828 1204 q 907 1220 890 1204 q 929 1258 924 1236 l 1065 1250 q 1010 1115 1057 1167 q 854 1063 964 1063 z "},"Œ":{"ha":1922,"x_min":106,"x_max":1808,"o":"m 756 0 q 474 36 596 0 q 271 138 353 72 q 147 294 189 204 q 106 489 106 383 q 147 686 106 597 q 271 841 189 775 q 474 943 353 907 q 756 979 596 979 l 1808 979 l 1808 749 l 1226 749 l 1226 610 l 1768 610 l 1768 382 l 1226 382 l 1226 231 l 1808 231 l 1808 0 l 756 0 m 775 243 l 933 243 l 933 736 l 775 736 q 503 674 592 736 q 414 490 414 611 q 503 305 414 367 q 775 243 593 243 z "},"P":{"ha":1250,"x_min":144,"x_max":1181,"o":"m 144 0 l 144 979 l 761 979 q 987 941 893 979 q 1131 830 1081 903 q 1181 653 1181 757 q 1130 474 1181 549 q 986 358 1079 399 q 761 318 893 318 l 447 318 l 447 0 l 144 0 m 447 542 l 717 542 q 843 567 803 542 q 883 649 883 593 q 845 730 883 704 q 717 756 807 756 l 447 756 l 447 542 z "},"Þ":{"ha":1238,"x_min":144,"x_max":1176,"o":"m 144 0 l 144 979 l 447 979 l 447 836 l 757 836 q 983 798 889 836 q 1126 687 1076 760 q 1176 510 1176 614 q 1126 332 1176 407 q 983 216 1076 257 q 757 175 889 175 l 447 175 l 447 0 l 144 0 m 447 400 l 714 400 q 839 425 799 400 q 879 507 879 450 q 841 587 879 563 q 714 611 803 611 l 447 611 l 447 400 z "},"Q":{"ha":1458,"x_min":106,"x_max":1353,"o":"m 1076 -317 l 913 -78 q 844 -29 888 -43 q 732 -14 801 -15 l 944 63 q 1053 54 1001 63 q 1145 27 1104 46 q 1211 -26 1186 8 l 1331 -189 l 1076 -317 m 729 -15 q 476 20 590 -15 q 279 122 363 56 q 151 281 196 188 q 106 490 106 375 q 151 696 106 603 q 281 856 197 789 q 478 959 364 924 q 729 994 593 994 q 981 958 868 994 q 1178 856 1094 922 q 1307 697 1261 790 q 1353 492 1353 604 q 1307 283 1353 376 q 1178 124 1261 190 q 982 21 1096 57 q 729 -15 868 -15 m 729 231 q 897 262 826 231 q 1006 351 967 293 q 1044 490 1044 410 q 1006 630 1044 572 q 898 718 968 688 q 729 749 828 749 q 561 717 632 749 q 452 628 490 686 q 414 489 414 569 q 452 351 414 408 q 561 262 490 293 q 729 231 632 231 z "},"R":{"ha":1296,"x_min":144,"x_max":1257,"o":"m 144 0 l 144 979 l 744 979 q 1069 901 957 979 q 1181 674 1181 824 q 1138 533 1181 590 q 1024 441 1096 475 q 864 393 953 407 l 869 389 l 915 385 q 988 355 953 378 q 1058 285 1022 332 l 1257 0 l 924 0 l 742 268 q 712 303 728 289 q 670 323 696 317 q 599 329 644 329 l 447 329 l 447 0 l 144 0 m 447 543 l 719 543 q 847 571 810 543 q 883 651 883 599 q 847 730 883 704 q 717 756 810 756 l 447 756 l 447 543 z "},"Ŕ":{"ha":1296,"x_min":144,"x_max":1257,"o":"m 144 0 l 144 979 l 744 979 q 1069 901 957 979 q 1181 674 1181 824 q 1138 533 1181 590 q 1024 441 1096 475 q 864 393 953 407 l 869 389 l 915 385 q 988 355 953 378 q 1058 285 1022 332 l 1257 0 l 924 0 l 742 268 q 712 303 728 289 q 670 323 696 317 q 599 329 644 329 l 447 329 l 447 0 l 144 0 m 447 543 l 719 543 q 847 571 810 543 q 883 651 883 599 q 847 730 883 704 q 717 756 810 756 l 447 756 l 447 543 m 535 1063 l 739 1318 l 1044 1318 l 750 1063 l 535 1063 z "},"Ř":{"ha":1296,"x_min":144,"x_max":1257,"o":"m 144 0 l 144 979 l 744 979 q 1069 901 957 979 q 1181 674 1181 824 q 1138 533 1181 590 q 1024 441 1096 475 q 864 393 953 407 l 869 389 l 915 385 q 988 355 953 378 q 1058 285 1022 332 l 1257 0 l 924 0 l 742 268 q 712 303 728 289 q 670 323 696 317 q 599 329 644 329 l 447 329 l 447 0 l 144 0 m 447 543 l 719 543 q 847 571 810 543 q 883 651 883 599 q 847 730 883 704 q 717 756 810 756 l 447 756 l 447 543 m 525 1063 l 311 1319 l 521 1319 l 643 1193 l 765 1319 l 975 1319 l 761 1063 l 525 1063 z "},"Ŗ":{"ha":1296,"x_min":144,"x_max":1257,"o":"m 144 0 l 144 979 l 744 979 q 1069 901 957 979 q 1181 674 1181 824 q 1138 533 1181 590 q 1024 441 1096 475 q 864 393 953 407 l 869 389 l 915 385 q 988 355 953 378 q 1058 285 1022 332 l 1257 0 l 924 0 l 742 268 q 712 303 728 289 q 670 323 696 317 q 599 329 644 329 l 447 329 l 447 0 l 144 0 m 447 543 l 719 543 q 847 571 810 543 q 883 651 883 599 q 847 730 883 704 q 717 756 810 756 l 447 756 l 447 543 m 632 -472 l 558 -414 q 626 -324 604 -367 q 650 -247 649 -281 l 694 -287 l 533 -287 l 533 -85 l 754 -85 l 754 -237 q 724 -360 754 -303 q 632 -472 694 -418 z "},"Ȑ":{"ha":1296,"x_min":144,"x_max":1257,"o":"m 144 0 l 144 979 l 744 979 q 1069 901 957 979 q 1181 674 1181 824 q 1138 533 1181 590 q 1024 441 1096 475 q 864 393 953 407 l 869 389 l 915 385 q 988 355 953 378 q 1058 285 1022 332 l 1257 0 l 924 0 l 742 268 q 712 303 728 289 q 670 323 696 317 q 599 329 644 329 l 447 329 l 447 0 l 144 0 m 447 543 l 719 543 q 847 571 810 543 q 883 651 883 599 q 847 730 883 704 q 717 756 810 756 l 447 756 l 447 543 m 707 1063 l 474 1318 l 718 1318 l 865 1063 l 707 1063 m 421 1063 l 164 1318 l 407 1318 l 579 1063 l 421 1063 z "},"Ṛ":{"ha":1296,"x_min":144,"x_max":1257,"o":"m 144 0 l 144 979 l 744 979 q 1069 901 957 979 q 1181 674 1181 824 q 1138 533 1181 590 q 1024 441 1096 475 q 864 393 953 407 l 869 389 l 915 385 q 988 355 953 378 q 1058 285 1022 332 l 1257 0 l 924 0 l 742 268 q 712 303 728 289 q 670 323 696 317 q 599 329 644 329 l 447 329 l 447 0 l 144 0 m 447 543 l 719 543 q 847 571 810 543 q 883 651 883 599 q 847 730 883 704 q 717 756 810 756 l 447 756 l 447 543 m 519 -326 l 519 -94 l 767 -94 l 767 -326 l 519 -326 z "},"Ȓ":{"ha":1296,"x_min":144,"x_max":1257,"o":"m 144 0 l 144 979 l 744 979 q 1069 901 957 979 q 1181 674 1181 824 q 1138 533 1181 590 q 1024 441 1096 475 q 864 393 953 407 l 869 389 l 915 385 q 988 355 953 378 q 1058 285 1022 332 l 1257 0 l 924 0 l 742 268 q 712 303 728 289 q 670 323 696 317 q 599 329 644 329 l 447 329 l 447 0 l 144 0 m 447 543 l 719 543 q 847 571 810 543 q 883 651 883 599 q 847 730 883 704 q 717 756 810 756 l 447 756 l 447 543 m 471 1056 l 308 1069 q 401 1274 314 1204 q 643 1343 488 1343 q 885 1274 799 1343 q 976 1069 971 1204 l 815 1056 q 771 1139 808 1110 q 644 1168 733 1168 q 519 1140 560 1168 q 471 1056 478 1111 z "},"Ṟ":{"ha":1296,"x_min":144,"x_max":1257,"o":"m 144 0 l 144 979 l 744 979 q 1069 901 957 979 q 1181 674 1181 824 q 1138 533 1181 590 q 1024 441 1096 475 q 864 393 953 407 l 869 389 l 915 385 q 988 355 953 378 q 1058 285 1022 332 l 1257 0 l 924 0 l 742 268 q 712 303 728 289 q 670 323 696 317 q 599 329 644 329 l 447 329 l 447 0 l 144 0 m 447 543 l 719 543 q 847 571 810 543 q 883 651 883 599 q 847 730 883 704 q 717 756 810 756 l 447 756 l 447 543 m 329 -283 l 329 -100 l 957 -100 l 957 -283 l 329 -283 z "},"S":{"ha":1199,"x_min":90,"x_max":1131,"o":"m 607 -15 q 415 -4 511 -15 q 235 28 318 7 q 90 81 151 50 l 186 304 q 324 253 254 272 q 470 227 394 235 q 628 219 546 219 q 777 238 722 219 q 832 299 832 256 q 815 339 832 326 q 770 356 799 351 q 703 364 742 360 l 461 388 q 201 481 286 404 q 115 681 115 557 q 181 849 115 779 q 361 957 246 919 q 629 994 476 994 q 806 983 721 994 q 964 949 892 971 q 1088 893 1036 926 l 993 672 q 820 740 911 721 q 613 760 729 760 q 504 753 550 760 q 435 732 458 746 q 413 694 413 718 q 449 642 413 656 q 553 619 486 628 l 778 593 q 1041 503 951 575 q 1131 307 1131 432 q 1068 135 1131 208 q 888 24 1006 63 q 607 -15 769 -15 z "},"Ś":{"ha":1199,"x_min":90,"x_max":1131,"o":"m 607 -15 q 415 -4 511 -15 q 235 28 318 7 q 90 81 151 50 l 186 304 q 324 253 254 272 q 470 227 394 235 q 628 219 546 219 q 777 238 722 219 q 832 299 832 256 q 815 339 832 326 q 770 356 799 351 q 703 364 742 360 l 461 388 q 201 481 286 404 q 115 681 115 557 q 181 849 115 779 q 361 957 246 919 q 629 994 476 994 q 806 983 721 994 q 964 949 892 971 q 1088 893 1036 926 l 993 672 q 820 740 911 721 q 613 760 729 760 q 504 753 550 760 q 435 732 458 746 q 413 694 413 718 q 449 642 413 656 q 553 619 486 628 l 778 593 q 1041 503 951 575 q 1131 307 1131 432 q 1068 135 1131 208 q 888 24 1006 63 q 607 -15 769 -15 m 514 1063 l 718 1318 l 1024 1318 l 729 1063 l 514 1063 z "},"Ṥ":{"ha":1199,"x_min":90,"x_max":1131,"o":"m 607 -15 q 415 -4 511 -15 q 235 28 318 7 q 90 81 151 50 l 186 304 q 324 253 254 272 q 470 227 394 235 q 628 219 546 219 q 777 238 722 219 q 832 299 832 256 q 815 339 832 326 q 770 356 799 351 q 703 364 742 360 l 461 388 q 201 481 286 404 q 115 681 115 557 q 181 849 115 779 q 361 957 246 919 q 629 994 476 994 q 806 983 721 994 q 964 949 892 971 q 1088 893 1036 926 l 993 672 q 820 740 911 721 q 613 760 729 760 q 504 753 550 760 q 435 732 458 746 q 413 694 413 718 q 449 642 413 656 q 553 619 486 628 l 778 593 q 1041 503 951 575 q 1131 307 1131 432 q 1068 135 1131 208 q 888 24 1006 63 q 607 -15 769 -15 m 368 1279 l 368 1461 l 600 1461 l 600 1279 l 368 1279 m 524 1061 l 704 1338 l 981 1338 l 721 1061 l 524 1061 z "},"Š":{"ha":1199,"x_min":90,"x_max":1131,"o":"m 607 -15 q 415 -4 511 -15 q 235 28 318 7 q 90 81 151 50 l 186 304 q 324 253 254 272 q 470 227 394 235 q 628 219 546 219 q 777 238 722 219 q 832 299 832 256 q 815 339 832 326 q 770 356 799 351 q 703 364 742 360 l 461 388 q 201 481 286 404 q 115 681 115 557 q 181 849 115 779 q 361 957 246 919 q 629 994 476 994 q 806 983 721 994 q 964 949 892 971 q 1088 893 1036 926 l 993 672 q 820 740 911 721 q 613 760 729 760 q 504 753 550 760 q 435 732 458 746 q 413 694 413 718 q 449 642 413 656 q 553 619 486 628 l 778 593 q 1041 503 951 575 q 1131 307 1131 432 q 1068 135 1131 208 q 888 24 1006 63 q 607 -15 769 -15 m 504 1063 l 290 1319 l 500 1319 l 622 1193 l 744 1319 l 954 1319 l 740 1063 l 504 1063 z "},"Ṧ":{"ha":1199,"x_min":90,"x_max":1131,"o":"m 607 -15 q 415 -4 511 -15 q 235 28 318 7 q 90 81 151 50 l 186 304 q 324 253 254 272 q 470 227 394 235 q 628 219 546 219 q 777 238 722 219 q 832 299 832 256 q 815 339 832 326 q 770 356 799 351 q 703 364 742 360 l 461 388 q 201 481 286 404 q 115 681 115 557 q 181 849 115 779 q 361 957 246 919 q 629 994 476 994 q 806 983 721 994 q 964 949 892 971 q 1088 893 1036 926 l 993 672 q 820 740 911 721 q 613 760 729 760 q 504 753 550 760 q 435 732 458 746 q 413 694 413 718 q 449 642 413 656 q 553 619 486 628 l 778 593 q 1041 503 951 575 q 1131 307 1131 432 q 1068 135 1131 208 q 888 24 1006 63 q 607 -15 769 -15 m 503 1068 l 310 1288 l 503 1288 l 622 1188 l 742 1288 l 935 1288 l 742 1068 l 503 1068 m 492 1332 l 492 1500 l 754 1500 l 754 1332 l 492 1332 z "},"Ş":{"ha":1199,"x_min":90,"x_max":1131,"o":"m 607 -15 q 415 -4 511 -15 q 235 28 318 7 q 90 81 151 50 l 186 304 q 324 253 254 272 q 470 227 394 235 q 628 219 546 219 q 777 238 722 219 q 832 299 832 256 q 815 339 832 326 q 770 356 799 351 q 703 364 742 360 l 461 388 q 201 481 286 404 q 115 681 115 557 q 181 849 115 779 q 361 957 246 919 q 629 994 476 994 q 806 983 721 994 q 964 949 892 971 q 1088 893 1036 926 l 993 672 q 820 740 911 721 q 613 760 729 760 q 504 753 550 760 q 435 732 458 746 q 413 694 413 718 q 449 642 413 656 q 553 619 486 628 l 778 593 q 1041 503 951 575 q 1131 307 1131 432 q 1068 135 1131 208 q 888 24 1006 63 q 607 -15 769 -15 m 638 -290 q 526 -283 585 -290 q 429 -258 468 -275 l 472 -153 q 549 -176 510 -167 q 644 -185 588 -185 q 706 -178 688 -185 q 724 -156 724 -172 q 701 -131 724 -136 q 647 -125 679 -125 q 608 -126 635 -125 q 563 -131 582 -128 l 528 -97 l 546 28 l 674 28 l 657 -90 l 600 -57 q 656 -47 625 -50 q 725 -43 688 -43 q 803 -53 767 -43 q 863 -88 840 -62 q 886 -158 886 -114 q 857 -237 886 -208 q 772 -278 828 -267 q 638 -290 717 -290 z "},"Ŝ":{"ha":1199,"x_min":90,"x_max":1131,"o":"m 607 -15 q 415 -4 511 -15 q 235 28 318 7 q 90 81 151 50 l 186 304 q 324 253 254 272 q 470 227 394 235 q 628 219 546 219 q 777 238 722 219 q 832 299 832 256 q 815 339 832 326 q 770 356 799 351 q 703 364 742 360 l 461 388 q 201 481 286 404 q 115 681 115 557 q 181 849 115 779 q 361 957 246 919 q 629 994 476 994 q 806 983 721 994 q 964 949 892 971 q 1088 893 1036 926 l 993 672 q 820 740 911 721 q 613 760 729 760 q 504 753 550 760 q 435 732 458 746 q 413 694 413 718 q 449 642 413 656 q 553 619 486 628 l 778 593 q 1041 503 951 575 q 1131 307 1131 432 q 1068 135 1131 208 q 888 24 1006 63 q 607 -15 769 -15 m 290 1063 l 504 1318 l 740 1318 l 954 1063 l 744 1063 l 622 1188 l 500 1063 l 290 1063 z "},"Ș":{"ha":1199,"x_min":90,"x_max":1131,"o":"m 607 -15 q 415 -4 511 -15 q 235 28 318 7 q 90 81 151 50 l 186 304 q 324 253 254 272 q 470 227 394 235 q 628 219 546 219 q 777 238 722 219 q 832 299 832 256 q 815 339 832 326 q 770 356 799 351 q 703 364 742 360 l 461 388 q 201 481 286 404 q 115 681 115 557 q 181 849 115 779 q 361 957 246 919 q 629 994 476 994 q 806 983 721 994 q 964 949 892 971 q 1088 893 1036 926 l 993 672 q 820 740 911 721 q 613 760 729 760 q 504 753 550 760 q 435 732 458 746 q 413 694 413 718 q 449 642 413 656 q 553 619 486 628 l 778 593 q 1041 503 951 575 q 1131 307 1131 432 q 1068 135 1131 208 q 888 24 1006 63 q 607 -15 769 -15 m 603 -472 l 529 -414 q 597 -324 575 -367 q 621 -247 619 -281 l 665 -287 l 504 -287 l 504 -85 l 725 -85 l 725 -237 q 695 -360 725 -303 q 603 -472 665 -418 z "},"Ṡ":{"ha":1199,"x_min":90,"x_max":1131,"o":"m 607 -15 q 415 -4 511 -15 q 235 28 318 7 q 90 81 151 50 l 186 304 q 324 253 254 272 q 470 227 394 235 q 628 219 546 219 q 777 238 722 219 q 832 299 832 256 q 815 339 832 326 q 770 356 799 351 q 703 364 742 360 l 461 388 q 201 481 286 404 q 115 681 115 557 q 181 849 115 779 q 361 957 246 919 q 629 994 476 994 q 806 983 721 994 q 964 949 892 971 q 1088 893 1036 926 l 993 672 q 820 740 911 721 q 613 760 729 760 q 504 753 550 760 q 435 732 458 746 q 413 694 413 718 q 449 642 413 656 q 553 619 486 628 l 778 593 q 1041 503 951 575 q 1131 307 1131 432 q 1068 135 1131 208 q 888 24 1006 63 q 607 -15 769 -15 m 497 1060 l 497 1294 l 747 1294 l 747 1060 l 497 1060 z "},"Ṣ":{"ha":1199,"x_min":90,"x_max":1131,"o":"m 607 -15 q 415 -4 511 -15 q 235 28 318 7 q 90 81 151 50 l 186 304 q 324 253 254 272 q 470 227 394 235 q 628 219 546 219 q 777 238 722 219 q 832 299 832 256 q 815 339 832 326 q 770 356 799 351 q 703 364 742 360 l 461 388 q 201 481 286 404 q 115 681 115 557 q 181 849 115 779 q 361 957 246 919 q 629 994 476 994 q 806 983 721 994 q 964 949 892 971 q 1088 893 1036 926 l 993 672 q 820 740 911 721 q 613 760 729 760 q 504 753 550 760 q 435 732 458 746 q 413 694 413 718 q 449 642 413 656 q 553 619 486 628 l 778 593 q 1041 503 951 575 q 1131 307 1131 432 q 1068 135 1131 208 q 888 24 1006 63 q 607 -15 769 -15 m 490 -326 l 490 -94 l 738 -94 l 738 -326 l 490 -326 z "},"Ṩ":{"ha":1199,"x_min":90,"x_max":1131,"o":"m 607 -15 q 415 -4 511 -15 q 235 28 318 7 q 90 81 151 50 l 186 304 q 324 253 254 272 q 470 227 394 235 q 628 219 546 219 q 777 238 722 219 q 832 299 832 256 q 815 339 832 326 q 770 356 799 351 q 703 364 742 360 l 461 388 q 201 481 286 404 q 115 681 115 557 q 181 849 115 779 q 361 957 246 919 q 629 994 476 994 q 806 983 721 994 q 964 949 892 971 q 1088 893 1036 926 l 993 672 q 820 740 911 721 q 613 760 729 760 q 504 753 550 760 q 435 732 458 746 q 413 694 413 718 q 449 642 413 656 q 553 619 486 628 l 778 593 q 1041 503 951 575 q 1131 307 1131 432 q 1068 135 1131 208 q 888 24 1006 63 q 607 -15 769 -15 m 490 -326 l 490 -94 l 738 -94 l 738 -326 l 490 -326 m 497 1060 l 497 1294 l 747 1294 l 747 1060 l 497 1060 z "},"ẞ":{"ha":1372,"x_min":144,"x_max":1272,"o":"m 856 -17 q 683 -1 758 -17 q 538 49 607 14 l 618 261 q 719 224 671 235 q 825 214 767 214 q 950 235 907 214 q 993 303 993 256 q 944 365 993 347 q 799 383 896 383 l 619 383 l 619 594 l 744 594 q 838 604 800 594 q 894 633 875 614 q 913 679 913 651 q 865 741 913 719 q 710 763 818 763 q 502 728 565 763 q 439 608 439 693 l 439 0 l 144 0 l 144 601 q 203 813 144 725 q 384 949 261 901 q 700 996 507 996 q 969 963 858 996 q 1139 869 1081 931 q 1197 725 1197 808 q 1176 634 1197 675 q 1118 564 1156 593 q 1028 513 1081 535 l 1028 510 q 1206 428 1140 489 q 1272 269 1272 368 q 1224 122 1272 186 q 1082 20 1175 57 q 856 -17 989 -17 z "},"T":{"ha":1171,"x_min":38,"x_max":1133,"o":"m 433 0 l 433 738 l 38 738 l 38 979 l 1133 979 l 1133 738 l 738 738 l 738 0 l 433 0 z "},"Ŧ":{"ha":1171,"x_min":38,"x_max":1133,"o":"m 433 0 l 433 738 l 38 738 l 38 979 l 1133 979 l 1133 738 l 738 738 l 738 0 l 433 0 m 204 329 l 204 526 l 968 526 l 968 329 l 204 329 z "},"Ť":{"ha":1171,"x_min":38,"x_max":1133,"o":"m 433 0 l 433 738 l 38 738 l 38 979 l 1133 979 l 1133 738 l 738 738 l 738 0 l 433 0 m 467 1063 l 253 1319 l 463 1319 l 585 1193 l 707 1319 l 917 1319 l 703 1063 l 467 1063 z "},"Ţ":{"ha":1171,"x_min":38,"x_max":1133,"o":"m 433 0 l 433 738 l 38 738 l 38 979 l 1133 979 l 1133 738 l 738 738 l 738 0 l 433 0 m 608 -290 q 497 -283 556 -290 q 400 -258 439 -275 l 443 -153 q 519 -176 481 -167 q 615 -185 558 -185 q 676 -178 658 -185 q 694 -156 694 -172 q 672 -131 694 -136 q 618 -125 650 -125 q 579 -126 606 -125 q 533 -131 553 -128 l 499 -97 l 517 28 l 644 28 l 628 -90 l 571 -57 q 627 -47 596 -50 q 696 -43 658 -43 q 774 -53 738 -43 q 834 -88 811 -62 q 857 -158 857 -114 q 828 -237 857 -208 q 743 -278 799 -267 q 608 -290 688 -290 z "},"Ț":{"ha":1171,"x_min":38,"x_max":1133,"o":"m 433 0 l 433 738 l 38 738 l 38 979 l 1133 979 l 1133 738 l 738 738 l 738 0 l 433 0 m 574 -472 l 500 -414 q 568 -324 546 -367 q 592 -247 590 -281 l 636 -287 l 475 -287 l 475 -85 l 696 -85 l 696 -237 q 666 -360 696 -303 q 574 -472 636 -418 z "},"Ṭ":{"ha":1171,"x_min":38,"x_max":1133,"o":"m 433 0 l 433 738 l 38 738 l 38 979 l 1133 979 l 1133 738 l 738 738 l 738 0 l 433 0 m 461 -326 l 461 -94 l 708 -94 l 708 -326 l 461 -326 z "},"Ṯ":{"ha":1171,"x_min":38,"x_max":1133,"o":"m 433 0 l 433 738 l 38 738 l 38 979 l 1133 979 l 1133 738 l 738 738 l 738 0 l 433 0 m 271 -283 l 271 -100 l 899 -100 l 899 -283 l 271 -283 z "},"U":{"ha":1357,"x_min":132,"x_max":1225,"o":"m 681 -15 q 271 93 410 -15 q 132 404 132 201 l 132 979 l 435 979 l 435 424 q 497 285 435 333 q 679 238 558 238 q 864 287 806 238 q 922 424 922 336 l 922 979 l 1225 979 l 1225 404 q 1085 93 1225 201 q 681 -15 946 -15 z "},"Ú":{"ha":1357,"x_min":132,"x_max":1225,"o":"m 681 -15 q 271 93 410 -15 q 132 404 132 201 l 132 979 l 435 979 l 435 424 q 497 285 435 333 q 679 238 558 238 q 864 287 806 238 q 922 424 922 336 l 922 979 l 1225 979 l 1225 404 q 1085 93 1225 201 q 681 -15 946 -15 m 568 1063 l 772 1318 l 1078 1318 l 783 1063 l 568 1063 z "},"Ŭ":{"ha":1357,"x_min":132,"x_max":1225,"o":"m 681 -15 q 271 93 410 -15 q 132 404 132 201 l 132 979 l 435 979 l 435 424 q 497 285 435 333 q 679 238 558 238 q 864 287 806 238 q 922 424 922 336 l 922 979 l 1225 979 l 1225 404 q 1085 93 1225 201 q 681 -15 946 -15 m 676 1056 q 434 1125 521 1056 q 342 1329 347 1194 l 504 1343 q 551 1259 511 1288 q 676 1231 590 1231 q 803 1259 764 1231 q 849 1343 842 1288 l 1010 1329 q 918 1125 1004 1194 q 676 1056 832 1056 z "},"Û":{"ha":1357,"x_min":132,"x_max":1225,"o":"m 681 -15 q 271 93 410 -15 q 132 404 132 201 l 132 979 l 435 979 l 435 424 q 497 285 435 333 q 679 238 558 238 q 864 287 806 238 q 922 424 922 336 l 922 979 l 1225 979 l 1225 404 q 1085 93 1225 201 q 681 -15 946 -15 m 344 1063 l 558 1318 l 794 1318 l 1008 1063 l 799 1063 l 676 1188 l 554 1063 l 344 1063 z "},"Ȕ":{"ha":1357,"x_min":132,"x_max":1225,"o":"m 681 -15 q 271 93 410 -15 q 132 404 132 201 l 132 979 l 435 979 l 435 424 q 497 285 435 333 q 679 238 558 238 q 864 287 806 238 q 922 424 922 336 l 922 979 l 1225 979 l 1225 404 q 1085 93 1225 201 q 681 -15 946 -15 m 740 1063 l 507 1318 l 751 1318 l 899 1063 l 740 1063 m 454 1063 l 197 1318 l 440 1318 l 613 1063 l 454 1063 z "},"Ü":{"ha":1357,"x_min":132,"x_max":1225,"o":"m 681 -15 q 271 93 410 -15 q 132 404 132 201 l 132 979 l 435 979 l 435 424 q 497 285 435 333 q 679 238 558 238 q 864 287 806 238 q 922 424 922 336 l 922 979 l 1225 979 l 1225 404 q 1085 93 1225 201 q 681 -15 946 -15 m 750 1060 l 750 1290 l 1007 1290 l 1007 1060 l 750 1060 m 346 1060 l 346 1290 l 603 1290 l 603 1060 l 346 1060 z "},"Ụ":{"ha":1357,"x_min":132,"x_max":1225,"o":"m 681 -15 q 271 93 410 -15 q 132 404 132 201 l 132 979 l 435 979 l 435 424 q 497 285 435 333 q 679 238 558 238 q 864 287 806 238 q 922 424 922 336 l 922 979 l 1225 979 l 1225 404 q 1085 93 1225 201 q 681 -15 946 -15 m 553 -326 l 553 -94 l 800 -94 l 800 -326 l 553 -326 z "},"Ù":{"ha":1357,"x_min":132,"x_max":1225,"o":"m 681 -15 q 271 93 410 -15 q 132 404 132 201 l 132 979 l 435 979 l 435 424 q 497 285 435 333 q 679 238 558 238 q 864 287 806 238 q 922 424 922 336 l 922 979 l 1225 979 l 1225 404 q 1085 93 1225 201 q 681 -15 946 -15 m 579 1063 l 286 1318 l 569 1318 l 774 1063 l 579 1063 z "},"Ủ":{"ha":1357,"x_min":132,"x_max":1225,"o":"m 681 -15 q 271 93 410 -15 q 132 404 132 201 l 132 979 l 435 979 l 435 424 q 497 285 435 333 q 679 238 558 238 q 864 287 806 238 q 922 424 922 336 l 922 979 l 1225 979 l 1225 404 q 1085 93 1225 201 q 681 -15 946 -15 m 594 1063 l 594 1082 q 608 1113 594 1100 q 638 1136 621 1126 q 667 1156 654 1146 q 681 1175 681 1165 q 666 1193 681 1188 q 621 1199 651 1199 q 569 1193 594 1199 q 521 1176 544 1188 l 478 1282 q 569 1311 515 1301 q 683 1321 622 1321 q 836 1295 785 1321 q 888 1224 888 1269 q 868 1174 888 1193 q 823 1140 849 1154 q 777 1111 797 1125 q 757 1076 757 1097 l 757 1063 l 594 1063 z "},"Ư":{"ha":1357,"x_min":132,"x_max":1396,"o":"m 681 -15 q 271 93 410 -15 q 132 404 132 201 l 132 979 l 435 979 l 435 424 q 497 285 435 333 q 679 238 558 238 q 864 287 806 238 q 922 424 922 336 l 922 979 l 1225 979 l 1225 404 q 1085 93 1225 201 q 681 -15 946 -15 m 1168 857 l 1000 963 l 1000 979 q 1093 990 1060 979 q 1140 1030 1126 1001 q 1153 1110 1153 1058 l 1153 1150 l 1396 1150 l 1396 1076 q 1368 972 1396 1019 q 1289 894 1340 924 q 1168 857 1238 864 z "},"Ứ":{"ha":1357,"x_min":132,"x_max":1396,"o":"m 681 -15 q 271 93 410 -15 q 132 404 132 201 l 132 979 l 435 979 l 435 424 q 497 285 435 333 q 679 238 558 238 q 864 287 806 238 q 922 424 922 336 l 922 979 l 1225 979 l 1225 404 q 1085 93 1225 201 q 681 -15 946 -15 m 1168 857 l 1000 963 l 1000 979 q 1093 990 1060 979 q 1140 1030 1126 1001 q 1153 1110 1153 1058 l 1153 1150 l 1396 1150 l 1396 1076 q 1368 972 1396 1019 q 1289 894 1340 924 q 1168 857 1238 864 m 567 1063 l 771 1318 l 1076 1318 l 782 1063 l 567 1063 z "},"Ự":{"ha":1357,"x_min":132,"x_max":1396,"o":"m 681 -15 q 271 93 410 -15 q 132 404 132 201 l 132 979 l 435 979 l 435 424 q 497 285 435 333 q 679 238 558 238 q 864 287 806 238 q 922 424 922 336 l 922 979 l 1225 979 l 1225 404 q 1085 93 1225 201 q 681 -15 946 -15 m 1168 857 l 1000 963 l 1000 979 q 1093 990 1060 979 q 1140 1030 1126 1001 q 1153 1110 1153 1058 l 1153 1150 l 1396 1150 l 1396 1076 q 1368 972 1396 1019 q 1289 894 1340 924 q 1168 857 1238 864 m 551 -326 l 551 -94 l 799 -94 l 799 -326 l 551 -326 z "},"Ừ":{"ha":1357,"x_min":132,"x_max":1396,"o":"m 681 -15 q 271 93 410 -15 q 132 404 132 201 l 132 979 l 435 979 l 435 424 q 497 285 435 333 q 679 238 558 238 q 864 287 806 238 q 922 424 922 336 l 922 979 l 1225 979 l 1225 404 q 1085 93 1225 201 q 681 -15 946 -15 m 1168 857 l 1000 963 l 1000 979 q 1093 990 1060 979 q 1140 1030 1126 1001 q 1153 1110 1153 1058 l 1153 1150 l 1396 1150 l 1396 1076 q 1368 972 1396 1019 q 1289 894 1340 924 q 1168 857 1238 864 m 578 1063 l 285 1318 l 568 1318 l 772 1063 l 578 1063 z "},"Ử":{"ha":1357,"x_min":132,"x_max":1396,"o":"m 681 -15 q 271 93 410 -15 q 132 404 132 201 l 132 979 l 435 979 l 435 424 q 497 285 435 333 q 679 238 558 238 q 864 287 806 238 q 922 424 922 336 l 922 979 l 1225 979 l 1225 404 q 1085 93 1225 201 q 681 -15 946 -15 m 1168 857 l 1000 963 l 1000 979 q 1093 990 1060 979 q 1140 1030 1126 1001 q 1153 1110 1153 1058 l 1153 1150 l 1396 1150 l 1396 1076 q 1368 972 1396 1019 q 1289 894 1340 924 q 1168 857 1238 864 m 593 1063 l 593 1082 q 606 1113 593 1100 q 636 1136 619 1126 q 666 1156 653 1146 q 679 1175 679 1165 q 665 1193 679 1188 q 619 1199 650 1199 q 568 1193 593 1199 q 519 1176 543 1188 l 476 1282 q 567 1311 514 1301 q 682 1321 621 1321 q 835 1295 783 1321 q 886 1224 886 1269 q 867 1174 886 1193 q 822 1140 847 1154 q 776 1111 796 1125 q 756 1076 756 1097 l 756 1063 l 593 1063 z "},"Ữ":{"ha":1357,"x_min":132,"x_max":1396,"o":"m 681 -15 q 271 93 410 -15 q 132 404 132 201 l 132 979 l 435 979 l 435 424 q 497 285 435 333 q 679 238 558 238 q 864 287 806 238 q 922 424 922 336 l 922 979 l 1225 979 l 1225 404 q 1085 93 1225 201 q 681 -15 946 -15 m 1168 857 l 1000 963 l 1000 979 q 1093 990 1060 979 q 1140 1030 1126 1001 q 1153 1110 1153 1058 l 1153 1150 l 1396 1150 l 1396 1076 q 1368 972 1396 1019 q 1289 894 1340 924 q 1168 857 1238 864 m 449 1051 l 288 1060 q 319 1181 292 1128 q 398 1265 347 1235 q 518 1294 449 1294 q 603 1281 563 1294 q 678 1253 643 1267 q 734 1232 704 1243 q 794 1221 764 1221 q 852 1242 835 1221 q 875 1301 869 1264 l 1036 1294 q 1004 1172 1032 1225 q 926 1090 976 1119 q 808 1060 876 1060 q 722 1074 761 1060 q 651 1099 682 1089 q 592 1121 622 1108 q 528 1133 561 1133 q 471 1113 488 1133 q 449 1051 454 1092 z "},"Ű":{"ha":1357,"x_min":132,"x_max":1225,"o":"m 681 -15 q 271 93 410 -15 q 132 404 132 201 l 132 979 l 435 979 l 435 424 q 497 285 435 333 q 679 238 558 238 q 864 287 806 238 q 922 424 922 336 l 922 979 l 1225 979 l 1225 404 q 1085 93 1225 201 q 681 -15 946 -15 m 454 1063 l 601 1318 l 846 1318 l 613 1063 l 454 1063 m 740 1063 l 913 1318 l 1156 1318 l 899 1063 l 740 1063 z "},"Ȗ":{"ha":1357,"x_min":132,"x_max":1225,"o":"m 681 -15 q 271 93 410 -15 q 132 404 132 201 l 132 979 l 435 979 l 435 424 q 497 285 435 333 q 679 238 558 238 q 864 287 806 238 q 922 424 922 336 l 922 979 l 1225 979 l 1225 404 q 1085 93 1225 201 q 681 -15 946 -15 m 504 1056 l 342 1069 q 434 1274 347 1204 q 676 1343 521 1343 q 918 1274 832 1343 q 1010 1069 1004 1204 l 849 1056 q 804 1139 842 1110 q 678 1168 767 1168 q 552 1140 593 1168 q 504 1056 511 1111 z "},"Ū":{"ha":1357,"x_min":132,"x_max":1225,"o":"m 681 -15 q 271 93 410 -15 q 132 404 132 201 l 132 979 l 435 979 l 435 424 q 497 285 435 333 q 679 238 558 238 q 864 287 806 238 q 922 424 922 336 l 922 979 l 1225 979 l 1225 404 q 1085 93 1225 201 q 681 -15 946 -15 m 363 1094 l 363 1279 l 990 1279 l 990 1094 l 363 1094 z "},"Ṻ":{"ha":1357,"x_min":132,"x_max":1225,"o":"m 681 -15 q 271 93 410 -15 q 132 404 132 201 l 132 979 l 435 979 l 435 424 q 497 285 435 333 q 679 238 558 238 q 864 287 806 238 q 922 424 922 336 l 922 979 l 1225 979 l 1225 404 q 1085 93 1225 201 q 681 -15 946 -15 m 363 1094 l 363 1267 l 990 1267 l 990 1094 l 363 1094 m 356 1329 l 356 1500 l 614 1500 l 614 1329 l 356 1329 m 739 1329 l 739 1500 l 997 1500 l 997 1329 l 739 1329 z "},"Ų":{"ha":1357,"x_min":132,"x_max":1225,"o":"m 681 -15 q 271 93 410 -15 q 132 404 132 201 l 132 979 l 435 979 l 435 424 q 497 285 435 333 q 679 238 558 238 q 864 287 806 238 q 922 424 922 336 l 922 979 l 1225 979 l 1225 404 q 1085 93 1225 201 q 681 -15 946 -15 m 729 -290 q 558 -255 617 -290 q 500 -153 500 -219 q 547 -34 500 -90 q 692 68 593 22 l 776 0 q 724 -33 746 -17 q 692 -65 703 -49 q 681 -99 681 -81 q 702 -135 681 -124 q 764 -146 724 -146 q 810 -142 788 -146 q 857 -132 832 -139 l 889 -265 q 808 -285 844 -279 q 729 -290 772 -290 z "},"Ů":{"ha":1357,"x_min":132,"x_max":1225,"o":"m 681 -15 q 271 93 410 -15 q 132 404 132 201 l 132 979 l 435 979 l 435 424 q 497 285 435 333 q 679 238 558 238 q 864 287 806 238 q 922 424 922 336 l 922 979 l 1225 979 l 1225 404 q 1085 93 1225 201 q 681 -15 946 -15 m 676 1043 q 568 1069 615 1043 q 494 1138 521 1094 q 467 1233 467 1181 q 494 1330 467 1288 q 568 1397 521 1372 q 676 1422 615 1422 q 785 1397 738 1422 q 859 1329 832 1372 q 886 1232 886 1286 q 859 1137 886 1179 q 785 1069 832 1094 q 676 1043 739 1043 m 676 1143 q 741 1169 718 1143 q 764 1233 764 1194 q 741 1297 764 1271 q 676 1322 718 1322 q 612 1297 636 1322 q 588 1233 588 1271 q 611 1169 588 1194 q 676 1143 635 1143 z "},"Ũ":{"ha":1357,"x_min":132,"x_max":1225,"o":"m 681 -15 q 271 93 410 -15 q 132 404 132 201 l 132 979 l 435 979 l 435 424 q 497 285 435 333 q 679 238 558 238 q 864 287 806 238 q 922 424 922 336 l 922 979 l 1225 979 l 1225 404 q 1085 93 1225 201 q 681 -15 946 -15 m 432 1051 l 271 1060 q 338 1237 278 1169 q 503 1304 399 1304 q 603 1288 554 1304 q 689 1260 653 1271 q 757 1238 719 1250 q 831 1225 794 1225 q 894 1247 874 1225 q 919 1311 914 1269 l 1082 1304 q 1016 1126 1076 1192 q 850 1060 956 1060 q 749 1076 799 1060 q 665 1103 700 1092 q 595 1125 635 1113 q 522 1138 556 1138 q 460 1116 479 1138 q 432 1051 440 1094 z "},"Ṹ":{"ha":1357,"x_min":132,"x_max":1225,"o":"m 681 -15 q 271 93 410 -15 q 132 404 132 201 l 132 979 l 435 979 l 435 424 q 497 285 435 333 q 679 238 558 238 q 864 287 806 238 q 922 424 922 336 l 922 979 l 1225 979 l 1225 404 q 1085 93 1225 201 q 681 -15 946 -15 m 579 1297 l 706 1483 l 986 1483 l 768 1297 l 579 1297 m 800 1063 q 717 1074 753 1063 q 654 1094 682 1086 q 608 1108 635 1100 q 551 1117 581 1117 q 505 1103 526 1117 q 476 1064 483 1090 l 342 1071 q 366 1168 347 1126 q 428 1233 385 1210 q 543 1257 471 1257 q 633 1245 593 1257 q 697 1225 674 1233 q 747 1212 721 1219 q 801 1204 774 1204 q 853 1220 836 1204 q 875 1258 869 1236 l 1011 1250 q 956 1115 1003 1167 q 800 1063 910 1063 z "},"V":{"ha":1281,"x_min":-26,"x_max":1307,"o":"m 508 0 l -26 979 l 315 979 l 647 326 l 638 326 l 969 979 l 1307 979 l 772 0 l 508 0 z "},"W":{"ha":1986,"x_min":54,"x_max":1932,"o":"m 446 0 l 54 979 l 379 979 l 621 368 l 604 368 l 886 979 l 1117 979 l 1403 365 l 1381 365 l 1624 979 l 1932 979 l 1540 0 l 1264 0 l 992 568 l 992 568 l 713 0 l 446 0 z "},"Ẃ":{"ha":1986,"x_min":54,"x_max":1932,"o":"m 446 0 l 54 979 l 379 979 l 621 368 l 604 368 l 886 979 l 1117 979 l 1403 365 l 1381 365 l 1624 979 l 1932 979 l 1540 0 l 1264 0 l 992 568 l 992 568 l 713 0 l 446 0 m 886 1063 l 1090 1318 l 1396 1318 l 1101 1063 l 886 1063 z "},"Ŵ":{"ha":1986,"x_min":54,"x_max":1932,"o":"m 446 0 l 54 979 l 379 979 l 621 368 l 604 368 l 886 979 l 1117 979 l 1403 365 l 1381 365 l 1624 979 l 1932 979 l 1540 0 l 1264 0 l 992 568 l 992 568 l 713 0 l 446 0 m 663 1063 l 876 1318 l 1113 1318 l 1326 1063 l 1117 1063 l 994 1188 l 872 1063 l 663 1063 z "},"Ẅ":{"ha":1986,"x_min":54,"x_max":1932,"o":"m 446 0 l 54 979 l 379 979 l 621 368 l 604 368 l 886 979 l 1117 979 l 1403 365 l 1381 365 l 1624 979 l 1932 979 l 1540 0 l 1264 0 l 992 568 l 992 568 l 713 0 l 446 0 m 1068 1060 l 1068 1290 l 1325 1290 l 1325 1060 l 1068 1060 m 664 1060 l 664 1290 l 921 1290 l 921 1060 l 664 1060 z "},"Ẁ":{"ha":1986,"x_min":54,"x_max":1932,"o":"m 446 0 l 54 979 l 379 979 l 621 368 l 604 368 l 886 979 l 1117 979 l 1403 365 l 1381 365 l 1624 979 l 1932 979 l 1540 0 l 1264 0 l 992 568 l 992 568 l 713 0 l 446 0 m 897 1063 l 604 1318 l 888 1318 l 1092 1063 l 897 1063 z "},"X":{"ha":1244,"x_min":10,"x_max":1242,"o":"m 10 0 l 444 558 l 444 429 l 21 979 l 389 979 l 631 644 l 618 644 l 868 979 l 1221 979 l 800 432 l 800 557 l 1242 0 l 874 0 l 613 342 l 628 342 l 361 0 l 10 0 z "},"Y":{"ha":1150,"x_min":-37,"x_max":1189,"o":"m 422 0 l 422 504 l 472 319 l -37 979 l 297 979 l 581 601 l 575 601 l 860 979 l 1189 979 l 676 319 l 725 504 l 725 0 l 422 0 z "},"Ý":{"ha":1150,"x_min":-37,"x_max":1189,"o":"m 422 0 l 422 504 l 472 319 l -37 979 l 297 979 l 581 601 l 575 601 l 860 979 l 1189 979 l 676 319 l 725 504 l 725 0 l 422 0 m 468 1063 l 672 1318 l 978 1318 l 683 1063 l 468 1063 z "},"Ŷ":{"ha":1150,"x_min":-37,"x_max":1189,"o":"m 422 0 l 422 504 l 472 319 l -37 979 l 297 979 l 581 601 l 575 601 l 860 979 l 1189 979 l 676 319 l 725 504 l 725 0 l 422 0 m 244 1063 l 458 1318 l 694 1318 l 908 1063 l 699 1063 l 576 1188 l 454 1063 l 244 1063 z "},"Ÿ":{"ha":1150,"x_min":-37,"x_max":1189,"o":"m 422 0 l 422 504 l 472 319 l -37 979 l 297 979 l 581 601 l 575 601 l 860 979 l 1189 979 l 676 319 l 725 504 l 725 0 l 422 0 m 650 1060 l 650 1290 l 907 1290 l 907 1060 l 650 1060 m 246 1060 l 246 1290 l 503 1290 l 503 1060 l 246 1060 z "},"Ẏ":{"ha":1150,"x_min":-37,"x_max":1189,"o":"m 422 0 l 422 504 l 472 319 l -37 979 l 297 979 l 581 601 l 575 601 l 860 979 l 1189 979 l 676 319 l 725 504 l 725 0 l 422 0 m 451 1060 l 451 1294 l 701 1294 l 701 1060 l 451 1060 z "},"Ỵ":{"ha":1150,"x_min":-37,"x_max":1189,"o":"m 422 0 l 422 504 l 472 319 l -37 979 l 297 979 l 581 601 l 575 601 l 860 979 l 1189 979 l 676 319 l 725 504 l 725 0 l 422 0 m 450 -326 l 450 -94 l 697 -94 l 697 -326 l 450 -326 z "},"Ỳ":{"ha":1150,"x_min":-37,"x_max":1189,"o":"m 422 0 l 422 504 l 472 319 l -37 979 l 297 979 l 581 601 l 575 601 l 860 979 l 1189 979 l 676 319 l 725 504 l 725 0 l 422 0 m 479 1063 l 186 1318 l 469 1318 l 674 1063 l 479 1063 z "},"Ƴ":{"ha":1138,"x_min":-37,"x_max":1193,"o":"m 422 0 l 422 504 l 472 319 l -37 979 l 297 979 l 581 601 l 575 601 l 758 836 q 900 964 828 932 q 1064 996 972 996 q 1139 990 1107 996 q 1193 975 1171 985 l 1193 760 q 1160 768 1178 765 q 1125 771 1143 771 q 1033 750 1067 771 q 964 682 999 729 l 676 319 l 725 504 l 725 0 l 422 0 z "},"Ỷ":{"ha":1150,"x_min":-37,"x_max":1189,"o":"m 422 0 l 422 504 l 472 319 l -37 979 l 297 979 l 581 601 l 575 601 l 860 979 l 1189 979 l 676 319 l 725 504 l 725 0 l 422 0 m 494 1063 l 494 1082 q 508 1113 494 1100 q 538 1136 521 1126 q 567 1156 554 1146 q 581 1175 581 1165 q 566 1193 581 1188 q 521 1199 551 1199 q 469 1193 494 1199 q 421 1176 444 1188 l 378 1282 q 469 1311 415 1301 q 583 1321 522 1321 q 736 1295 685 1321 q 788 1224 788 1269 q 768 1174 788 1193 q 723 1140 749 1154 q 677 1111 697 1125 q 657 1076 657 1097 l 657 1063 l 494 1063 z "},"Ȳ":{"ha":1150,"x_min":-37,"x_max":1189,"o":"m 422 0 l 422 504 l 472 319 l -37 979 l 297 979 l 581 601 l 575 601 l 860 979 l 1189 979 l 676 319 l 725 504 l 725 0 l 422 0 m 263 1094 l 263 1279 l 890 1279 l 890 1094 l 263 1094 z "},"Ỹ":{"ha":1150,"x_min":-37,"x_max":1189,"o":"m 422 0 l 422 504 l 472 319 l -37 979 l 297 979 l 581 601 l 575 601 l 860 979 l 1189 979 l 676 319 l 725 504 l 725 0 l 422 0 m 332 1051 l 171 1060 q 238 1237 178 1169 q 403 1304 299 1304 q 503 1288 454 1304 q 589 1260 553 1271 q 657 1238 619 1250 q 731 1225 694 1225 q 794 1247 774 1225 q 819 1311 814 1269 l 982 1304 q 916 1126 976 1192 q 750 1060 856 1060 q 649 1076 699 1060 q 565 1103 600 1092 q 495 1125 535 1113 q 422 1138 456 1138 q 360 1116 379 1138 q 332 1051 340 1094 z "},"Z":{"ha":1133,"x_min":97,"x_max":1074,"o":"m 97 0 l 97 206 l 735 831 l 757 746 l 97 746 l 97 979 l 1051 979 l 1051 776 l 411 149 l 390 233 l 1074 233 l 1074 0 l 97 0 z "},"Ź":{"ha":1133,"x_min":97,"x_max":1074,"o":"m 97 0 l 97 206 l 735 831 l 757 746 l 97 746 l 97 979 l 1051 979 l 1051 776 l 411 149 l 390 233 l 1074 233 l 1074 0 l 97 0 m 465 1063 l 669 1318 l 975 1318 l 681 1063 l 465 1063 z "},"Ž":{"ha":1133,"x_min":97,"x_max":1074,"o":"m 97 0 l 97 206 l 735 831 l 757 746 l 97 746 l 97 979 l 1051 979 l 1051 776 l 411 149 l 390 233 l 1074 233 l 1074 0 l 97 0 m 456 1063 l 242 1319 l 451 1319 l 574 1193 l 696 1319 l 906 1319 l 692 1063 l 456 1063 z "},"Ż":{"ha":1133,"x_min":97,"x_max":1074,"o":"m 97 0 l 97 206 l 735 831 l 757 746 l 97 746 l 97 979 l 1051 979 l 1051 776 l 411 149 l 390 233 l 1074 233 l 1074 0 l 97 0 m 449 1060 l 449 1294 l 699 1294 l 699 1060 l 449 1060 z "},"Ẓ":{"ha":1133,"x_min":97,"x_max":1074,"o":"m 97 0 l 97 206 l 735 831 l 757 746 l 97 746 l 97 979 l 1051 979 l 1051 776 l 411 149 l 390 233 l 1074 233 l 1074 0 l 97 0 m 456 -326 l 456 -94 l 703 -94 l 703 -326 l 456 -326 z "},"a":{"ha":1089,"x_min":92,"x_max":972,"o":"m 428 -15 q 254 16 331 -15 q 135 101 178 47 q 92 224 92 156 q 139 333 92 286 q 294 404 186 379 q 582 429 401 429 l 728 429 l 728 293 l 597 293 q 492 290 535 293 q 423 281 449 288 q 385 263 397 275 q 374 232 374 250 q 403 190 374 206 q 493 175 433 175 q 592 192 546 175 q 665 240 638 208 q 692 313 692 271 l 692 431 q 644 501 692 481 q 507 521 597 521 q 348 506 425 521 q 190 456 271 490 l 126 639 q 261 683 193 665 q 401 710 329 701 q 550 718 474 718 q 779 684 685 718 q 923 577 874 650 q 972 383 972 504 l 972 0 l 735 0 l 735 144 l 732 144 q 662 57 703 93 q 565 3 621 21 q 428 -15 508 -15 z "},"á":{"ha":1089,"x_min":92,"x_max":972,"o":"m 428 -15 q 254 16 331 -15 q 135 101 178 47 q 92 224 92 156 q 139 333 92 286 q 294 404 186 379 q 582 429 401 429 l 728 429 l 728 293 l 597 293 q 492 290 535 293 q 423 281 449 288 q 385 263 397 275 q 374 232 374 250 q 403 190 374 206 q 493 175 433 175 q 592 192 546 175 q 665 240 638 208 q 692 313 692 271 l 692 431 q 644 501 692 481 q 507 521 597 521 q 348 506 425 521 q 190 456 271 490 l 126 639 q 261 683 193 665 q 401 710 329 701 q 550 718 474 718 q 779 684 685 718 q 923 577 874 650 q 972 383 972 504 l 972 0 l 735 0 l 735 144 l 732 144 q 662 57 703 93 q 565 3 621 21 q 428 -15 508 -15 m 439 781 l 617 1086 l 904 1086 l 643 781 l 439 781 z "},"ă":{"ha":1089,"x_min":92,"x_max":972,"o":"m 428 -15 q 254 16 331 -15 q 135 101 178 47 q 92 224 92 156 q 139 333 92 286 q 294 404 186 379 q 582 429 401 429 l 728 429 l 728 293 l 597 293 q 492 290 535 293 q 423 281 449 288 q 385 263 397 275 q 374 232 374 250 q 403 190 374 206 q 493 175 433 175 q 592 192 546 175 q 665 240 638 208 q 692 313 692 271 l 692 431 q 644 501 692 481 q 507 521 597 521 q 348 506 425 521 q 190 456 271 490 l 126 639 q 261 683 193 665 q 401 710 329 701 q 550 718 474 718 q 779 684 685 718 q 923 577 874 650 q 972 383 972 504 l 972 0 l 735 0 l 735 144 l 732 144 q 662 57 703 93 q 565 3 621 21 q 428 -15 508 -15 m 551 781 q 373 817 442 781 q 272 922 304 854 q 233 1085 240 990 l 403 1097 q 445 988 413 1022 q 551 953 478 953 q 657 988 624 953 q 700 1097 690 1022 l 868 1085 q 831 922 864 990 q 730 817 797 854 q 551 781 663 781 z "},"ắ":{"ha":1089,"x_min":92,"x_max":972,"o":"m 428 -15 q 254 16 331 -15 q 135 101 178 47 q 92 224 92 156 q 139 333 92 286 q 294 404 186 379 q 582 429 401 429 l 728 429 l 728 293 l 597 293 q 492 290 535 293 q 423 281 449 288 q 385 263 397 275 q 374 232 374 250 q 403 190 374 206 q 493 175 433 175 q 592 192 546 175 q 665 240 638 208 q 692 313 692 271 l 692 431 q 644 501 692 481 q 507 521 597 521 q 348 506 425 521 q 190 456 271 490 l 126 639 q 261 683 193 665 q 401 710 329 701 q 550 718 474 718 q 779 684 685 718 q 923 577 874 650 q 972 383 972 504 l 972 0 l 735 0 l 735 144 l 732 144 q 662 57 703 93 q 565 3 621 21 q 428 -15 508 -15 m 551 781 q 310 843 392 781 q 222 1024 229 906 l 371 1038 q 425 953 379 979 q 551 928 471 928 q 678 953 632 928 q 732 1038 724 979 l 881 1024 q 792 843 874 906 q 551 781 711 781 m 454 1008 l 579 1194 l 849 1194 l 632 1008 l 454 1008 z "},"ặ":{"ha":1089,"x_min":92,"x_max":972,"o":"m 428 -15 q 254 16 331 -15 q 135 101 178 47 q 92 224 92 156 q 139 333 92 286 q 294 404 186 379 q 582 429 401 429 l 728 429 l 728 293 l 597 293 q 492 290 535 293 q 423 281 449 288 q 385 263 397 275 q 374 232 374 250 q 403 190 374 206 q 493 175 433 175 q 592 192 546 175 q 665 240 638 208 q 692 313 692 271 l 692 431 q 644 501 692 481 q 507 521 597 521 q 348 506 425 521 q 190 456 271 490 l 126 639 q 261 683 193 665 q 401 710 329 701 q 550 718 474 718 q 779 684 685 718 q 923 577 874 650 q 972 383 972 504 l 972 0 l 735 0 l 735 144 l 732 144 q 662 57 703 93 q 565 3 621 21 q 428 -15 508 -15 m 394 -326 l 394 -94 l 642 -94 l 642 -326 l 394 -326 m 551 781 q 373 817 442 781 q 272 922 304 854 q 233 1085 240 990 l 403 1097 q 445 988 413 1022 q 551 953 478 953 q 657 988 624 953 q 700 1097 690 1022 l 868 1085 q 831 922 864 990 q 730 817 797 854 q 551 781 663 781 z "},"ằ":{"ha":1089,"x_min":92,"x_max":972,"o":"m 428 -15 q 254 16 331 -15 q 135 101 178 47 q 92 224 92 156 q 139 333 92 286 q 294 404 186 379 q 582 429 401 429 l 728 429 l 728 293 l 597 293 q 492 290 535 293 q 423 281 449 288 q 385 263 397 275 q 374 232 374 250 q 403 190 374 206 q 493 175 433 175 q 592 192 546 175 q 665 240 638 208 q 692 313 692 271 l 692 431 q 644 501 692 481 q 507 521 597 521 q 348 506 425 521 q 190 456 271 490 l 126 639 q 261 683 193 665 q 401 710 329 701 q 550 718 474 718 q 779 684 685 718 q 923 577 874 650 q 972 383 972 504 l 972 0 l 735 0 l 735 144 l 732 144 q 662 57 703 93 q 565 3 621 21 q 428 -15 508 -15 m 551 781 q 310 843 392 781 q 222 1024 229 906 l 371 1038 q 425 953 379 979 q 551 928 471 928 q 678 953 632 928 q 732 1038 724 979 l 881 1024 q 792 843 874 906 q 551 781 711 781 m 476 1008 l 260 1194 l 529 1194 l 654 1008 l 476 1008 z "},"ẳ":{"ha":1089,"x_min":92,"x_max":972,"o":"m 428 -15 q 254 16 331 -15 q 135 101 178 47 q 92 224 92 156 q 139 333 92 286 q 294 404 186 379 q 582 429 401 429 l 728 429 l 728 293 l 597 293 q 492 290 535 293 q 423 281 449 288 q 385 263 397 275 q 374 232 374 250 q 403 190 374 206 q 493 175 433 175 q 592 192 546 175 q 665 240 638 208 q 692 313 692 271 l 692 431 q 644 501 692 481 q 507 521 597 521 q 348 506 425 521 q 190 456 271 490 l 126 639 q 261 683 193 665 q 401 710 329 701 q 550 718 474 718 q 779 684 685 718 q 923 577 874 650 q 972 383 972 504 l 972 0 l 735 0 l 735 144 l 732 144 q 662 57 703 93 q 565 3 621 21 q 428 -15 508 -15 m 540 781 q 299 843 381 781 q 211 1024 217 906 l 360 1038 q 413 953 367 979 q 540 928 460 928 q 667 953 621 928 q 721 1038 713 979 l 869 1024 q 781 843 863 906 q 540 781 700 781 m 453 1008 q 462 1045 451 1031 q 490 1072 472 1060 q 519 1094 507 1085 q 532 1114 532 1103 q 518 1131 532 1125 q 476 1136 504 1136 q 430 1131 454 1136 q 372 1115 406 1126 l 336 1218 q 430 1243 379 1235 q 539 1251 481 1251 q 688 1227 638 1251 q 739 1161 739 1203 q 720 1113 739 1132 q 678 1078 701 1093 q 637 1047 654 1063 q 621 1008 619 1031 l 453 1008 z "},"ẵ":{"ha":1089,"x_min":92,"x_max":972,"o":"m 428 -15 q 254 16 331 -15 q 135 101 178 47 q 92 224 92 156 q 139 333 92 286 q 294 404 186 379 q 582 429 401 429 l 728 429 l 728 293 l 597 293 q 492 290 535 293 q 423 281 449 288 q 385 263 397 275 q 374 232 374 250 q 403 190 374 206 q 493 175 433 175 q 592 192 546 175 q 665 240 638 208 q 692 313 692 271 l 692 431 q 644 501 692 481 q 507 521 597 521 q 348 506 425 521 q 190 456 271 490 l 126 639 q 261 683 193 665 q 401 710 329 701 q 550 718 474 718 q 779 684 685 718 q 923 577 874 650 q 972 383 972 504 l 972 0 l 735 0 l 735 144 l 732 144 q 662 57 703 93 q 565 3 621 21 q 428 -15 508 -15 m 551 781 q 323 838 403 781 q 231 999 243 894 l 367 1017 q 432 949 381 971 q 551 928 483 928 q 670 949 619 928 q 736 1017 721 971 l 874 999 q 781 838 860 894 q 551 781 701 781 m 353 1061 l 218 1067 q 242 1163 224 1122 q 303 1226 261 1203 q 419 1250 346 1250 q 504 1238 465 1250 q 574 1218 543 1226 q 621 1204 593 1213 q 679 1196 649 1196 q 730 1212 714 1196 q 751 1249 746 1228 l 888 1243 q 833 1110 879 1160 q 678 1060 788 1060 q 595 1070 631 1060 q 533 1089 560 1081 q 479 1107 504 1100 q 428 1114 454 1114 q 381 1100 401 1114 q 353 1061 360 1086 z "},"ǎ":{"ha":1089,"x_min":92,"x_max":972,"o":"m 428 -15 q 254 16 331 -15 q 135 101 178 47 q 92 224 92 156 q 139 333 92 286 q 294 404 186 379 q 582 429 401 429 l 728 429 l 728 293 l 597 293 q 492 290 535 293 q 423 281 449 288 q 385 263 397 275 q 374 232 374 250 q 403 190 374 206 q 493 175 433 175 q 592 192 546 175 q 665 240 638 208 q 692 313 692 271 l 692 431 q 644 501 692 481 q 507 521 597 521 q 348 506 425 521 q 190 456 271 490 l 126 639 q 261 683 193 665 q 401 710 329 701 q 550 718 474 718 q 779 684 685 718 q 923 577 874 650 q 972 383 972 504 l 972 0 l 735 0 l 735 144 l 732 144 q 662 57 703 93 q 565 3 621 21 q 428 -15 508 -15 m 428 781 l 224 1086 l 422 1086 l 551 922 l 681 1086 l 879 1086 l 675 781 l 428 781 z "},"â":{"ha":1089,"x_min":92,"x_max":972,"o":"m 428 -15 q 254 16 331 -15 q 135 101 178 47 q 92 224 92 156 q 139 333 92 286 q 294 404 186 379 q 582 429 401 429 l 728 429 l 728 293 l 597 293 q 492 290 535 293 q 423 281 449 288 q 385 263 397 275 q 374 232 374 250 q 403 190 374 206 q 493 175 433 175 q 592 192 546 175 q 665 240 638 208 q 692 313 692 271 l 692 431 q 644 501 692 481 q 507 521 597 521 q 348 506 425 521 q 190 456 271 490 l 126 639 q 261 683 193 665 q 401 710 329 701 q 550 718 474 718 q 779 684 685 718 q 923 577 874 650 q 972 383 972 504 l 972 0 l 735 0 l 735 144 l 732 144 q 662 57 703 93 q 565 3 621 21 q 428 -15 508 -15 m 224 783 l 428 1086 l 675 1086 l 879 783 l 681 783 l 551 946 l 422 783 l 224 783 z "},"ấ":{"ha":1089,"x_min":92,"x_max":1093,"o":"m 428 -15 q 254 16 331 -15 q 135 101 178 47 q 92 224 92 156 q 139 333 92 286 q 294 404 186 379 q 582 429 401 429 l 728 429 l 728 293 l 597 293 q 492 290 535 293 q 423 281 449 288 q 385 263 397 275 q 374 232 374 250 q 403 190 374 206 q 493 175 433 175 q 592 192 546 175 q 665 240 638 208 q 692 313 692 271 l 692 431 q 644 501 692 481 q 507 521 597 521 q 348 506 425 521 q 190 456 271 490 l 126 639 q 261 683 193 665 q 401 710 329 701 q 550 718 474 718 q 779 684 685 718 q 923 577 874 650 q 972 383 972 504 l 972 0 l 735 0 l 735 144 l 732 144 q 662 57 703 93 q 565 3 621 21 q 428 -15 508 -15 m 226 792 l 431 1071 l 668 1071 l 872 792 l 678 792 l 549 936 l 419 792 l 226 792 m 760 988 l 869 1200 l 1093 1200 l 915 988 l 760 988 z "},"ậ":{"ha":1089,"x_min":92,"x_max":972,"o":"m 428 -15 q 254 16 331 -15 q 135 101 178 47 q 92 224 92 156 q 139 333 92 286 q 294 404 186 379 q 582 429 401 429 l 728 429 l 728 293 l 597 293 q 492 290 535 293 q 423 281 449 288 q 385 263 397 275 q 374 232 374 250 q 403 190 374 206 q 493 175 433 175 q 592 192 546 175 q 665 240 638 208 q 692 313 692 271 l 692 431 q 644 501 692 481 q 507 521 597 521 q 348 506 425 521 q 190 456 271 490 l 126 639 q 261 683 193 665 q 401 710 329 701 q 550 718 474 718 q 779 684 685 718 q 923 577 874 650 q 972 383 972 504 l 972 0 l 735 0 l 735 144 l 732 144 q 662 57 703 93 q 565 3 621 21 q 428 -15 508 -15 m 394 -326 l 394 -94 l 642 -94 l 642 -326 l 394 -326 m 224 783 l 428 1086 l 675 1086 l 879 783 l 681 783 l 551 946 l 422 783 l 224 783 z "},"ầ":{"ha":1089,"x_min":92,"x_max":979,"o":"m 428 -15 q 254 16 331 -15 q 135 101 178 47 q 92 224 92 156 q 139 333 92 286 q 294 404 186 379 q 582 429 401 429 l 728 429 l 728 293 l 597 293 q 492 290 535 293 q 423 281 449 288 q 385 263 397 275 q 374 232 374 250 q 403 190 374 206 q 493 175 433 175 q 592 192 546 175 q 665 240 638 208 q 692 313 692 271 l 692 431 q 644 501 692 481 q 507 521 597 521 q 348 506 425 521 q 190 456 271 490 l 126 639 q 261 683 193 665 q 401 710 329 701 q 550 718 474 718 q 779 684 685 718 q 923 577 874 650 q 972 383 972 504 l 972 0 l 735 0 l 735 144 l 732 144 q 662 57 703 93 q 565 3 621 21 q 428 -15 508 -15 m 226 792 l 431 1071 l 669 1071 l 874 792 l 679 792 l 550 936 l 421 792 l 226 792 m 824 988 l 647 1200 l 871 1200 l 981 988 l 824 988 z "},"ẩ":{"ha":1089,"x_min":92,"x_max":1035,"o":"m 428 -15 q 254 16 331 -15 q 135 101 178 47 q 92 224 92 156 q 139 333 92 286 q 294 404 186 379 q 582 429 401 429 l 728 429 l 728 293 l 597 293 q 492 290 535 293 q 423 281 449 288 q 385 263 397 275 q 374 232 374 250 q 403 190 374 206 q 493 175 433 175 q 592 192 546 175 q 665 240 638 208 q 692 313 692 271 l 692 431 q 644 501 692 481 q 507 521 597 521 q 348 506 425 521 q 190 456 271 490 l 126 639 q 261 683 193 665 q 401 710 329 701 q 550 718 474 718 q 779 684 685 718 q 923 577 874 650 q 972 383 972 504 l 972 0 l 735 0 l 735 144 l 732 144 q 662 57 703 93 q 565 3 621 21 q 428 -15 508 -15 m 226 801 l 431 1081 l 669 1081 l 874 801 l 679 801 l 550 946 l 421 801 l 226 801 m 775 997 q 782 1031 772 1017 q 806 1058 792 1046 q 831 1081 821 1071 q 842 1100 842 1090 q 831 1115 842 1111 q 793 1119 819 1119 q 749 1115 769 1119 q 700 1100 729 1111 l 667 1196 q 751 1219 707 1213 q 850 1226 794 1226 q 988 1206 940 1226 q 1036 1142 1036 1185 q 1019 1095 1036 1114 q 982 1062 1003 1076 q 946 1033 961 1047 q 932 997 931 1018 l 775 997 z "},"ẫ":{"ha":1089,"x_min":92,"x_max":972,"o":"m 428 -15 q 254 16 331 -15 q 135 101 178 47 q 92 224 92 156 q 139 333 92 286 q 294 404 186 379 q 582 429 401 429 l 728 429 l 728 293 l 597 293 q 492 290 535 293 q 423 281 449 288 q 385 263 397 275 q 374 232 374 250 q 403 190 374 206 q 493 175 433 175 q 592 192 546 175 q 665 240 638 208 q 692 313 692 271 l 692 431 q 644 501 692 481 q 507 521 597 521 q 348 506 425 521 q 190 456 271 490 l 126 639 q 261 683 193 665 q 401 710 329 701 q 550 718 474 718 q 779 684 685 718 q 923 577 874 650 q 972 383 972 504 l 972 0 l 735 0 l 735 144 l 732 144 q 662 57 703 93 q 565 3 621 21 q 428 -15 508 -15 m 228 792 l 432 1028 l 671 1028 l 875 792 l 672 792 l 551 913 l 431 792 l 228 792 m 353 1063 l 217 1068 q 241 1164 222 1124 q 302 1228 260 1204 q 418 1251 344 1251 q 503 1240 464 1251 q 574 1219 543 1228 q 620 1206 593 1215 q 678 1197 647 1197 q 729 1213 713 1197 q 751 1251 746 1229 l 886 1244 q 833 1112 879 1163 q 676 1061 788 1061 q 594 1072 629 1061 q 532 1090 558 1082 q 478 1108 503 1101 q 426 1115 453 1115 q 380 1101 401 1115 q 353 1063 358 1088 z "},"ȁ":{"ha":1089,"x_min":92,"x_max":972,"o":"m 428 -15 q 254 16 331 -15 q 135 101 178 47 q 92 224 92 156 q 139 333 92 286 q 294 404 186 379 q 582 429 401 429 l 728 429 l 728 293 l 597 293 q 492 290 535 293 q 423 281 449 288 q 385 263 397 275 q 374 232 374 250 q 403 190 374 206 q 493 175 433 175 q 592 192 546 175 q 665 240 638 208 q 692 313 692 271 l 692 431 q 644 501 692 481 q 507 521 597 521 q 348 506 425 521 q 190 456 271 490 l 126 639 q 261 683 193 665 q 401 710 329 701 q 550 718 474 718 q 779 684 685 718 q 923 577 874 650 q 972 383 972 504 l 972 0 l 735 0 l 735 144 l 732 144 q 662 57 703 93 q 565 3 621 21 q 428 -15 508 -15 m 628 781 l 467 1086 l 706 1086 l 783 781 l 628 781 m 329 781 l 168 1086 l 406 1086 l 483 781 l 329 781 z "},"ä":{"ha":1089,"x_min":92,"x_max":972,"o":"m 428 -15 q 254 16 331 -15 q 135 101 178 47 q 92 224 92 156 q 139 333 92 286 q 294 404 186 379 q 582 429 401 429 l 728 429 l 728 293 l 597 293 q 492 290 535 293 q 423 281 449 288 q 385 263 397 275 q 374 232 374 250 q 403 190 374 206 q 493 175 433 175 q 592 192 546 175 q 665 240 638 208 q 692 313 692 271 l 692 431 q 644 501 692 481 q 507 521 597 521 q 348 506 425 521 q 190 456 271 490 l 126 639 q 261 683 193 665 q 401 710 329 701 q 550 718 474 718 q 779 684 685 718 q 923 577 874 650 q 972 383 972 504 l 972 0 l 735 0 l 735 144 l 732 144 q 662 57 703 93 q 565 3 621 21 q 428 -15 508 -15 m 625 804 l 625 1049 l 882 1049 l 882 804 l 625 804 m 221 804 l 221 1049 l 478 1049 l 478 804 l 221 804 z "},"ȧ":{"ha":1089,"x_min":92,"x_max":972,"o":"m 428 -15 q 254 16 331 -15 q 135 101 178 47 q 92 224 92 156 q 139 333 92 286 q 294 404 186 379 q 582 429 401 429 l 728 429 l 728 293 l 597 293 q 492 290 535 293 q 423 281 449 288 q 385 263 397 275 q 374 232 374 250 q 403 190 374 206 q 493 175 433 175 q 592 192 546 175 q 665 240 638 208 q 692 313 692 271 l 692 431 q 644 501 692 481 q 507 521 597 521 q 348 506 425 521 q 190 456 271 490 l 126 639 q 261 683 193 665 q 401 710 329 701 q 550 718 474 718 q 779 684 685 718 q 923 577 874 650 q 972 383 972 504 l 972 0 l 735 0 l 735 144 l 732 144 q 662 57 703 93 q 565 3 621 21 q 428 -15 508 -15 m 428 818 l 428 1051 l 675 1051 l 675 818 l 428 818 z "},"ạ":{"ha":1089,"x_min":92,"x_max":972,"o":"m 428 -15 q 254 16 331 -15 q 135 101 178 47 q 92 224 92 156 q 139 333 92 286 q 294 404 186 379 q 582 429 401 429 l 728 429 l 728 293 l 597 293 q 492 290 535 293 q 423 281 449 288 q 385 263 397 275 q 374 232 374 250 q 403 190 374 206 q 493 175 433 175 q 592 192 546 175 q 665 240 638 208 q 692 313 692 271 l 692 431 q 644 501 692 481 q 507 521 597 521 q 348 506 425 521 q 190 456 271 490 l 126 639 q 261 683 193 665 q 401 710 329 701 q 550 718 474 718 q 779 684 685 718 q 923 577 874 650 q 972 383 972 504 l 972 0 l 735 0 l 735 144 l 732 144 q 662 57 703 93 q 565 3 621 21 q 428 -15 508 -15 m 394 -326 l 394 -94 l 642 -94 l 642 -326 l 394 -326 z "},"à":{"ha":1089,"x_min":92,"x_max":972,"o":"m 428 -15 q 254 16 331 -15 q 135 101 178 47 q 92 224 92 156 q 139 333 92 286 q 294 404 186 379 q 582 429 401 429 l 728 429 l 728 293 l 597 293 q 492 290 535 293 q 423 281 449 288 q 385 263 397 275 q 374 232 374 250 q 403 190 374 206 q 493 175 433 175 q 592 192 546 175 q 665 240 638 208 q 692 313 692 271 l 692 431 q 644 501 692 481 q 507 521 597 521 q 348 506 425 521 q 190 456 271 490 l 126 639 q 261 683 193 665 q 401 710 329 701 q 550 718 474 718 q 779 684 685 718 q 923 577 874 650 q 972 383 972 504 l 972 0 l 735 0 l 735 144 l 732 144 q 662 57 703 93 q 565 3 621 21 q 428 -15 508 -15 m 460 792 l 199 1085 l 486 1085 l 664 792 l 460 792 z "},"ả":{"ha":1089,"x_min":92,"x_max":972,"o":"m 428 -15 q 254 16 331 -15 q 135 101 178 47 q 92 224 92 156 q 139 333 92 286 q 294 404 186 379 q 582 429 401 429 l 728 429 l 728 293 l 597 293 q 492 290 535 293 q 423 281 449 288 q 385 263 397 275 q 374 232 374 250 q 403 190 374 206 q 493 175 433 175 q 592 192 546 175 q 665 240 638 208 q 692 313 692 271 l 692 431 q 644 501 692 481 q 507 521 597 521 q 348 506 425 521 q 190 456 271 490 l 126 639 q 261 683 193 665 q 401 710 329 701 q 550 718 474 718 q 779 684 685 718 q 923 577 874 650 q 972 383 972 504 l 972 0 l 735 0 l 735 144 l 732 144 q 662 57 703 93 q 565 3 621 21 q 428 -15 508 -15 m 457 792 l 457 821 q 472 865 457 847 q 505 896 486 883 q 538 921 524 908 q 553 950 553 933 q 536 974 553 967 q 485 981 519 981 q 430 974 457 981 q 376 957 403 968 l 328 1071 q 433 1101 374 1090 q 560 1113 493 1113 q 733 1081 675 1113 q 792 994 792 1050 q 769 931 792 956 q 718 891 747 907 q 667 857 689 875 q 644 811 644 839 l 644 792 l 457 792 z "},"ȃ":{"ha":1089,"x_min":92,"x_max":972,"o":"m 428 -15 q 254 16 331 -15 q 135 101 178 47 q 92 224 92 156 q 139 333 92 286 q 294 404 186 379 q 582 429 401 429 l 728 429 l 728 293 l 597 293 q 492 290 535 293 q 423 281 449 288 q 385 263 397 275 q 374 232 374 250 q 403 190 374 206 q 493 175 433 175 q 592 192 546 175 q 665 240 638 208 q 692 313 692 271 l 692 431 q 644 501 692 481 q 507 521 597 521 q 348 506 425 521 q 190 456 271 490 l 126 639 q 261 683 193 665 q 401 710 329 701 q 550 718 474 718 q 779 684 685 718 q 923 577 874 650 q 972 383 972 504 l 972 0 l 735 0 l 735 144 l 732 144 q 662 57 703 93 q 565 3 621 21 q 428 -15 508 -15 m 403 781 l 233 794 q 273 958 240 890 q 374 1061 306 1025 q 551 1097 442 1097 q 730 1061 663 1097 q 831 958 797 1025 q 868 794 864 890 l 700 781 q 657 890 690 856 q 551 925 624 925 q 445 890 478 925 q 403 781 413 856 z "},"ā":{"ha":1089,"x_min":92,"x_max":972,"o":"m 428 -15 q 254 16 331 -15 q 135 101 178 47 q 92 224 92 156 q 139 333 92 286 q 294 404 186 379 q 582 429 401 429 l 728 429 l 728 293 l 597 293 q 492 290 535 293 q 423 281 449 288 q 385 263 397 275 q 374 232 374 250 q 403 190 374 206 q 493 175 433 175 q 592 192 546 175 q 665 240 638 208 q 692 313 692 271 l 692 431 q 644 501 692 481 q 507 521 597 521 q 348 506 425 521 q 190 456 271 490 l 126 639 q 261 683 193 665 q 401 710 329 701 q 550 718 474 718 q 779 684 685 718 q 923 577 874 650 q 972 383 972 504 l 972 0 l 735 0 l 735 144 l 732 144 q 662 57 703 93 q 565 3 621 21 q 428 -15 508 -15 m 238 835 l 238 1018 l 865 1018 l 865 835 l 238 835 z "},"ą":{"ha":1089,"x_min":92,"x_max":1043,"o":"m 428 -15 q 254 16 331 -15 q 135 101 178 47 q 92 224 92 156 q 139 333 92 286 q 294 404 186 379 q 582 429 401 429 l 728 429 l 728 293 l 597 293 q 492 290 535 293 q 423 281 449 288 q 385 263 397 275 q 374 232 374 250 q 403 190 374 206 q 493 175 433 175 q 592 192 546 175 q 665 240 638 208 q 692 313 692 271 l 692 431 q 644 501 692 481 q 507 521 597 521 q 348 506 425 521 q 190 456 271 490 l 126 639 q 261 683 193 665 q 401 710 329 701 q 550 718 474 718 q 779 684 685 718 q 923 577 874 650 q 972 383 972 504 l 972 0 l 735 0 l 735 144 l 732 144 q 662 57 703 93 q 565 3 621 21 q 428 -15 508 -15 m 883 -290 q 713 -255 771 -290 q 654 -153 654 -219 q 701 -34 654 -90 q 846 68 747 22 l 931 0 q 878 -33 900 -17 q 846 -65 857 -49 q 835 -99 835 -81 q 856 -135 835 -124 q 918 -146 878 -146 q 964 -142 942 -146 q 1011 -132 986 -139 l 1043 -265 q 963 -285 999 -279 q 883 -290 926 -290 z "},"å":{"ha":1089,"x_min":92,"x_max":972,"o":"m 428 -15 q 254 16 331 -15 q 135 101 178 47 q 92 224 92 156 q 139 333 92 286 q 294 404 186 379 q 582 429 401 429 l 728 429 l 728 293 l 597 293 q 492 290 535 293 q 423 281 449 288 q 385 263 397 275 q 374 232 374 250 q 403 190 374 206 q 493 175 433 175 q 592 192 546 175 q 665 240 638 208 q 692 313 692 271 l 692 431 q 644 501 692 481 q 507 521 597 521 q 348 506 425 521 q 190 456 271 490 l 126 639 q 261 683 193 665 q 401 710 329 701 q 550 718 474 718 q 779 684 685 718 q 923 577 874 650 q 972 383 972 504 l 972 0 l 735 0 l 735 144 l 732 144 q 662 57 703 93 q 565 3 621 21 q 428 -15 508 -15 m 551 781 q 434 808 485 781 q 353 881 383 835 q 324 985 324 928 q 353 1089 324 1043 q 435 1163 383 1135 q 551 1190 486 1190 q 668 1163 617 1190 q 749 1089 719 1135 q 778 985 778 1043 q 749 881 778 926 q 668 808 719 835 q 551 781 617 781 m 551 886 q 624 914 597 886 q 650 986 650 942 q 624 1057 650 1029 q 551 1085 597 1085 q 480 1057 507 1085 q 453 986 453 1029 q 479 914 453 942 q 551 886 506 886 z "},"ǻ":{"ha":1089,"x_min":92,"x_max":985,"o":"m 428 -15 q 254 16 331 -15 q 135 101 178 47 q 92 224 92 156 q 139 333 92 286 q 294 404 186 379 q 582 429 401 429 l 728 429 l 728 293 l 597 293 q 492 290 535 293 q 423 281 449 288 q 385 263 397 275 q 374 232 374 250 q 403 190 374 206 q 493 175 433 175 q 592 192 546 175 q 665 240 638 208 q 692 313 692 271 l 692 431 q 644 501 692 481 q 507 521 597 521 q 348 506 425 521 q 190 456 271 490 l 126 639 q 261 683 193 665 q 401 710 329 701 q 550 718 474 718 q 779 684 685 718 q 923 577 874 650 q 972 383 972 504 l 972 0 l 735 0 l 735 144 l 732 144 q 662 57 703 93 q 565 3 621 21 q 428 -15 508 -15 m 551 767 q 428 795 482 767 q 345 872 375 824 q 315 981 315 921 q 345 1091 315 1043 q 428 1167 375 1139 q 551 1196 482 1196 q 608 1191 581 1196 q 658 1175 635 1186 l 749 1269 l 983 1269 l 765 1078 q 782 1033 776 1057 q 788 982 788 1008 q 758 872 788 921 q 674 795 728 824 q 551 767 621 767 m 551 882 q 624 910 597 882 q 650 981 650 938 q 624 1054 650 1026 q 551 1082 597 1082 q 480 1054 507 1082 q 453 981 453 1026 q 480 910 453 939 q 551 882 507 882 z "},"ã":{"ha":1089,"x_min":92,"x_max":972,"o":"m 428 -15 q 254 16 331 -15 q 135 101 178 47 q 92 224 92 156 q 139 333 92 286 q 294 404 186 379 q 582 429 401 429 l 728 429 l 728 293 l 597 293 q 492 290 535 293 q 423 281 449 288 q 385 263 397 275 q 374 232 374 250 q 403 190 374 206 q 493 175 433 175 q 592 192 546 175 q 665 240 638 208 q 692 313 692 271 l 692 431 q 644 501 692 481 q 507 521 597 521 q 348 506 425 521 q 190 456 271 490 l 126 639 q 261 683 193 665 q 401 710 329 701 q 550 718 474 718 q 779 684 685 718 q 923 577 874 650 q 972 383 972 504 l 972 0 l 735 0 l 735 144 l 732 144 q 662 57 703 93 q 565 3 621 21 q 428 -15 508 -15 m 344 803 l 193 811 q 258 991 201 922 q 414 1060 315 1060 q 504 1041 468 1060 q 565 1010 540 1022 q 615 986 588 1000 q 676 972 643 972 q 733 995 717 972 q 757 1063 749 1018 l 910 1056 q 845 873 903 940 q 688 806 788 806 q 599 824 635 806 q 538 854 564 842 q 486 880 514 865 q 425 894 458 894 q 369 872 385 894 q 344 803 354 849 z "},"æ":{"ha":1658,"x_min":92,"x_max":1599,"o":"m 431 -15 q 256 15 333 -15 q 135 98 179 44 q 92 222 92 151 q 147 344 92 297 q 310 414 201 392 q 576 436 418 436 l 740 436 l 740 301 l 603 301 q 472 296 524 301 q 397 276 421 290 q 374 232 374 261 q 408 188 374 200 q 490 175 443 175 q 595 192 550 175 q 667 241 640 210 q 693 308 693 272 l 693 432 q 647 500 693 479 q 508 521 600 521 q 341 503 419 521 q 190 456 263 486 l 126 639 q 258 683 192 665 q 397 709 325 700 q 547 718 468 718 q 731 694 658 718 q 849 633 803 669 l 865 633 q 995 695 917 672 q 1160 718 1074 718 q 1388 675 1289 718 q 1543 549 1488 632 q 1599 349 1599 467 l 1599 278 l 910 278 l 910 424 l 1385 424 l 1354 403 q 1331 476 1353 446 q 1268 522 1308 506 q 1169 538 1228 538 q 1020 496 1072 538 q 968 390 968 454 l 968 347 q 1031 228 968 268 q 1242 188 1093 188 q 1392 199 1322 188 q 1507 226 1461 210 l 1571 47 q 1418 1 1513 17 q 1207 -15 1324 -15 q 1022 1 1101 -15 q 882 49 942 17 q 776 129 822 82 l 806 129 q 715 49 768 82 q 590 1 661 17 q 431 -15 518 -15 z "},"ǽ":{"ha":1658,"x_min":92,"x_max":1599,"o":"m 431 -15 q 256 15 333 -15 q 135 98 179 44 q 92 222 92 151 q 147 344 92 297 q 310 414 201 392 q 576 436 418 436 l 740 436 l 740 301 l 603 301 q 472 296 524 301 q 397 276 421 290 q 374 232 374 261 q 408 188 374 200 q 490 175 443 175 q 595 192 550 175 q 667 241 640 210 q 693 308 693 272 l 693 432 q 647 500 693 479 q 508 521 600 521 q 341 503 419 521 q 190 456 263 486 l 126 639 q 258 683 192 665 q 397 709 325 700 q 547 718 468 718 q 731 694 658 718 q 849 633 803 669 l 865 633 q 995 695 917 672 q 1160 718 1074 718 q 1388 675 1289 718 q 1543 549 1488 632 q 1599 349 1599 467 l 1599 278 l 910 278 l 910 424 l 1385 424 l 1354 403 q 1331 476 1353 446 q 1268 522 1308 506 q 1169 538 1228 538 q 1020 496 1072 538 q 968 390 968 454 l 968 347 q 1031 228 968 268 q 1242 188 1093 188 q 1392 199 1322 188 q 1507 226 1461 210 l 1571 47 q 1418 1 1513 17 q 1207 -15 1324 -15 q 1022 1 1101 -15 q 882 49 942 17 q 776 129 822 82 l 806 129 q 715 49 768 82 q 590 1 661 17 q 431 -15 518 -15 m 757 781 l 935 1086 l 1222 1086 l 961 781 l 757 781 z "},"b":{"ha":1154,"x_min":118,"x_max":1079,"o":"m 683 -15 q 510 17 588 -15 q 381 122 433 50 l 379 122 l 379 0 l 118 0 l 118 979 l 410 979 l 410 599 l 410 599 q 526 687 456 656 q 690 718 596 718 q 901 669 814 718 q 1033 537 988 619 q 1079 353 1079 454 q 1033 164 1079 247 q 899 33 988 81 q 683 -15 810 -15 m 600 197 q 746 243 699 197 q 793 353 793 289 q 746 461 793 417 q 599 506 699 506 q 453 461 501 506 q 406 353 406 417 q 454 243 406 289 q 600 197 503 197 z "},"ɓ":{"ha":1154,"x_min":118,"x_max":1079,"o":"m 683 -15 q 510 17 588 -15 q 381 122 433 50 l 379 122 l 379 0 l 118 0 l 118 682 q 160 849 118 779 q 286 957 201 919 q 499 994 371 994 q 575 991 539 994 q 640 979 611 988 l 615 781 q 583 786 600 785 q 546 788 567 788 q 432 760 469 788 q 394 669 394 732 l 394 599 l 394 599 q 519 685 444 653 q 690 718 593 718 q 900 669 813 718 q 1033 537 988 619 q 1079 353 1079 454 q 1033 164 1079 247 q 899 33 988 81 q 683 -15 810 -15 m 600 197 q 746 243 699 197 q 793 353 793 289 q 746 461 793 417 q 599 506 699 506 q 453 461 501 506 q 406 353 406 417 q 453 243 406 289 q 600 197 501 197 z "},"c":{"ha":906,"x_min":75,"x_max":876,"o":"m 538 -15 q 292 31 396 -15 q 132 160 189 78 q 75 349 75 242 q 132 542 75 458 q 292 672 189 625 q 538 718 396 718 q 735 696 646 718 q 876 639 824 674 l 796 438 q 689 478 747 464 q 571 493 631 493 q 416 455 469 493 q 363 350 363 417 q 416 246 363 282 q 569 210 469 210 q 687 224 631 210 q 794 265 743 239 l 876 64 q 733 6 821 28 q 538 -15 646 -15 z "},"ć":{"ha":906,"x_min":75,"x_max":881,"o":"m 538 -15 q 292 31 396 -15 q 132 160 189 78 q 75 349 75 242 q 132 542 75 458 q 292 672 189 625 q 538 718 396 718 q 735 696 646 718 q 876 639 824 674 l 796 438 q 689 478 747 464 q 571 493 631 493 q 416 455 469 493 q 363 350 363 417 q 416 246 363 282 q 569 210 469 210 q 687 224 631 210 q 794 265 743 239 l 876 64 q 733 6 821 28 q 538 -15 646 -15 m 415 781 l 593 1086 l 881 1086 l 619 781 l 415 781 z "},"č":{"ha":906,"x_min":75,"x_max":876,"o":"m 538 -15 q 292 31 396 -15 q 132 160 189 78 q 75 349 75 242 q 132 542 75 458 q 292 672 189 625 q 538 718 396 718 q 735 696 646 718 q 876 639 824 674 l 796 438 q 689 478 747 464 q 571 493 631 493 q 416 455 469 493 q 363 350 363 417 q 416 246 363 282 q 569 210 469 210 q 687 224 631 210 q 794 265 743 239 l 876 64 q 733 6 821 28 q 538 -15 646 -15 m 404 781 l 200 1086 l 399 1086 l 528 922 l 657 1086 l 856 1086 l 651 781 l 404 781 z "},"ç":{"ha":906,"x_min":75,"x_max":876,"o":"m 538 -15 q 292 31 396 -15 q 132 160 189 78 q 75 349 75 242 q 132 542 75 458 q 292 672 189 625 q 538 718 396 718 q 735 696 646 718 q 876 639 824 674 l 796 438 q 689 478 747 464 q 571 493 631 493 q 416 455 469 493 q 363 350 363 417 q 416 246 363 282 q 569 210 469 210 q 687 224 631 210 q 794 265 743 239 l 876 64 q 733 6 821 28 q 538 -15 646 -15 m 551 -290 q 440 -283 499 -290 q 343 -258 382 -275 l 386 -153 q 463 -176 424 -167 q 558 -185 501 -185 q 619 -178 601 -185 q 638 -156 638 -172 q 615 -131 638 -136 q 561 -125 593 -125 q 522 -126 549 -125 q 476 -131 496 -128 l 442 -97 l 460 28 l 588 28 l 571 -90 l 514 -57 q 570 -47 539 -50 q 639 -43 601 -43 q 717 -53 681 -43 q 777 -88 754 -62 q 800 -158 800 -114 q 771 -237 800 -208 q 686 -278 742 -267 q 551 -290 631 -290 z "},"ḉ":{"ha":906,"x_min":75,"x_max":881,"o":"m 538 -15 q 292 31 396 -15 q 132 160 189 78 q 75 349 75 242 q 132 542 75 458 q 292 672 189 625 q 538 718 396 718 q 735 696 646 718 q 876 639 824 674 l 796 438 q 689 478 747 464 q 571 493 631 493 q 416 455 469 493 q 363 350 363 417 q 416 246 363 282 q 569 210 469 210 q 687 224 631 210 q 794 265 743 239 l 876 64 q 733 6 821 28 q 538 -15 646 -15 m 551 -290 q 440 -283 499 -290 q 343 -258 382 -275 l 386 -153 q 463 -176 424 -167 q 558 -185 501 -185 q 619 -178 601 -185 q 638 -156 638 -172 q 615 -131 638 -136 q 561 -125 593 -125 q 522 -126 549 -125 q 476 -131 496 -128 l 442 -97 l 460 28 l 588 28 l 571 -90 l 514 -57 q 570 -47 539 -50 q 639 -43 601 -43 q 717 -53 681 -43 q 777 -88 754 -62 q 800 -158 800 -114 q 771 -237 800 -208 q 686 -278 742 -267 q 551 -290 631 -290 m 415 781 l 593 1086 l 881 1086 l 619 781 l 415 781 z "},"ĉ":{"ha":906,"x_min":75,"x_max":876,"o":"m 538 -15 q 292 31 396 -15 q 132 160 189 78 q 75 349 75 242 q 132 542 75 458 q 292 672 189 625 q 538 718 396 718 q 735 696 646 718 q 876 639 824 674 l 796 438 q 689 478 747 464 q 571 493 631 493 q 416 455 469 493 q 363 350 363 417 q 416 246 363 282 q 569 210 469 210 q 687 224 631 210 q 794 265 743 239 l 876 64 q 733 6 821 28 q 538 -15 646 -15 m 200 783 l 404 1086 l 651 1086 l 856 783 l 657 783 l 528 946 l 399 783 l 200 783 z "},"ċ":{"ha":906,"x_min":75,"x_max":876,"o":"m 538 -15 q 292 31 396 -15 q 132 160 189 78 q 75 349 75 242 q 132 542 75 458 q 292 672 189 625 q 538 718 396 718 q 735 696 646 718 q 876 639 824 674 l 796 438 q 689 478 747 464 q 571 493 631 493 q 416 455 469 493 q 363 350 363 417 q 416 246 363 282 q 569 210 469 210 q 687 224 631 210 q 794 265 743 239 l 876 64 q 733 6 821 28 q 538 -15 646 -15 m 404 818 l 404 1051 l 651 1051 l 651 818 l 404 818 z "},"d":{"ha":1154,"x_min":75,"x_max":1036,"o":"m 471 -15 q 256 33 343 -15 q 122 164 168 81 q 75 353 75 247 q 122 537 75 454 q 255 669 168 619 q 465 718 342 718 q 630 687 560 718 q 744 599 700 656 l 744 599 l 744 979 l 1036 979 l 1036 0 l 775 0 l 775 121 l 774 121 q 644 17 721 50 q 471 -15 567 -15 m 556 197 q 701 243 654 197 q 749 353 749 289 q 701 461 749 417 q 556 506 654 506 q 409 461 457 506 q 361 353 361 417 q 410 243 361 289 q 556 197 458 197 z "},"ð":{"ha":1101,"x_min":75,"x_max":1039,"o":"m 554 -15 q 301 21 408 -15 q 134 128 193 57 q 75 304 75 200 q 125 475 75 401 q 265 590 175 549 q 479 632 356 632 q 691 592 606 632 q 819 504 776 553 l 790 504 q 740 654 789 582 q 596 778 690 726 l 664 776 l 292 643 l 242 767 l 503 861 l 494 825 q 383 857 450 842 q 242 878 317 872 l 263 994 q 504 957 394 983 q 701 890 614 931 l 642 907 l 897 994 l 947 871 l 789 817 l 776 856 q 921 742 863 807 q 1009 592 979 678 q 1039 400 1039 507 q 981 175 1039 268 q 814 33 922 82 q 554 -15 706 -15 m 554 192 q 696 220 643 192 q 749 306 749 249 q 695 393 749 363 q 556 424 642 424 q 413 393 465 424 q 361 306 361 363 q 413 222 361 251 q 554 192 464 192 z "},"ď":{"ha":1154,"x_min":75,"x_max":1319,"o":"m 471 -15 q 256 33 343 -15 q 122 164 168 81 q 75 353 75 247 q 122 537 75 454 q 255 669 168 619 q 465 718 342 718 q 630 687 560 718 q 744 599 700 656 l 744 599 l 744 979 l 1036 979 l 1036 0 l 775 0 l 775 121 l 774 121 q 644 17 721 50 q 471 -15 567 -15 m 556 197 q 701 243 654 197 q 749 353 749 289 q 701 461 749 417 q 556 506 654 506 q 409 461 457 506 q 361 353 361 417 q 410 243 361 289 q 556 197 458 197 m 1115 696 l 1117 979 l 1319 979 l 1271 696 l 1115 696 z "},"đ":{"ha":1167,"x_min":75,"x_max":1165,"o":"m 476 -15 q 255 32 343 -15 q 121 158 167 79 q 75 331 75 236 q 120 506 75 426 q 253 633 165 585 q 469 681 342 681 q 642 651 575 681 q 743 564 708 622 l 743 564 l 743 742 l 440 742 l 440 908 l 743 908 l 743 979 l 1035 979 l 1035 913 l 1165 913 l 1165 742 l 1035 742 l 1035 0 l 774 0 l 774 124 l 772 124 q 658 19 732 54 q 476 -15 583 -15 m 556 185 q 701 226 653 185 q 749 331 749 268 q 701 435 749 393 q 556 476 653 476 q 449 457 492 476 q 383 404 406 438 q 361 331 361 371 q 411 227 361 269 q 556 185 461 185 z "},"ḍ":{"ha":1154,"x_min":75,"x_max":1036,"o":"m 471 -15 q 256 33 343 -15 q 122 164 168 81 q 75 353 75 247 q 122 537 75 454 q 255 669 168 619 q 465 718 342 718 q 630 687 560 718 q 744 599 700 656 l 744 599 l 744 979 l 1036 979 l 1036 0 l 775 0 l 775 121 l 774 121 q 644 17 721 50 q 471 -15 567 -15 m 556 197 q 701 243 654 197 q 749 353 749 289 q 701 461 749 417 q 556 506 654 506 q 409 461 457 506 q 361 353 361 417 q 410 243 361 289 q 556 197 458 197 m 424 -326 l 424 -94 l 671 -94 l 671 -326 l 424 -326 z "},"ɗ":{"ha":1154,"x_min":75,"x_max":1265,"o":"m 471 -15 q 256 33 343 -15 q 122 164 168 81 q 75 351 75 247 q 122 537 75 454 q 254 669 168 619 q 464 718 340 718 q 629 687 558 718 q 742 600 700 656 l 743 600 l 743 683 q 788 851 743 782 q 918 958 833 921 q 1124 994 1003 994 q 1199 991 1164 994 q 1265 978 1233 988 l 1240 768 q 1208 775 1225 774 q 1171 776 1190 776 q 1067 750 1100 776 q 1035 669 1035 724 l 1035 0 l 774 0 l 774 119 l 769 119 q 644 17 721 49 q 471 -15 567 -15 m 556 197 q 700 243 653 197 q 747 353 747 289 q 700 461 747 417 q 554 506 653 506 q 410 461 460 506 q 361 353 361 417 q 410 244 361 290 q 556 197 460 197 z "},"ḏ":{"ha":1154,"x_min":75,"x_max":1036,"o":"m 471 -15 q 256 33 343 -15 q 122 164 168 81 q 75 353 75 247 q 122 537 75 454 q 255 669 168 619 q 465 718 342 718 q 630 687 560 718 q 744 599 700 656 l 744 599 l 744 979 l 1036 979 l 1036 0 l 775 0 l 775 121 l 774 121 q 644 17 721 50 q 471 -15 567 -15 m 556 197 q 701 243 654 197 q 749 353 749 289 q 701 461 749 417 q 556 506 654 506 q 409 461 457 506 q 361 353 361 417 q 410 243 361 289 q 556 197 458 197 m 233 -283 l 233 -100 l 861 -100 l 861 -283 l 233 -283 z "},"ǆ":{"ha":2079,"x_min":75,"x_max":2019,"o":"m 471 -15 q 256 33 343 -15 q 122 164 168 81 q 75 353 75 247 q 122 537 75 454 q 255 669 168 619 q 465 718 342 718 q 630 687 560 718 q 744 599 700 656 l 744 599 l 744 979 l 1036 979 l 1036 0 l 775 0 l 775 121 l 774 121 q 644 17 721 50 q 471 -15 567 -15 m 556 197 q 701 243 654 197 q 749 353 749 289 q 701 461 749 417 q 556 506 654 506 q 409 461 457 506 q 361 353 361 417 q 410 243 361 289 q 556 197 458 197 m 1247 0 l 1247 197 l 1731 565 l 1721 499 l 1249 499 l 1249 703 l 2001 703 l 2001 514 l 1511 146 l 1521 204 l 2019 204 l 2019 0 l 1247 0 m 1507 781 l 1303 1086 l 1501 1086 l 1631 922 l 1760 1086 l 1958 1086 l 1754 781 l 1507 781 z "},"e":{"ha":1040,"x_min":75,"x_max":982,"o":"m 603 -15 q 311 29 429 -15 q 134 155 193 74 q 75 347 75 236 q 132 538 75 454 q 294 669 189 621 q 546 718 400 718 q 771 676 672 718 q 926 550 869 633 q 982 344 982 467 l 982 281 l 308 281 l 308 429 l 763 429 l 738 401 q 688 504 735 471 q 550 538 642 538 q 440 520 483 538 q 372 469 396 503 q 349 386 349 435 l 349 358 q 373 265 349 303 q 456 206 397 226 q 624 186 515 186 q 775 198 704 186 q 888 229 846 210 l 954 49 q 799 1 892 17 q 603 -15 707 -15 z "},"é":{"ha":1040,"x_min":75,"x_max":982,"o":"m 603 -15 q 311 29 429 -15 q 134 155 193 74 q 75 347 75 236 q 132 538 75 454 q 294 669 189 621 q 546 718 400 718 q 771 676 672 718 q 926 550 869 633 q 982 344 982 467 l 982 281 l 308 281 l 308 429 l 763 429 l 738 401 q 688 504 735 471 q 550 538 642 538 q 440 520 483 538 q 372 469 396 503 q 349 386 349 435 l 349 358 q 373 265 349 303 q 456 206 397 226 q 624 186 515 186 q 775 198 704 186 q 888 229 846 210 l 954 49 q 799 1 892 17 q 603 -15 707 -15 m 447 781 l 625 1086 l 913 1086 l 651 781 l 447 781 z "},"ĕ":{"ha":1040,"x_min":75,"x_max":982,"o":"m 603 -15 q 311 29 429 -15 q 134 155 193 74 q 75 347 75 236 q 132 538 75 454 q 294 669 189 621 q 546 718 400 718 q 771 676 672 718 q 926 550 869 633 q 982 344 982 467 l 982 281 l 308 281 l 308 429 l 763 429 l 738 401 q 688 504 735 471 q 550 538 642 538 q 440 520 483 538 q 372 469 396 503 q 349 386 349 435 l 349 358 q 373 265 349 303 q 456 206 397 226 q 624 186 515 186 q 775 198 704 186 q 888 229 846 210 l 954 49 q 799 1 892 17 q 603 -15 707 -15 m 560 781 q 381 817 450 781 q 281 922 313 854 q 242 1085 249 990 l 411 1097 q 453 988 421 1022 q 560 953 486 953 q 665 988 632 953 q 708 1097 699 1022 l 876 1085 q 839 922 872 990 q 738 817 806 854 q 560 781 671 781 z "},"ě":{"ha":1040,"x_min":75,"x_max":982,"o":"m 603 -15 q 311 29 429 -15 q 134 155 193 74 q 75 347 75 236 q 132 538 75 454 q 294 669 189 621 q 546 718 400 718 q 771 676 672 718 q 926 550 869 633 q 982 344 982 467 l 982 281 l 308 281 l 308 429 l 763 429 l 738 401 q 688 504 735 471 q 550 538 642 538 q 440 520 483 538 q 372 469 396 503 q 349 386 349 435 l 349 358 q 373 265 349 303 q 456 206 397 226 q 624 186 515 186 q 775 198 704 186 q 888 229 846 210 l 954 49 q 799 1 892 17 q 603 -15 707 -15 m 436 781 l 232 1086 l 431 1086 l 560 922 l 689 1086 l 888 1086 l 683 781 l 436 781 z "},"ḝ":{"ha":1040,"x_min":75,"x_max":982,"o":"m 603 -15 q 311 29 429 -15 q 134 155 193 74 q 75 347 75 236 q 132 538 75 454 q 294 669 189 621 q 546 718 400 718 q 771 676 672 718 q 926 550 869 633 q 982 344 982 467 l 982 281 l 308 281 l 308 429 l 763 429 l 738 401 q 688 504 735 471 q 550 538 642 538 q 440 520 483 538 q 372 469 396 503 q 349 386 349 435 l 349 358 q 373 265 349 303 q 456 206 397 226 q 624 186 515 186 q 775 198 704 186 q 888 229 846 210 l 954 49 q 799 1 892 17 q 603 -15 707 -15 m 551 -290 q 440 -283 499 -290 q 343 -258 382 -275 l 386 -153 q 463 -176 424 -167 q 558 -185 501 -185 q 619 -178 601 -185 q 638 -156 638 -172 q 615 -131 638 -136 q 561 -125 593 -125 q 522 -126 549 -125 q 476 -131 496 -128 l 442 -97 l 460 28 l 588 28 l 571 -90 l 514 -57 q 570 -47 539 -50 q 639 -43 601 -43 q 717 -53 681 -43 q 777 -88 754 -62 q 800 -158 800 -114 q 771 -237 800 -208 q 686 -278 742 -267 q 551 -290 631 -290 m 560 781 q 381 817 450 781 q 281 922 313 854 q 242 1085 249 990 l 411 1097 q 453 988 421 1022 q 560 953 486 953 q 665 988 632 953 q 708 1097 699 1022 l 876 1085 q 839 922 872 990 q 738 817 806 854 q 560 781 671 781 z "},"ê":{"ha":1040,"x_min":75,"x_max":982,"o":"m 603 -15 q 311 29 429 -15 q 134 155 193 74 q 75 347 75 236 q 132 538 75 454 q 294 669 189 621 q 546 718 400 718 q 771 676 672 718 q 926 550 869 633 q 982 344 982 467 l 982 281 l 308 281 l 308 429 l 763 429 l 738 401 q 688 504 735 471 q 550 538 642 538 q 440 520 483 538 q 372 469 396 503 q 349 386 349 435 l 349 358 q 373 265 349 303 q 456 206 397 226 q 624 186 515 186 q 775 198 704 186 q 888 229 846 210 l 954 49 q 799 1 892 17 q 603 -15 707 -15 m 232 783 l 436 1086 l 683 1086 l 888 783 l 689 783 l 560 946 l 431 783 l 232 783 z "},"ế":{"ha":1040,"x_min":75,"x_max":1101,"o":"m 603 -15 q 311 29 429 -15 q 134 155 193 74 q 75 347 75 236 q 132 538 75 454 q 294 669 189 621 q 546 718 400 718 q 771 676 672 718 q 926 550 869 633 q 982 344 982 467 l 982 281 l 308 281 l 308 429 l 763 429 l 738 401 q 688 504 735 471 q 550 538 642 538 q 440 520 483 538 q 372 469 396 503 q 349 386 349 435 l 349 358 q 373 265 349 303 q 456 206 397 226 q 624 186 515 186 q 775 198 704 186 q 888 229 846 210 l 954 49 q 799 1 892 17 q 603 -15 707 -15 m 235 792 l 439 1071 l 676 1071 l 881 792 l 686 792 l 557 936 l 428 792 l 235 792 m 768 988 l 878 1200 l 1101 1200 l 924 988 l 768 988 z "},"ệ":{"ha":1040,"x_min":75,"x_max":982,"o":"m 603 -15 q 311 29 429 -15 q 134 155 193 74 q 75 347 75 236 q 132 538 75 454 q 294 669 189 621 q 546 718 400 718 q 771 676 672 718 q 926 550 869 633 q 982 344 982 467 l 982 281 l 308 281 l 308 429 l 763 429 l 738 401 q 688 504 735 471 q 550 538 642 538 q 440 520 483 538 q 372 469 396 503 q 349 386 349 435 l 349 358 q 373 265 349 303 q 456 206 397 226 q 624 186 515 186 q 775 198 704 186 q 888 229 846 210 l 954 49 q 799 1 892 17 q 603 -15 707 -15 m 404 -326 l 404 -94 l 651 -94 l 651 -326 l 404 -326 m 232 783 l 436 1086 l 683 1086 l 888 783 l 689 783 l 560 946 l 431 783 l 232 783 z "},"ề":{"ha":1040,"x_min":75,"x_max":988,"o":"m 603 -15 q 311 29 429 -15 q 134 155 193 74 q 75 347 75 236 q 132 538 75 454 q 294 669 189 621 q 546 718 400 718 q 771 676 672 718 q 926 550 869 633 q 982 344 982 467 l 982 281 l 308 281 l 308 429 l 763 429 l 738 401 q 688 504 735 471 q 550 538 642 538 q 440 520 483 538 q 372 469 396 503 q 349 386 349 435 l 349 358 q 373 265 349 303 q 456 206 397 226 q 624 186 515 186 q 775 198 704 186 q 888 229 846 210 l 954 49 q 799 1 892 17 q 603 -15 707 -15 m 235 792 l 439 1071 l 678 1071 l 882 792 l 688 792 l 558 936 l 429 792 l 235 792 m 832 988 l 656 1200 l 879 1200 l 989 988 l 832 988 z "},"ể":{"ha":1040,"x_min":75,"x_max":1043,"o":"m 603 -15 q 311 29 429 -15 q 134 155 193 74 q 75 347 75 236 q 132 538 75 454 q 294 669 189 621 q 546 718 400 718 q 771 676 672 718 q 926 550 869 633 q 982 344 982 467 l 982 281 l 308 281 l 308 429 l 763 429 l 738 401 q 688 504 735 471 q 550 538 642 538 q 440 520 483 538 q 372 469 396 503 q 349 386 349 435 l 349 358 q 373 265 349 303 q 456 206 397 226 q 624 186 515 186 q 775 198 704 186 q 888 229 846 210 l 954 49 q 799 1 892 17 q 603 -15 707 -15 m 235 801 l 439 1081 l 678 1081 l 882 801 l 688 801 l 558 946 l 429 801 l 235 801 m 783 997 q 790 1031 781 1017 q 815 1058 800 1046 q 840 1081 829 1071 q 850 1100 850 1090 q 839 1115 850 1111 q 801 1119 828 1119 q 758 1115 778 1119 q 708 1100 738 1111 l 675 1196 q 759 1219 715 1213 q 858 1226 803 1226 q 997 1206 949 1226 q 1044 1142 1044 1185 q 1028 1095 1044 1114 q 990 1062 1011 1076 q 954 1033 969 1047 q 940 997 939 1018 l 783 997 z "},"ễ":{"ha":1040,"x_min":75,"x_max":982,"o":"m 603 -15 q 311 29 429 -15 q 134 155 193 74 q 75 347 75 236 q 132 538 75 454 q 294 669 189 621 q 546 718 400 718 q 771 676 672 718 q 926 550 869 633 q 982 344 982 467 l 982 281 l 308 281 l 308 429 l 763 429 l 738 401 q 688 504 735 471 q 550 538 642 538 q 440 520 483 538 q 372 469 396 503 q 349 386 349 435 l 349 358 q 373 265 349 303 q 456 206 397 226 q 624 186 515 186 q 775 198 704 186 q 888 229 846 210 l 954 49 q 799 1 892 17 q 603 -15 707 -15 m 236 792 l 440 1028 l 679 1028 l 883 792 l 681 792 l 560 913 l 439 792 l 236 792 m 361 1063 l 225 1068 q 249 1164 231 1124 q 310 1228 268 1204 q 426 1251 353 1251 q 512 1240 472 1251 q 582 1219 551 1228 q 628 1206 601 1215 q 686 1197 656 1197 q 738 1213 721 1197 q 760 1251 754 1229 l 894 1244 q 842 1112 888 1163 q 685 1061 796 1061 q 602 1072 638 1061 q 540 1090 567 1082 q 486 1108 511 1101 q 435 1115 461 1115 q 388 1101 410 1115 q 361 1063 367 1088 z "},"ȅ":{"ha":1040,"x_min":75,"x_max":982,"o":"m 603 -15 q 311 29 429 -15 q 134 155 193 74 q 75 347 75 236 q 132 538 75 454 q 294 669 189 621 q 546 718 400 718 q 771 676 672 718 q 926 550 869 633 q 982 344 982 467 l 982 281 l 308 281 l 308 429 l 763 429 l 738 401 q 688 504 735 471 q 550 538 642 538 q 440 520 483 538 q 372 469 396 503 q 349 386 349 435 l 349 358 q 373 265 349 303 q 456 206 397 226 q 624 186 515 186 q 775 198 704 186 q 888 229 846 210 l 954 49 q 799 1 892 17 q 603 -15 707 -15 m 636 781 l 475 1086 l 714 1086 l 792 781 l 636 781 m 338 781 l 176 1086 l 414 1086 l 492 781 l 338 781 z "},"ë":{"ha":1040,"x_min":75,"x_max":982,"o":"m 603 -15 q 311 29 429 -15 q 134 155 193 74 q 75 347 75 236 q 132 538 75 454 q 294 669 189 621 q 546 718 400 718 q 771 676 672 718 q 926 550 869 633 q 982 344 982 467 l 982 281 l 308 281 l 308 429 l 763 429 l 738 401 q 688 504 735 471 q 550 538 642 538 q 440 520 483 538 q 372 469 396 503 q 349 386 349 435 l 349 358 q 373 265 349 303 q 456 206 397 226 q 624 186 515 186 q 775 198 704 186 q 888 229 846 210 l 954 49 q 799 1 892 17 q 603 -15 707 -15 m 633 804 l 633 1049 l 890 1049 l 890 804 l 633 804 m 229 804 l 229 1049 l 486 1049 l 486 804 l 229 804 z "},"ė":{"ha":1040,"x_min":75,"x_max":982,"o":"m 603 -15 q 311 29 429 -15 q 134 155 193 74 q 75 347 75 236 q 132 538 75 454 q 294 669 189 621 q 546 718 400 718 q 771 676 672 718 q 926 550 869 633 q 982 344 982 467 l 982 281 l 308 281 l 308 429 l 763 429 l 738 401 q 688 504 735 471 q 550 538 642 538 q 440 520 483 538 q 372 469 396 503 q 349 386 349 435 l 349 358 q 373 265 349 303 q 456 206 397 226 q 624 186 515 186 q 775 198 704 186 q 888 229 846 210 l 954 49 q 799 1 892 17 q 603 -15 707 -15 m 436 818 l 436 1051 l 683 1051 l 683 818 l 436 818 z "},"ẹ":{"ha":1040,"x_min":75,"x_max":982,"o":"m 603 -15 q 311 29 429 -15 q 134 155 193 74 q 75 347 75 236 q 132 538 75 454 q 294 669 189 621 q 546 718 400 718 q 771 676 672 718 q 926 550 869 633 q 982 344 982 467 l 982 281 l 308 281 l 308 429 l 763 429 l 738 401 q 688 504 735 471 q 550 538 642 538 q 440 520 483 538 q 372 469 396 503 q 349 386 349 435 l 349 358 q 373 265 349 303 q 456 206 397 226 q 624 186 515 186 q 775 198 704 186 q 888 229 846 210 l 954 49 q 799 1 892 17 q 603 -15 707 -15 m 404 -326 l 404 -94 l 651 -94 l 651 -326 l 404 -326 z "},"è":{"ha":1040,"x_min":75,"x_max":982,"o":"m 603 -15 q 311 29 429 -15 q 134 155 193 74 q 75 347 75 236 q 132 538 75 454 q 294 669 189 621 q 546 718 400 718 q 771 676 672 718 q 926 550 869 633 q 982 344 982 467 l 982 281 l 308 281 l 308 429 l 763 429 l 738 401 q 688 504 735 471 q 550 538 642 538 q 440 520 483 538 q 372 469 396 503 q 349 386 349 435 l 349 358 q 373 265 349 303 q 456 206 397 226 q 624 186 515 186 q 775 198 704 186 q 888 229 846 210 l 954 49 q 799 1 892 17 q 603 -15 707 -15 m 468 792 l 207 1085 l 494 1085 l 672 792 l 468 792 z "},"ẻ":{"ha":1040,"x_min":75,"x_max":982,"o":"m 603 -15 q 311 29 429 -15 q 134 155 193 74 q 75 347 75 236 q 132 538 75 454 q 294 669 189 621 q 546 718 400 718 q 771 676 672 718 q 926 550 869 633 q 982 344 982 467 l 982 281 l 308 281 l 308 429 l 763 429 l 738 401 q 688 504 735 471 q 550 538 642 538 q 440 520 483 538 q 372 469 396 503 q 349 386 349 435 l 349 358 q 373 265 349 303 q 456 206 397 226 q 624 186 515 186 q 775 198 704 186 q 888 229 846 210 l 954 49 q 799 1 892 17 q 603 -15 707 -15 m 465 792 l 465 821 q 480 865 465 847 q 513 896 494 883 q 547 921 532 908 q 561 950 561 933 q 544 974 561 967 q 493 981 528 981 q 438 974 465 981 q 385 957 411 968 l 336 1071 q 442 1101 382 1090 q 568 1113 501 1113 q 742 1081 683 1113 q 800 994 800 1050 q 778 931 800 956 q 726 891 756 907 q 675 857 697 875 q 653 811 653 839 l 653 792 l 465 792 z "},"ȇ":{"ha":1040,"x_min":75,"x_max":982,"o":"m 603 -15 q 311 29 429 -15 q 134 155 193 74 q 75 347 75 236 q 132 538 75 454 q 294 669 189 621 q 546 718 400 718 q 771 676 672 718 q 926 550 869 633 q 982 344 982 467 l 982 281 l 308 281 l 308 429 l 763 429 l 738 401 q 688 504 735 471 q 550 538 642 538 q 440 520 483 538 q 372 469 396 503 q 349 386 349 435 l 349 358 q 373 265 349 303 q 456 206 397 226 q 624 186 515 186 q 775 198 704 186 q 888 229 846 210 l 954 49 q 799 1 892 17 q 603 -15 707 -15 m 411 781 l 242 794 q 281 958 249 890 q 382 1061 314 1025 q 560 1097 450 1097 q 738 1061 671 1097 q 839 958 806 1025 q 876 794 872 890 l 708 781 q 665 890 699 856 q 560 925 632 925 q 453 890 486 925 q 411 781 421 856 z "},"ē":{"ha":1040,"x_min":75,"x_max":982,"o":"m 603 -15 q 311 29 429 -15 q 134 155 193 74 q 75 347 75 236 q 132 538 75 454 q 294 669 189 621 q 546 718 400 718 q 771 676 672 718 q 926 550 869 633 q 982 344 982 467 l 982 281 l 308 281 l 308 429 l 763 429 l 738 401 q 688 504 735 471 q 550 538 642 538 q 440 520 483 538 q 372 469 396 503 q 349 386 349 435 l 349 358 q 373 265 349 303 q 456 206 397 226 q 624 186 515 186 q 775 198 704 186 q 888 229 846 210 l 954 49 q 799 1 892 17 q 603 -15 707 -15 m 246 835 l 246 1018 l 874 1018 l 874 835 l 246 835 z "},"ḗ":{"ha":1040,"x_min":75,"x_max":982,"o":"m 603 -15 q 311 29 429 -15 q 134 155 193 74 q 75 347 75 236 q 132 538 75 454 q 294 669 189 621 q 546 718 400 718 q 771 676 672 718 q 926 550 869 633 q 982 344 982 467 l 982 281 l 308 281 l 308 429 l 763 429 l 738 401 q 688 504 735 471 q 550 538 642 538 q 440 520 483 538 q 372 469 396 503 q 349 386 349 435 l 349 358 q 373 265 349 303 q 456 206 397 226 q 624 186 515 186 q 775 198 704 186 q 888 229 846 210 l 954 49 q 799 1 892 17 q 603 -15 707 -15 m 249 821 l 249 992 l 871 992 l 871 821 l 249 821 m 450 1047 l 576 1233 l 856 1233 l 638 1047 l 450 1047 z "},"ḕ":{"ha":1040,"x_min":75,"x_max":982,"o":"m 603 -15 q 311 29 429 -15 q 134 155 193 74 q 75 347 75 236 q 132 538 75 454 q 294 669 189 621 q 546 718 400 718 q 771 676 672 718 q 926 550 869 633 q 982 344 982 467 l 982 281 l 308 281 l 308 429 l 763 429 l 738 401 q 688 504 735 471 q 550 538 642 538 q 440 520 483 538 q 372 469 396 503 q 349 386 349 435 l 349 358 q 373 265 349 303 q 456 206 397 226 q 624 186 515 186 q 775 198 704 186 q 888 229 846 210 l 954 49 q 799 1 892 17 q 603 -15 707 -15 m 249 821 l 249 992 l 871 992 l 871 821 l 249 821 m 482 1047 l 264 1233 l 543 1233 l 669 1047 l 482 1047 z "},"ę":{"ha":1040,"x_min":75,"x_max":982,"o":"m 603 -15 q 311 29 429 -15 q 134 155 193 74 q 75 347 75 236 q 132 538 75 454 q 294 669 189 621 q 546 718 400 718 q 771 676 672 718 q 926 550 869 633 q 982 344 982 467 l 982 281 l 308 281 l 308 429 l 763 429 l 738 401 q 688 504 735 471 q 550 538 642 538 q 440 520 483 538 q 372 469 396 503 q 349 386 349 435 l 349 358 q 373 265 349 303 q 456 206 397 226 q 624 186 515 186 q 775 198 704 186 q 888 229 846 210 l 954 49 q 799 1 892 17 q 603 -15 707 -15 m 700 -290 q 529 -255 588 -290 q 471 -153 471 -219 q 517 -34 471 -90 q 663 68 564 22 l 747 0 q 695 -33 717 -17 q 663 -65 674 -49 q 651 -99 651 -81 q 673 -135 651 -124 q 735 -146 694 -146 q 781 -142 758 -146 q 828 -132 803 -139 l 860 -265 q 779 -285 815 -279 q 700 -290 743 -290 z "},"ẽ":{"ha":1040,"x_min":75,"x_max":982,"o":"m 603 -15 q 311 29 429 -15 q 134 155 193 74 q 75 347 75 236 q 132 538 75 454 q 294 669 189 621 q 546 718 400 718 q 771 676 672 718 q 926 550 869 633 q 982 344 982 467 l 982 281 l 308 281 l 308 429 l 763 429 l 738 401 q 688 504 735 471 q 550 538 642 538 q 440 520 483 538 q 372 469 396 503 q 349 386 349 435 l 349 358 q 373 265 349 303 q 456 206 397 226 q 624 186 515 186 q 775 198 704 186 q 888 229 846 210 l 954 49 q 799 1 892 17 q 603 -15 707 -15 m 353 803 l 201 811 q 267 991 210 922 q 422 1060 324 1060 q 513 1041 476 1060 q 574 1010 549 1022 q 624 986 596 1000 q 685 972 651 972 q 741 995 725 972 q 765 1063 757 1018 l 918 1056 q 853 873 911 940 q 696 806 796 806 q 608 824 643 806 q 546 854 572 842 q 494 880 522 865 q 433 894 467 894 q 378 872 393 894 q 353 803 363 849 z "},"ə":{"ha":1040,"x_min":60,"x_max":965,"o":"m 492 -15 q 269 31 367 -15 q 115 160 171 76 q 60 356 60 243 l 60 415 l 733 415 l 733 276 l 282 276 l 308 308 q 355 208 310 243 q 493 174 400 174 q 603 191 560 174 q 668 240 646 208 q 690 315 690 271 l 690 351 q 667 433 690 397 q 583 488 643 468 q 411 507 522 507 q 259 496 332 507 q 146 463 186 485 l 92 654 q 238 701 144 685 q 438 718 332 718 q 733 674 617 718 q 908 548 850 629 q 965 354 965 467 q 908 167 965 251 q 744 33 850 82 q 492 -15 638 -15 z "},"ʒ":{"ha":1039,"x_min":32,"x_max":971,"o":"m 456 -267 q 219 -245 335 -267 q 32 -183 104 -224 l 114 13 q 261 -35 179 -18 q 444 -51 343 -51 q 626 -27 568 -51 q 685 50 685 -3 q 621 127 685 107 q 431 147 557 147 l 253 147 l 250 283 l 674 554 l 658 492 l 79 492 l 79 703 l 913 703 l 913 518 l 529 286 l 454 326 l 556 326 q 863 260 754 326 q 971 60 971 193 q 910 -112 971 -39 q 735 -226 850 -185 q 456 -267 619 -267 z "},"ǯ":{"ha":1039,"x_min":32,"x_max":971,"o":"m 456 -267 q 219 -245 335 -267 q 32 -183 104 -224 l 114 13 q 261 -35 179 -18 q 444 -51 343 -51 q 626 -27 568 -51 q 685 50 685 -3 q 621 127 685 107 q 431 147 557 147 l 253 147 l 250 283 l 674 554 l 658 492 l 79 492 l 79 703 l 913 703 l 913 518 l 529 286 l 454 326 l 556 326 q 863 260 754 326 q 971 60 971 193 q 910 -112 971 -39 q 735 -226 850 -185 q 456 -267 619 -267 m 372 781 l 168 1086 l 367 1086 l 496 922 l 625 1086 l 824 1086 l 619 781 l 372 781 z "},"f":{"ha":743,"x_min":13,"x_max":754,"o":"m 179 0 l 179 510 l 13 510 l 13 703 l 240 703 l 179 633 l 179 656 q 281 897 179 814 q 585 989 383 979 l 735 996 l 754 801 l 585 793 q 510 783 540 792 q 466 758 481 775 q 451 713 451 742 l 451 663 l 404 703 l 710 703 l 710 510 l 471 510 l 471 0 l 179 0 z "},"g":{"ha":1143,"x_min":75,"x_max":1025,"o":"m 500 -265 q 289 -244 390 -265 q 132 -187 188 -222 l 196 13 q 280 -22 229 -7 q 390 -45 331 -36 q 508 -54 450 -54 q 701 -13 640 -54 q 763 106 763 28 l 763 163 l 757 163 q 652 69 722 104 q 475 35 582 35 q 264 76 353 35 q 125 194 175 118 q 75 376 75 271 q 124 558 75 481 q 263 676 174 635 q 472 718 351 718 q 651 683 578 718 q 760 586 724 649 l 761 586 l 761 703 l 1025 703 l 1025 122 q 967 -85 1025 1 q 792 -219 908 -172 q 500 -265 675 -265 m 551 243 q 695 281 644 243 q 746 378 746 318 q 695 472 746 436 q 551 508 644 508 q 407 472 458 508 q 356 378 356 436 q 407 281 356 318 q 551 243 458 243 z "},"ğ":{"ha":1143,"x_min":75,"x_max":1025,"o":"m 500 -265 q 289 -244 390 -265 q 132 -187 188 -222 l 196 13 q 280 -22 229 -7 q 390 -45 331 -36 q 508 -54 450 -54 q 701 -13 640 -54 q 763 106 763 28 l 763 163 l 757 163 q 652 69 722 104 q 475 35 582 35 q 264 76 353 35 q 125 194 175 118 q 75 376 75 271 q 124 558 75 481 q 263 676 174 635 q 472 718 351 718 q 651 683 578 718 q 760 586 724 649 l 761 586 l 761 703 l 1025 703 l 1025 122 q 967 -85 1025 1 q 792 -219 908 -172 q 500 -265 675 -265 m 551 243 q 695 281 644 243 q 746 378 746 318 q 695 472 746 436 q 551 508 644 508 q 407 472 458 508 q 356 378 356 436 q 407 281 356 318 q 551 243 458 243 m 564 781 q 385 817 454 781 q 285 922 317 854 q 246 1085 253 990 l 415 1097 q 458 988 425 1022 q 564 953 490 953 q 669 988 636 953 q 713 1097 703 1022 l 881 1085 q 843 922 876 990 q 742 817 810 854 q 564 781 675 781 z "},"ǧ":{"ha":1143,"x_min":75,"x_max":1025,"o":"m 500 -265 q 289 -244 390 -265 q 132 -187 188 -222 l 196 13 q 280 -22 229 -7 q 390 -45 331 -36 q 508 -54 450 -54 q 701 -13 640 -54 q 763 106 763 28 l 763 163 l 757 163 q 652 69 722 104 q 475 35 582 35 q 264 76 353 35 q 125 194 175 118 q 75 376 75 271 q 124 558 75 481 q 263 676 174 635 q 472 718 351 718 q 651 683 578 718 q 760 586 724 649 l 761 586 l 761 703 l 1025 703 l 1025 122 q 967 -85 1025 1 q 792 -219 908 -172 q 500 -265 675 -265 m 551 243 q 695 281 644 243 q 746 378 746 318 q 695 472 746 436 q 551 508 644 508 q 407 472 458 508 q 356 378 356 436 q 407 281 356 318 q 551 243 458 243 m 440 781 l 236 1086 l 435 1086 l 564 922 l 693 1086 l 892 1086 l 688 781 l 440 781 z "},"ĝ":{"ha":1143,"x_min":75,"x_max":1025,"o":"m 500 -265 q 289 -244 390 -265 q 132 -187 188 -222 l 196 13 q 280 -22 229 -7 q 390 -45 331 -36 q 508 -54 450 -54 q 701 -13 640 -54 q 763 106 763 28 l 763 163 l 757 163 q 652 69 722 104 q 475 35 582 35 q 264 76 353 35 q 125 194 175 118 q 75 376 75 271 q 124 558 75 481 q 263 676 174 635 q 472 718 351 718 q 651 683 578 718 q 760 586 724 649 l 761 586 l 761 703 l 1025 703 l 1025 122 q 967 -85 1025 1 q 792 -219 908 -172 q 500 -265 675 -265 m 551 243 q 695 281 644 243 q 746 378 746 318 q 695 472 746 436 q 551 508 644 508 q 407 472 458 508 q 356 378 356 436 q 407 281 356 318 q 551 243 458 243 m 236 783 l 440 1086 l 688 1086 l 892 783 l 693 783 l 564 946 l 435 783 l 236 783 z "},"ģ":{"ha":1143,"x_min":75,"x_max":1025,"o":"m 500 -265 q 289 -244 390 -265 q 132 -187 188 -222 l 196 13 q 280 -22 229 -7 q 390 -45 331 -36 q 508 -54 450 -54 q 701 -13 640 -54 q 763 106 763 28 l 763 163 l 757 163 q 652 69 722 104 q 475 35 582 35 q 264 76 353 35 q 125 194 175 118 q 75 376 75 271 q 124 558 75 481 q 263 676 174 635 q 472 718 351 718 q 651 683 578 718 q 760 586 724 649 l 761 586 l 761 703 l 1025 703 l 1025 122 q 967 -85 1025 1 q 792 -219 908 -172 q 500 -265 675 -265 m 551 243 q 695 281 644 243 q 746 378 746 318 q 695 472 746 436 q 551 508 644 508 q 407 472 458 508 q 356 378 356 436 q 407 281 356 318 q 551 243 458 243 m 454 804 l 454 958 q 483 1081 454 1022 q 576 1190 513 1139 l 650 1132 q 582 1042 604 1083 q 558 968 560 1001 l 513 1007 l 674 1007 l 674 804 l 454 804 z "},"ġ":{"ha":1143,"x_min":75,"x_max":1025,"o":"m 500 -265 q 289 -244 390 -265 q 132 -187 188 -222 l 196 13 q 280 -22 229 -7 q 390 -45 331 -36 q 508 -54 450 -54 q 701 -13 640 -54 q 763 106 763 28 l 763 163 l 757 163 q 652 69 722 104 q 475 35 582 35 q 264 76 353 35 q 125 194 175 118 q 75 376 75 271 q 124 558 75 481 q 263 676 174 635 q 472 718 351 718 q 651 683 578 718 q 760 586 724 649 l 761 586 l 761 703 l 1025 703 l 1025 122 q 967 -85 1025 1 q 792 -219 908 -172 q 500 -265 675 -265 m 551 243 q 695 281 644 243 q 746 378 746 318 q 695 472 746 436 q 551 508 644 508 q 407 472 458 508 q 356 378 356 436 q 407 281 356 318 q 551 243 458 243 m 440 818 l 440 1051 l 688 1051 l 688 818 l 440 818 z "},"ḡ":{"ha":1143,"x_min":75,"x_max":1025,"o":"m 500 -265 q 289 -244 390 -265 q 132 -187 188 -222 l 196 13 q 280 -22 229 -7 q 390 -45 331 -36 q 508 -54 450 -54 q 701 -13 640 -54 q 763 106 763 28 l 763 163 l 757 163 q 652 69 722 104 q 475 35 582 35 q 264 76 353 35 q 125 194 175 118 q 75 376 75 271 q 124 558 75 481 q 263 676 174 635 q 472 718 351 718 q 651 683 578 718 q 760 586 724 649 l 761 586 l 761 703 l 1025 703 l 1025 122 q 967 -85 1025 1 q 792 -219 908 -172 q 500 -265 675 -265 m 551 243 q 695 281 644 243 q 746 378 746 318 q 695 472 746 436 q 551 508 644 508 q 407 472 458 508 q 356 378 356 436 q 407 281 356 318 q 551 243 458 243 m 250 835 l 250 1018 l 878 1018 l 878 835 l 250 835 z "},"ǥ":{"ha":1143,"x_min":75,"x_max":1133,"o":"m 499 -265 q 287 -245 388 -265 q 131 -190 186 -225 l 179 -31 q 267 -58 214 -47 q 381 -76 319 -69 q 501 -82 443 -82 q 638 -69 583 -82 q 722 -24 692 -56 l 736 -49 l 475 -49 l 475 49 l 781 49 l 757 49 q 760 72 760 61 q 761 96 761 82 l 761 207 l 756 207 q 651 113 722 146 q 472 79 579 79 q 260 116 349 79 q 124 223 172 153 q 75 393 75 293 q 123 568 75 496 q 259 679 171 640 q 469 718 347 718 q 650 681 576 718 q 758 581 724 644 l 761 588 l 761 703 l 1025 703 l 1025 122 q 1022 67 1025 93 q 1017 21 1019 40 l 990 49 l 1133 49 l 1133 -49 l 971 -49 l 1006 -24 q 838 -210 964 -154 q 499 -265 711 -265 m 551 251 q 656 269 613 251 q 723 317 700 286 q 746 390 746 349 q 694 482 746 447 q 551 517 643 517 q 447 501 490 517 q 379 457 403 485 q 356 393 356 429 q 379 319 356 351 q 446 269 403 288 q 551 251 489 251 z "},"h":{"ha":1139,"x_min":118,"x_max":1022,"o":"m 118 0 l 118 979 l 393 979 l 394 575 l 406 575 q 528 681 456 643 q 699 718 600 718 q 872 681 800 718 q 983 565 944 644 q 1022 357 1022 485 l 1022 0 l 731 0 l 731 349 q 714 429 731 400 q 667 472 697 458 q 592 485 636 485 q 499 463 540 485 q 434 406 458 442 q 410 328 410 369 l 410 0 l 118 0 z "},"ħ":{"ha":1151,"x_min":-1,"x_max":1036,"o":"m 131 0 l 131 742 l -1 742 l -1 913 l 131 913 l 131 979 l 407 979 l 407 910 l 724 910 l 724 742 l 407 742 l 407 533 l 408 533 q 536 642 458 603 q 717 681 614 681 q 953 596 869 681 q 1036 335 1036 511 l 1036 0 l 744 0 l 744 326 q 730 393 744 367 q 683 433 715 419 q 603 447 651 447 q 511 430 551 447 q 447 381 471 413 q 424 308 424 350 l 424 0 l 131 0 z "},"ḫ":{"ha":1139,"x_min":118,"x_max":1022,"o":"m 118 0 l 118 979 l 393 979 l 394 575 l 406 575 q 528 681 456 643 q 699 718 600 718 q 872 681 800 718 q 983 565 944 644 q 1022 357 1022 485 l 1022 0 l 731 0 l 731 349 q 714 429 731 400 q 667 472 697 458 q 592 485 636 485 q 499 463 540 485 q 434 406 458 442 q 410 328 410 369 l 410 0 l 118 0 m 574 -299 q 336 -235 419 -299 q 246 -60 253 -171 l 410 -46 q 460 -116 419 -94 q 574 -137 500 -137 q 687 -116 646 -137 q 738 -46 728 -94 l 900 -60 q 811 -235 894 -171 q 574 -299 728 -299 z "},"ȟ":{"ha":1139,"x_min":118,"x_max":1022,"o":"m 118 0 l 118 979 l 393 979 l 394 575 l 406 575 q 528 681 456 643 q 699 718 600 718 q 872 681 800 718 q 983 565 944 644 q 1022 357 1022 485 l 1022 0 l 731 0 l 731 349 q 714 429 731 400 q 667 472 697 458 q 592 485 636 485 q 499 463 540 485 q 434 406 458 442 q 410 328 410 369 l 410 0 l 118 0 m 439 1063 l 225 1319 l 435 1319 l 557 1193 l 679 1319 l 889 1319 l 675 1063 l 439 1063 z "},"ĥ":{"ha":1139,"x_min":118,"x_max":1022,"o":"m 118 0 l 118 979 l 393 979 l 394 575 l 406 575 q 528 681 456 643 q 699 718 600 718 q 872 681 800 718 q 983 565 944 644 q 1022 357 1022 485 l 1022 0 l 731 0 l 731 349 q 714 429 731 400 q 667 472 697 458 q 592 485 636 485 q 499 463 540 485 q 434 406 458 442 q 410 328 410 369 l 410 0 l 118 0 m 225 1063 l 439 1318 l 675 1318 l 889 1063 l 679 1063 l 557 1188 l 435 1063 l 225 1063 z "},"ḥ":{"ha":1139,"x_min":118,"x_max":1022,"o":"m 118 0 l 118 979 l 393 979 l 394 575 l 406 575 q 528 681 456 643 q 699 718 600 718 q 872 681 800 718 q 983 565 944 644 q 1022 357 1022 485 l 1022 0 l 731 0 l 731 349 q 714 429 731 400 q 667 472 697 458 q 592 485 636 485 q 499 463 540 485 q 434 406 458 442 q 410 328 410 369 l 410 0 l 118 0 m 450 -326 l 450 -94 l 697 -94 l 697 -326 l 450 -326 z "},"i":{"ha":528,"x_min":113,"x_max":413,"o":"m 113 810 l 113 1057 l 413 1057 l 413 810 l 113 810 m 118 0 l 118 703 l 410 703 l 410 0 l 118 0 z "},"ı":{"ha":528,"x_min":118,"x_max":410,"o":"m 118 0 l 118 703 l 410 703 l 410 0 l 118 0 z "},"í":{"ha":528,"x_min":118,"x_max":615,"o":"m 118 0 l 118 703 l 410 703 l 410 0 l 118 0 m 150 781 l 328 1086 l 615 1086 l 354 781 l 150 781 z "},"ĭ":{"ha":528,"x_min":-56,"x_max":579,"o":"m 118 0 l 118 703 l 410 703 l 410 0 l 118 0 m 263 781 q 84 817 153 781 q -17 922 15 854 q -56 1085 -49 990 l 114 1097 q 156 988 124 1022 q 263 953 189 953 q 368 988 335 953 q 411 1097 401 1022 l 579 1085 q 542 922 575 990 q 441 817 508 854 q 263 781 374 781 z "},"î":{"ha":528,"x_min":-65,"x_max":590,"o":"m 118 0 l 118 703 l 410 703 l 410 0 l 118 0 m -65 783 l 139 1086 l 386 1086 l 590 783 l 392 783 l 263 946 l 133 783 l -65 783 z "},"ȉ":{"ha":528,"x_min":-121,"x_max":494,"o":"m 118 0 l 118 703 l 410 703 l 410 0 l 118 0 m 339 781 l 178 1086 l 417 1086 l 494 781 l 339 781 m 40 781 l -121 1086 l 117 1086 l 194 781 l 40 781 z "},"ï":{"ha":528,"x_min":-68,"x_max":593,"o":"m 118 0 l 118 703 l 410 703 l 410 0 l 118 0 m 336 804 l 336 1049 l 593 1049 l 593 804 l 336 804 m -68 804 l -68 1049 l 189 1049 l 189 804 l -68 804 z "},"ḯ":{"ha":528,"x_min":-58,"x_max":583,"o":"m 118 0 l 118 703 l 410 703 l 410 0 l 118 0 m 158 1007 l 285 1193 l 564 1193 l 346 1007 l 158 1007 m -58 792 l -58 963 l 200 963 l 200 792 l -58 792 m 325 792 l 325 963 l 583 963 l 583 792 l 325 792 z "},"ị":{"ha":528,"x_min":113,"x_max":413,"o":"m 113 810 l 113 1057 l 413 1057 l 413 810 l 113 810 m 118 0 l 118 703 l 410 703 l 410 0 l 118 0 m 140 -326 l 140 -94 l 388 -94 l 388 -326 l 140 -326 z "},"ì":{"ha":528,"x_min":-90,"x_max":410,"o":"m 118 0 l 118 703 l 410 703 l 410 0 l 118 0 m 171 792 l -90 1085 l 197 1085 l 375 792 l 171 792 z "},"ỉ":{"ha":528,"x_min":39,"x_max":503,"o":"m 118 0 l 118 703 l 410 703 l 410 0 l 118 0 m 168 792 l 168 821 q 183 865 168 847 q 216 896 197 883 q 249 921 235 908 q 264 950 264 933 q 247 974 264 967 q 196 981 231 981 q 141 974 168 981 q 88 957 114 968 l 39 1071 q 144 1101 85 1090 q 271 1113 204 1113 q 444 1081 386 1113 q 503 994 503 1050 q 481 931 503 956 q 429 891 458 907 q 378 857 400 875 q 356 811 356 839 l 356 792 l 168 792 z "},"ȋ":{"ha":528,"x_min":-56,"x_max":579,"o":"m 118 0 l 118 703 l 410 703 l 410 0 l 118 0 m 114 781 l -56 794 q -16 958 -49 890 q 85 1061 17 1025 q 263 1097 153 1097 q 441 1061 374 1097 q 542 958 508 1025 q 579 794 575 890 l 411 781 q 368 890 401 856 q 263 925 335 925 q 156 890 189 925 q 114 781 124 856 z "},"ĳ":{"ha":1035,"x_min":113,"x_max":933,"o":"m 113 810 l 113 1057 l 413 1057 l 413 810 l 113 810 m 118 0 l 118 703 l 410 703 l 410 0 l 118 0 m 633 810 l 633 1057 l 935 1057 l 935 810 l 633 810 m 460 -268 l 436 -61 l 531 -51 q 610 -22 582 -44 q 639 56 639 1 l 639 703 l 931 703 l 931 68 q 916 -57 931 0 q 863 -156 901 -114 q 753 -224 825 -197 q 564 -260 681 -250 l 460 -268 z "},"ī":{"ha":528,"x_min":-51,"x_max":576,"o":"m 118 0 l 118 703 l 410 703 l 410 0 l 118 0 m -51 835 l -51 1018 l 576 1018 l 576 835 l -51 835 z "},"į":{"ha":528,"x_min":76,"x_max":464,"o":"m 118 0 l 118 703 l 410 703 l 410 0 l 118 0 m 113 810 l 113 1057 l 413 1057 l 413 810 l 113 810 m 304 -290 q 133 -255 192 -290 q 75 -153 75 -219 q 122 -34 75 -90 q 267 68 168 22 l 351 0 q 299 -33 321 -17 q 267 -65 278 -49 q 256 -99 256 -81 q 277 -135 256 -124 q 339 -146 299 -146 q 385 -142 363 -146 q 432 -132 407 -139 l 464 -265 q 383 -285 419 -279 q 304 -290 347 -290 z "},"ĩ":{"ha":528,"x_min":-96,"x_max":621,"o":"m 118 0 l 118 703 l 410 703 l 410 0 l 118 0 m 56 803 l -96 811 q -31 991 -87 922 q 125 1060 26 1060 q 215 1041 179 1060 q 276 1010 251 1022 q 326 986 299 1000 q 388 972 354 972 q 444 995 428 972 q 468 1063 460 1018 l 621 1056 q 556 873 614 940 q 399 806 499 806 q 310 824 346 806 q 249 854 275 842 q 197 880 225 865 q 136 894 169 894 q 81 872 96 894 q 56 803 65 849 z "},"j":{"ha":507,"x_min":-92,"x_max":407,"o":"m 106 810 l 106 1057 l 407 1057 l 407 810 l 106 810 m -68 -268 l -92 -61 l 3 -51 q 83 -22 54 -44 q 111 56 111 1 l 111 703 l 403 703 l 403 68 q 388 -57 403 0 q 335 -156 374 -114 q 225 -224 297 -197 q 36 -260 153 -250 l -68 -268 z "},"ȷ":{"ha":507,"x_min":-92,"x_max":403,"o":"m -68 -268 l -92 -61 l 3 -51 q 83 -22 54 -44 q 111 56 111 1 l 111 703 l 403 703 l 403 68 q 388 -57 403 0 q 335 -156 374 -114 q 225 -224 297 -197 q 36 -260 153 -250 l -68 -268 z "},"ĵ":{"ha":507,"x_min":-92,"x_max":583,"o":"m -68 -268 l -92 -61 l 3 -51 q 83 -22 54 -44 q 111 56 111 1 l 111 703 l 403 703 l 403 68 q 388 -57 403 0 q 335 -156 374 -114 q 225 -224 297 -197 q 36 -260 153 -250 l -68 -268 m -71 783 l 133 1086 l 381 1086 l 585 783 l 386 783 l 257 946 l 128 783 l -71 783 z "},"k":{"ha":1028,"x_min":117,"x_max":1056,"o":"m 117 0 l 117 979 l 408 979 l 408 414 l 418 414 l 688 703 l 1031 703 l 617 321 l 625 389 l 1056 0 l 701 0 l 418 282 l 408 282 l 408 0 l 117 0 z "},"ǩ":{"ha":1028,"x_min":117,"x_max":1056,"o":"m 117 0 l 117 979 l 408 979 l 408 414 l 418 414 l 688 703 l 1031 703 l 617 321 l 625 389 l 1056 0 l 701 0 l 418 282 l 408 282 l 408 0 l 117 0 m 439 1063 l 225 1319 l 435 1319 l 557 1193 l 679 1319 l 889 1319 l 675 1063 l 439 1063 z "},"ķ":{"ha":1028,"x_min":117,"x_max":1056,"o":"m 117 0 l 117 979 l 408 979 l 408 414 l 418 414 l 688 703 l 1031 703 l 617 321 l 625 389 l 1056 0 l 701 0 l 418 282 l 408 282 l 408 0 l 117 0 m 526 -472 l 453 -414 q 521 -324 499 -367 q 544 -247 543 -281 l 589 -287 l 428 -287 l 428 -85 l 649 -85 l 649 -237 q 619 -360 649 -303 q 526 -472 589 -418 z "},"ĸ":{"ha":1029,"x_min":118,"x_max":1056,"o":"m 118 0 l 118 703 l 410 703 l 410 414 l 418 414 l 688 703 l 1031 703 l 618 321 l 626 389 l 1056 0 l 701 0 l 418 282 l 410 282 l 410 0 l 118 0 z "},"l":{"ha":633,"x_min":117,"x_max":625,"o":"m 449 -15 q 201 58 286 -15 q 117 268 117 132 l 117 979 l 408 979 l 408 292 q 421 242 408 263 q 457 212 433 222 q 517 201 481 201 q 565 204 542 201 q 604 210 589 207 l 625 11 q 543 -9 583 -3 q 449 -15 503 -15 z "},"ĺ":{"ha":633,"x_min":117,"x_max":664,"o":"m 449 -15 q 201 58 286 -15 q 117 268 117 132 l 117 979 l 408 979 l 408 292 q 421 242 408 263 q 457 212 433 222 q 517 201 481 201 q 565 204 542 201 q 604 210 589 207 l 625 11 q 543 -9 583 -3 q 449 -15 503 -15 m 156 1063 l 360 1318 l 665 1318 l 371 1063 l 156 1063 z "},"ľ":{"ha":633,"x_min":117,"x_max":692,"o":"m 449 -15 q 201 58 286 -15 q 117 268 117 132 l 117 979 l 408 979 l 408 292 q 421 242 408 263 q 457 212 433 222 q 517 201 481 201 q 565 204 542 201 q 604 210 589 207 l 625 11 q 543 -9 583 -3 q 449 -15 503 -15 m 489 696 l 490 979 l 693 979 l 644 696 l 489 696 z "},"ļ":{"ha":633,"x_min":117,"x_max":625,"o":"m 449 -15 q 201 58 286 -15 q 117 268 117 132 l 117 979 l 408 979 l 408 292 q 421 242 408 263 q 457 212 433 222 q 517 201 481 201 q 565 204 542 201 q 604 210 589 207 l 625 11 q 543 -9 583 -3 q 449 -15 503 -15 m 371 -472 l 297 -414 q 365 -324 343 -367 q 389 -247 388 -281 l 433 -287 l 272 -287 l 272 -85 l 493 -85 l 493 -237 q 463 -360 493 -303 q 371 -472 433 -418 z "},"ŀ":{"ha":831,"x_min":117,"x_max":833,"o":"m 449 -15 q 201 58 286 -15 q 117 268 117 132 l 117 979 l 408 979 l 408 292 q 421 242 408 263 q 457 212 433 222 q 517 201 481 201 q 565 204 542 201 q 604 210 589 207 l 625 11 q 543 -9 583 -3 q 449 -15 503 -15 m 522 378 l 522 626 l 833 626 l 833 378 l 522 378 z "},"ḷ":{"ha":633,"x_min":117,"x_max":625,"o":"m 449 -15 q 201 58 286 -15 q 117 268 117 132 l 117 979 l 408 979 l 408 292 q 421 242 408 263 q 457 212 433 222 q 517 201 481 201 q 565 204 542 201 q 604 210 589 207 l 625 11 q 543 -9 583 -3 q 449 -15 503 -15 m 258 -326 l 258 -94 l 506 -94 l 506 -326 l 258 -326 z "},"ǉ":{"ha":1140,"x_min":117,"x_max":1040,"o":"m 449 -15 q 201 58 286 -15 q 117 268 117 132 l 117 979 l 408 979 l 408 292 q 421 242 408 263 q 457 212 433 222 q 517 201 481 201 q 565 204 542 201 q 604 210 589 207 l 625 11 q 543 -9 583 -3 q 449 -15 503 -15 m 739 810 l 739 1057 l 1040 1057 l 1040 810 l 739 810 m 565 -268 l 542 -61 l 636 -51 q 716 -22 688 -44 q 744 56 744 1 l 744 703 l 1036 703 l 1036 68 q 1022 -57 1036 0 q 969 -156 1007 -114 q 858 -224 931 -197 q 669 -260 786 -250 l 565 -268 z "},"ḻ":{"ha":633,"x_min":69,"x_max":696,"o":"m 449 -15 q 201 58 286 -15 q 117 268 117 132 l 117 979 l 408 979 l 408 292 q 421 242 408 263 q 457 212 433 222 q 517 201 481 201 q 565 204 542 201 q 604 210 589 207 l 625 11 q 543 -9 583 -3 q 449 -15 503 -15 m 68 -283 l 68 -100 l 696 -100 l 696 -283 l 68 -283 z "},"ł":{"ha":633,"x_min":-68,"x_max":625,"o":"m 449 -15 q 201 58 286 -15 q 117 268 117 132 l 117 979 l 408 979 l 408 292 q 421 242 408 263 q 457 212 433 222 q 517 201 481 201 q 565 204 542 201 q 604 210 589 207 l 625 11 q 543 -9 583 -3 q 449 -15 503 -15 m 25 253 l -68 438 l 528 738 l 621 554 l 25 253 z "},"m":{"ha":1685,"x_min":121,"x_max":1565,"o":"m 121 0 l 121 703 l 379 703 l 379 557 l 386 557 q 468 647 422 611 q 570 700 514 682 q 690 718 626 718 q 854 683 788 718 q 950 582 921 649 l 961 582 q 1075 679 1001 640 q 1254 718 1149 718 q 1423 681 1353 718 q 1529 565 1493 644 q 1565 357 1565 485 l 1565 0 l 1278 0 l 1278 351 q 1249 456 1278 426 q 1161 485 1219 485 q 1069 464 1110 485 q 1006 410 1029 443 q 983 344 983 378 l 983 0 l 701 0 l 701 351 q 669 455 701 425 q 582 485 638 485 q 492 463 532 485 q 430 408 453 440 q 407 344 407 376 l 407 0 l 121 0 z "},"ṃ":{"ha":1685,"x_min":121,"x_max":1565,"o":"m 121 0 l 121 703 l 379 703 l 379 557 l 386 557 q 468 647 422 611 q 570 700 514 682 q 690 718 626 718 q 854 683 788 718 q 950 582 921 649 l 961 582 q 1075 679 1001 640 q 1254 718 1149 718 q 1423 681 1353 718 q 1529 565 1493 644 q 1565 357 1565 485 l 1565 0 l 1278 0 l 1278 351 q 1249 456 1278 426 q 1161 485 1219 485 q 1069 464 1110 485 q 1006 410 1029 443 q 983 344 983 378 l 983 0 l 701 0 l 701 351 q 669 455 701 425 q 582 485 638 485 q 492 463 532 485 q 430 408 453 440 q 407 344 407 376 l 407 0 l 121 0 m 721 -326 l 721 -94 l 968 -94 l 968 -326 l 721 -326 z "},"n":{"ha":1139,"x_min":118,"x_max":1022,"o":"m 118 0 l 118 703 l 385 703 l 385 563 l 390 563 q 521 678 442 639 q 699 718 600 718 q 873 681 800 718 q 984 564 946 643 q 1022 357 1022 485 l 1022 0 l 731 0 l 731 349 q 714 429 731 400 q 667 472 697 458 q 592 485 638 485 q 499 463 540 485 q 434 406 458 442 q 410 328 410 369 l 410 0 l 118 0 z "},"ń":{"ha":1139,"x_min":118,"x_max":1022,"o":"m 118 0 l 118 703 l 385 703 l 385 563 l 390 563 q 521 678 442 639 q 699 718 600 718 q 873 681 800 718 q 984 564 946 643 q 1022 357 1022 485 l 1022 0 l 731 0 l 731 349 q 714 429 731 400 q 667 472 697 458 q 592 485 638 485 q 499 463 540 485 q 434 406 458 442 q 410 328 410 369 l 410 0 l 118 0 m 460 781 l 638 1086 l 925 1086 l 664 781 l 460 781 z "},"ŉ":{"ha":1260,"x_min":-86,"x_max":1146,"o":"m 17 724 l -56 782 q 13 874 -10 831 q 36 949 36 917 l 81 910 l -85 910 l -85 1111 l 147 1111 l 147 958 q 113 835 147 893 q 17 724 79 778 m 242 0 l 242 703 l 508 703 l 508 563 l 514 563 q 644 678 565 639 q 822 718 724 718 q 997 681 924 718 q 1108 564 1069 643 q 1146 357 1146 485 l 1146 0 l 854 0 l 854 349 q 838 429 854 400 q 791 472 821 458 q 715 485 761 485 q 623 463 664 485 q 558 406 582 442 q 533 328 533 369 l 533 0 l 242 0 z "},"ň":{"ha":1139,"x_min":118,"x_max":1022,"o":"m 118 0 l 118 703 l 385 703 l 385 563 l 390 563 q 521 678 442 639 q 699 718 600 718 q 873 681 800 718 q 984 564 946 643 q 1022 357 1022 485 l 1022 0 l 731 0 l 731 349 q 714 429 731 400 q 667 472 697 458 q 592 485 638 485 q 499 463 540 485 q 434 406 458 442 q 410 328 410 369 l 410 0 l 118 0 m 449 781 l 244 1086 l 443 1086 l 572 922 l 701 1086 l 900 1086 l 696 781 l 449 781 z "},"ņ":{"ha":1139,"x_min":118,"x_max":1022,"o":"m 118 0 l 118 703 l 385 703 l 385 563 l 390 563 q 521 678 442 639 q 699 718 600 718 q 873 681 800 718 q 984 564 946 643 q 1022 357 1022 485 l 1022 0 l 731 0 l 731 349 q 714 429 731 400 q 667 472 697 458 q 592 485 638 485 q 499 463 540 485 q 434 406 458 442 q 410 328 410 369 l 410 0 l 118 0 m 557 -472 l 483 -414 q 551 -324 529 -367 q 575 -247 574 -281 l 619 -287 l 458 -287 l 458 -85 l 679 -85 l 679 -237 q 649 -360 679 -303 q 557 -472 619 -418 z "},"ṅ":{"ha":1139,"x_min":118,"x_max":1022,"o":"m 118 0 l 118 703 l 385 703 l 385 563 l 390 563 q 521 678 442 639 q 699 718 600 718 q 873 681 800 718 q 984 564 946 643 q 1022 357 1022 485 l 1022 0 l 731 0 l 731 349 q 714 429 731 400 q 667 472 697 458 q 592 485 638 485 q 499 463 540 485 q 434 406 458 442 q 410 328 410 369 l 410 0 l 118 0 m 449 818 l 449 1051 l 696 1051 l 696 818 l 449 818 z "},"ṇ":{"ha":1139,"x_min":118,"x_max":1022,"o":"m 118 0 l 118 703 l 385 703 l 385 563 l 390 563 q 521 678 442 639 q 699 718 600 718 q 873 681 800 718 q 984 564 946 643 q 1022 357 1022 485 l 1022 0 l 731 0 l 731 349 q 714 429 731 400 q 667 472 697 458 q 592 485 638 485 q 499 463 540 485 q 434 406 458 442 q 410 328 410 369 l 410 0 l 118 0 m 444 -326 l 444 -94 l 692 -94 l 692 -326 l 444 -326 z "},"ǌ":{"ha":1646,"x_min":118,"x_max":1544,"o":"m 118 0 l 118 703 l 385 703 l 385 563 l 390 563 q 521 678 442 639 q 699 718 600 718 q 873 681 800 718 q 984 564 946 643 q 1022 357 1022 485 l 1022 0 l 731 0 l 731 349 q 714 429 731 400 q 667 472 697 458 q 592 485 638 485 q 499 463 540 485 q 434 406 458 442 q 410 328 410 369 l 410 0 l 118 0 m 1244 810 l 1244 1057 l 1546 1057 l 1546 810 l 1244 810 m 1071 -268 l 1047 -61 l 1142 -51 q 1222 -22 1193 -44 q 1250 56 1250 1 l 1250 703 l 1542 703 l 1542 68 q 1527 -57 1542 0 q 1474 -156 1513 -114 q 1364 -224 1436 -197 q 1175 -260 1292 -250 l 1071 -268 z "},"ṉ":{"ha":1139,"x_min":118,"x_max":1022,"o":"m 118 0 l 118 703 l 385 703 l 385 563 l 390 563 q 521 678 442 639 q 699 718 600 718 q 873 681 800 718 q 984 564 946 643 q 1022 357 1022 485 l 1022 0 l 731 0 l 731 349 q 714 429 731 400 q 667 472 697 458 q 592 485 638 485 q 499 463 540 485 q 434 406 458 442 q 410 328 410 369 l 410 0 l 118 0 m 254 -283 l 254 -100 l 882 -100 l 882 -283 l 254 -283 z "},"ñ":{"ha":1139,"x_min":118,"x_max":1022,"o":"m 118 0 l 118 703 l 385 703 l 385 563 l 390 563 q 521 678 442 639 q 699 718 600 718 q 873 681 800 718 q 984 564 946 643 q 1022 357 1022 485 l 1022 0 l 731 0 l 731 349 q 714 429 731 400 q 667 472 697 458 q 592 485 638 485 q 499 463 540 485 q 434 406 458 442 q 410 328 410 369 l 410 0 l 118 0 m 365 803 l 214 811 q 279 991 222 922 q 435 1060 336 1060 q 525 1041 489 1060 q 586 1010 561 1022 q 636 986 608 1000 q 697 972 664 972 q 753 995 738 972 q 778 1063 769 1018 l 931 1056 q 866 873 924 940 q 708 806 808 806 q 620 824 656 806 q 558 854 585 842 q 507 880 535 865 q 446 894 479 894 q 390 872 406 894 q 365 803 375 849 z "},"ŋ":{"ha":1139,"x_min":118,"x_max":1022,"o":"m 551 -268 l 529 -60 l 622 -51 q 703 -22 675 -44 q 731 56 731 1 l 731 349 q 714 429 731 400 q 667 472 697 458 q 592 485 638 485 q 499 463 539 485 q 434 406 458 442 q 410 328 410 369 l 410 0 l 118 0 l 118 703 l 385 703 l 385 563 l 390 563 q 521 678 442 639 q 699 718 600 718 q 872 681 800 718 q 983 565 944 644 q 1022 357 1022 485 l 1022 68 q 1008 -57 1022 0 q 955 -156 993 -114 q 844 -224 917 -197 q 656 -260 772 -250 l 551 -268 z "},"o":{"ha":1101,"x_min":75,"x_max":1026,"o":"m 551 -15 q 293 33 400 -15 q 131 165 186 82 q 75 353 75 249 q 131 540 75 458 q 292 670 186 622 q 551 718 399 718 q 810 670 704 718 q 971 540 915 622 q 1026 353 1026 458 q 972 165 1026 249 q 810 33 917 82 q 551 -15 704 -15 m 551 200 q 697 246 650 200 q 744 353 744 292 q 697 459 744 415 q 551 503 650 503 q 405 459 453 503 q 357 353 357 415 q 406 246 357 292 q 551 200 454 200 z "},"ó":{"ha":1101,"x_min":75,"x_max":1026,"o":"m 551 -15 q 293 33 400 -15 q 131 165 186 82 q 75 353 75 249 q 131 540 75 458 q 292 670 186 622 q 551 718 399 718 q 810 670 704 718 q 971 540 915 622 q 1026 353 1026 458 q 972 165 1026 249 q 810 33 917 82 q 551 -15 704 -15 m 551 200 q 697 246 650 200 q 744 353 744 292 q 697 459 744 415 q 551 503 650 503 q 405 459 453 503 q 357 353 357 415 q 406 246 357 292 q 551 200 454 200 m 439 781 l 617 1086 l 904 1086 l 643 781 l 439 781 z "},"ŏ":{"ha":1101,"x_min":75,"x_max":1026,"o":"m 551 -15 q 293 33 400 -15 q 131 165 186 82 q 75 353 75 249 q 131 540 75 458 q 292 670 186 622 q 551 718 399 718 q 810 670 704 718 q 971 540 915 622 q 1026 353 1026 458 q 972 165 1026 249 q 810 33 917 82 q 551 -15 704 -15 m 551 200 q 697 246 650 200 q 744 353 744 292 q 697 459 744 415 q 551 503 650 503 q 405 459 453 503 q 357 353 357 415 q 406 246 357 292 q 551 200 454 200 m 551 781 q 373 817 442 781 q 272 922 304 854 q 233 1085 240 990 l 403 1097 q 445 988 413 1022 q 551 953 478 953 q 657 988 624 953 q 700 1097 690 1022 l 868 1085 q 831 922 864 990 q 730 817 797 854 q 551 781 663 781 z "},"ô":{"ha":1101,"x_min":75,"x_max":1026,"o":"m 551 -15 q 293 33 400 -15 q 131 165 186 82 q 75 353 75 249 q 131 540 75 458 q 292 670 186 622 q 551 718 399 718 q 810 670 704 718 q 971 540 915 622 q 1026 353 1026 458 q 972 165 1026 249 q 810 33 917 82 q 551 -15 704 -15 m 551 200 q 697 246 650 200 q 744 353 744 292 q 697 459 744 415 q 551 503 650 503 q 405 459 453 503 q 357 353 357 415 q 406 246 357 292 q 551 200 454 200 m 224 783 l 428 1086 l 675 1086 l 879 783 l 681 783 l 551 946 l 422 783 l 224 783 z "},"ố":{"ha":1101,"x_min":75,"x_max":1092,"o":"m 551 -15 q 293 33 400 -15 q 131 165 186 82 q 75 353 75 249 q 131 540 75 458 q 292 670 186 622 q 551 718 399 718 q 810 670 704 718 q 971 540 915 622 q 1026 353 1026 458 q 972 165 1026 249 q 810 33 917 82 q 551 -15 704 -15 m 551 200 q 697 246 650 200 q 744 353 744 292 q 697 459 744 415 q 551 503 650 503 q 405 459 453 503 q 357 353 357 415 q 406 246 357 292 q 551 200 454 200 m 226 792 l 431 1071 l 668 1071 l 872 792 l 678 792 l 549 936 l 419 792 l 226 792 m 760 988 l 869 1200 l 1093 1200 l 915 988 l 760 988 z "},"ộ":{"ha":1101,"x_min":75,"x_max":1026,"o":"m 551 -15 q 293 33 400 -15 q 131 165 186 82 q 75 353 75 249 q 131 540 75 458 q 292 670 186 622 q 551 718 399 718 q 810 670 704 718 q 971 540 915 622 q 1026 353 1026 458 q 972 165 1026 249 q 810 33 917 82 q 551 -15 704 -15 m 551 200 q 697 246 650 200 q 744 353 744 292 q 697 459 744 415 q 551 503 650 503 q 405 459 453 503 q 357 353 357 415 q 406 246 357 292 q 551 200 454 200 m 428 -325 l 428 -93 l 675 -93 l 675 -325 l 428 -325 m 224 783 l 428 1086 l 675 1086 l 879 783 l 681 783 l 551 946 l 422 783 l 224 783 z "},"ồ":{"ha":1101,"x_min":75,"x_max":1026,"o":"m 551 -15 q 293 33 400 -15 q 131 165 186 82 q 75 353 75 249 q 131 540 75 458 q 292 670 186 622 q 551 718 399 718 q 810 670 704 718 q 971 540 915 622 q 1026 353 1026 458 q 972 165 1026 249 q 810 33 917 82 q 551 -15 704 -15 m 551 200 q 697 246 650 200 q 744 353 744 292 q 697 459 744 415 q 551 503 650 503 q 405 459 453 503 q 357 353 357 415 q 406 246 357 292 q 551 200 454 200 m 225 792 l 429 1071 l 668 1071 l 872 792 l 678 792 l 549 936 l 419 792 l 225 792 m 822 988 l 646 1200 l 869 1200 l 979 988 l 822 988 z "},"ổ":{"ha":1101,"x_min":75,"x_max":1035,"o":"m 551 -15 q 293 33 400 -15 q 131 165 186 82 q 75 353 75 249 q 131 540 75 458 q 292 670 186 622 q 551 718 399 718 q 810 670 704 718 q 971 540 915 622 q 1026 353 1026 458 q 972 165 1026 249 q 810 33 917 82 q 551 -15 704 -15 m 551 200 q 697 246 650 200 q 744 353 744 292 q 697 459 744 415 q 551 503 650 503 q 405 459 453 503 q 357 353 357 415 q 406 246 357 292 q 551 200 454 200 m 225 801 l 429 1081 l 668 1081 l 872 801 l 678 801 l 549 946 l 419 801 l 225 801 m 774 997 q 781 1031 771 1017 q 805 1058 790 1046 q 830 1081 819 1071 q 840 1100 840 1090 q 829 1115 840 1111 q 792 1119 818 1119 q 748 1115 768 1119 q 699 1100 728 1111 l 665 1196 q 749 1219 706 1213 q 849 1226 793 1226 q 987 1206 939 1226 q 1035 1142 1035 1185 q 1018 1095 1035 1114 q 981 1062 1001 1076 q 944 1033 960 1047 q 931 997 929 1018 l 774 997 z "},"ỗ":{"ha":1101,"x_min":75,"x_max":1026,"o":"m 551 -15 q 293 33 400 -15 q 131 165 186 82 q 75 353 75 249 q 131 540 75 458 q 292 670 186 622 q 551 718 399 718 q 810 670 704 718 q 971 540 915 622 q 1026 353 1026 458 q 972 165 1026 249 q 810 33 917 82 q 551 -15 704 -15 m 551 200 q 697 246 650 200 q 744 353 744 292 q 697 459 744 415 q 551 503 650 503 q 405 459 453 503 q 357 353 357 415 q 406 246 357 292 q 551 200 454 200 m 228 792 l 432 1028 l 671 1028 l 875 792 l 672 792 l 551 913 l 431 792 l 228 792 m 353 1063 l 217 1068 q 241 1164 222 1124 q 302 1228 260 1204 q 418 1251 344 1251 q 503 1240 464 1251 q 574 1219 543 1228 q 620 1206 593 1215 q 678 1197 647 1197 q 729 1213 713 1197 q 751 1251 746 1229 l 886 1244 q 833 1112 879 1163 q 676 1061 788 1061 q 594 1072 629 1061 q 532 1090 558 1082 q 478 1108 503 1101 q 426 1115 453 1115 q 380 1101 401 1115 q 353 1063 358 1088 z "},"ȍ":{"ha":1101,"x_min":75,"x_max":1026,"o":"m 551 -15 q 293 33 400 -15 q 131 165 186 82 q 75 353 75 249 q 131 540 75 458 q 292 670 186 622 q 551 718 399 718 q 810 670 704 718 q 971 540 915 622 q 1026 353 1026 458 q 972 165 1026 249 q 810 33 917 82 q 551 -15 704 -15 m 551 200 q 697 246 650 200 q 744 353 744 292 q 697 459 744 415 q 551 503 650 503 q 405 459 453 503 q 357 353 357 415 q 406 246 357 292 q 551 200 454 200 m 628 781 l 467 1086 l 706 1086 l 783 781 l 628 781 m 329 781 l 168 1086 l 406 1086 l 483 781 l 329 781 z "},"ö":{"ha":1101,"x_min":75,"x_max":1026,"o":"m 551 -15 q 293 33 400 -15 q 131 165 186 82 q 75 353 75 249 q 131 540 75 458 q 292 670 186 622 q 551 718 399 718 q 810 670 704 718 q 971 540 915 622 q 1026 353 1026 458 q 972 165 1026 249 q 810 33 917 82 q 551 -15 704 -15 m 551 200 q 697 246 650 200 q 744 353 744 292 q 697 459 744 415 q 551 503 650 503 q 405 459 453 503 q 357 353 357 415 q 406 246 357 292 q 551 200 454 200 m 625 804 l 625 1049 l 882 1049 l 882 804 l 625 804 m 221 804 l 221 1049 l 478 1049 l 478 804 l 221 804 z "},"ȫ":{"ha":1101,"x_min":75,"x_max":1026,"o":"m 551 -15 q 293 33 400 -15 q 131 165 186 82 q 75 353 75 249 q 131 540 75 458 q 292 670 186 622 q 551 718 399 718 q 810 670 704 718 q 971 540 915 622 q 1026 353 1026 458 q 972 165 1026 249 q 810 33 917 82 q 551 -15 704 -15 m 551 200 q 697 246 650 200 q 744 353 744 292 q 697 459 744 415 q 551 503 650 503 q 405 459 453 503 q 357 353 357 415 q 406 246 357 292 q 551 200 454 200 m 238 1031 l 238 1203 l 865 1203 l 865 1031 l 238 1031 m 231 799 l 231 969 l 489 969 l 489 799 l 231 799 m 614 799 l 614 969 l 872 969 l 872 799 l 614 799 z "},"ȱ":{"ha":1101,"x_min":75,"x_max":1026,"o":"m 551 -15 q 293 33 400 -15 q 131 165 186 82 q 75 353 75 249 q 131 540 75 458 q 292 670 186 622 q 551 718 399 718 q 810 670 704 718 q 971 540 915 622 q 1026 353 1026 458 q 972 165 1026 249 q 810 33 917 82 q 551 -15 704 -15 m 551 200 q 697 246 650 200 q 744 353 744 292 q 697 459 744 415 q 551 503 650 503 q 405 459 453 503 q 357 353 357 415 q 406 246 357 292 q 551 200 454 200 m 240 1050 l 240 1221 l 863 1221 l 863 1050 l 240 1050 m 422 797 l 422 989 l 681 989 l 681 797 l 422 797 z "},"ọ":{"ha":1101,"x_min":75,"x_max":1026,"o":"m 551 -15 q 293 33 400 -15 q 131 165 186 82 q 75 353 75 249 q 131 540 75 458 q 292 670 186 622 q 551 718 399 718 q 810 670 704 718 q 971 540 915 622 q 1026 353 1026 458 q 972 165 1026 249 q 810 33 917 82 q 551 -15 704 -15 m 551 200 q 697 246 650 200 q 744 353 744 292 q 697 459 744 415 q 551 503 650 503 q 405 459 453 503 q 357 353 357 415 q 406 246 357 292 q 551 200 454 200 m 428 -325 l 428 -93 l 675 -93 l 675 -325 l 428 -325 z "},"ò":{"ha":1101,"x_min":75,"x_max":1026,"o":"m 551 -15 q 293 33 400 -15 q 131 165 186 82 q 75 353 75 249 q 131 540 75 458 q 292 670 186 622 q 551 718 399 718 q 810 670 704 718 q 971 540 915 622 q 1026 353 1026 458 q 972 165 1026 249 q 810 33 917 82 q 551 -15 704 -15 m 551 200 q 697 246 650 200 q 744 353 744 292 q 697 459 744 415 q 551 503 650 503 q 405 459 453 503 q 357 353 357 415 q 406 246 357 292 q 551 200 454 200 m 460 792 l 199 1085 l 486 1085 l 664 792 l 460 792 z "},"ỏ":{"ha":1101,"x_min":75,"x_max":1026,"o":"m 551 -15 q 293 33 400 -15 q 131 165 186 82 q 75 353 75 249 q 131 540 75 458 q 292 670 186 622 q 551 718 399 718 q 810 670 704 718 q 971 540 915 622 q 1026 353 1026 458 q 972 165 1026 249 q 810 33 917 82 q 551 -15 704 -15 m 551 200 q 697 246 650 200 q 744 353 744 292 q 697 459 744 415 q 551 503 650 503 q 405 459 453 503 q 357 353 357 415 q 406 246 357 292 q 551 200 454 200 m 457 792 l 457 821 q 472 865 457 847 q 505 896 486 883 q 538 921 524 908 q 553 950 553 933 q 536 974 553 967 q 485 981 519 981 q 430 974 457 981 q 376 957 403 968 l 328 1071 q 433 1101 374 1090 q 560 1113 493 1113 q 733 1081 675 1113 q 792 994 792 1050 q 769 931 792 956 q 718 891 747 907 q 667 857 689 875 q 644 811 644 839 l 644 792 l 457 792 z "}}}
